<svg width="16" height="17" viewBox="0 0 16 17" fill="none" xmlns="http://www.w3.org/2000/svg">
                        <path d="M4.14779 13.5003H5.89779L10.8978 8.47985L9.10612 6.66575L4.14779 11.6862V13.5003ZM11.4811 7.88921L12.3561 6.96107C12.4395 6.87669 12.4811 6.77825 12.4811 6.66575C12.4811 6.55325 12.4395 6.45481 12.3561 6.37043L11.1895 5.18916C11.1061 5.10479 11.0089 5.0626 10.8978 5.0626C10.7867 5.0626 10.6895 5.10479 10.6061 5.18916L9.68945 6.07512L11.4811 7.88921ZM2.48112 16.8753C2.02279 16.8753 1.63029 16.7099 1.30362 16.3792C0.976954 16.0484 0.813899 15.6513 0.814455 15.1878V3.37506C0.814455 2.91099 0.977788 2.51358 1.30445 2.18282C1.63112 1.85207 2.02334 1.68697 2.48112 1.68753H5.98112C6.16168 1.18127 6.4639 0.773452 6.88779 0.464071C7.31168 0.15469 7.78723 0 8.31445 0C8.84223 0 9.31806 0.15469 9.74195 0.464071C10.1658 0.773452 10.4678 1.18127 10.6478 1.68753H14.1478C14.6061 1.68753 14.9986 1.85291 15.3253 2.18367C15.652 2.51442 15.815 2.91156 15.8145 3.37506V15.1878C15.8145 15.6519 15.6511 16.0493 15.3245 16.38C14.9978 16.7108 14.6056 16.8759 14.1478 16.8753H2.48112ZM8.31445 2.74224C8.49501 2.74224 8.64417 2.68233 8.76195 2.56252C8.87973 2.4427 8.9389 2.29167 8.93945 2.10942C8.93945 1.9266 8.88029 1.77557 8.76195 1.65631C8.64362 1.53706 8.49445 1.47715 8.31445 1.47659C8.1339 1.47659 7.98473 1.5365 7.86695 1.65631C7.74918 1.77613 7.69001 1.92716 7.68945 2.10942C7.68945 2.29223 7.74862 2.44327 7.86695 2.56252C7.98529 2.68177 8.13445 2.74168 8.31445 2.74224Z" />
                        </svg>