<svg width="25" height="25" viewBox="0 0 25 25" fill="none" xmlns="http://www.w3.org/2000/svg">
<path d="M12.5 5.17774e-07C12.3621 -0.000136518 12.2255 0.026929 12.098 0.0796479C11.9706 0.132367 11.8548 0.209704 11.7572 0.307233C11.6597 0.404762 11.5824 0.520567 11.5296 0.648021C11.4769 0.775475 11.4499 0.912074 11.45 1.05C11.4498 1.25797 11.5113 1.46132 11.6267 1.63432C11.7421 1.80732 11.9062 1.9422 12.0983 2.02188C12.2904 2.10156 12.5019 2.12246 12.7058 2.08194C12.9098 2.04142 13.0972 1.94129 13.2442 1.79424C13.3913 1.64719 13.4914 1.45981 13.5319 1.25583C13.5725 1.05186 13.5516 0.84044 13.4719 0.648344C13.3922 0.456249 13.2573 0.29211 13.0843 0.176699C12.9113 0.0612882 12.708 -0.00020549 12.5 5.17774e-07ZM9.05208 0.563542C8.91166 0.551779 8.77031 0.568429 8.63646 0.6125C8.08646 0.789584 7.78229 1.38333 7.96354 1.93542C8.00622 2.0666 8.07432 2.1881 8.16395 2.29296C8.25359 2.39783 8.363 2.48401 8.48594 2.5466C8.60888 2.60918 8.74294 2.64693 8.88048 2.65771C9.01801 2.66848 9.15631 2.65206 9.2875 2.60938C9.41869 2.5667 9.54018 2.4986 9.64505 2.40896C9.74991 2.31933 9.8361 2.20992 9.89868 2.08698C9.96126 1.96404 9.99902 1.82997 10.0098 1.69244C10.0206 1.55491 10.0041 1.4166 9.96146 1.28542C9.89815 1.08871 9.77799 0.915171 9.61615 0.786695C9.4543 0.658219 9.25802 0.580568 9.05208 0.563542ZM15.9479 0.563542C15.7583 0.579681 15.5765 0.646975 15.4221 0.758253C15.2676 0.869531 15.1463 1.02062 15.0709 1.19543C14.9956 1.37024 14.9691 1.56221 14.9943 1.75089C15.0194 1.93957 15.0953 2.11789 15.2138 2.26685C15.3323 2.41581 15.489 2.52983 15.6672 2.59675C15.8454 2.66368 16.0384 2.681 16.2257 2.64688C16.413 2.61276 16.5875 2.52847 16.7306 2.40299C16.8738 2.27752 16.9802 2.11556 17.0385 1.93438C17.1238 1.66915 17.1005 1.38093 16.9735 1.13292C16.8466 0.884916 16.6265 0.697383 16.3615 0.611459C16.2286 0.567907 16.0872 0.551609 15.9479 0.563542ZM11.0292 2.07396C10.9693 2.07102 10.9093 2.07416 10.85 2.08333C10.735 2.10134 10.6247 2.14186 10.5254 2.20259C10.4261 2.26332 10.3398 2.34304 10.2713 2.43721C10.2029 2.53137 10.1538 2.63811 10.1267 2.75131C10.0996 2.86451 10.0951 2.98194 10.1135 3.09688C10.1317 3.21201 10.1723 3.32244 10.2332 3.42183C10.2941 3.52121 10.3741 3.60759 10.4684 3.67601C10.5628 3.74443 10.6697 3.79355 10.7831 3.82055C10.8965 3.84755 11.0141 3.85189 11.1292 3.83333C11.3612 3.79645 11.569 3.66899 11.7071 3.47895C11.8452 3.28891 11.9022 3.05183 11.8656 2.81979C11.8331 2.61821 11.7322 2.43396 11.5799 2.29796C11.4276 2.16196 11.2331 2.0825 11.0292 2.07292V2.07396ZM13.9708 2.07396C13.7673 2.08343 13.5733 2.16279 13.4215 2.29866C13.2697 2.43452 13.1694 2.61858 13.1375 2.81979C13.0594 3.30313 13.3885 3.75729 13.8708 3.83333C14.3542 3.90938 14.8083 3.58125 14.8865 3.09896C14.9231 2.86667 14.8661 2.62934 14.7281 2.43897C14.59 2.2486 14.3822 2.12071 14.15 2.08333C14.0908 2.07383 14.0308 2.07034 13.9708 2.07292V2.07396ZM5.73333 2.1875C5.52437 2.19421 5.32224 2.26353 5.15312 2.38646C4.9488 2.53423 4.80434 2.75048 4.74607 2.99582C4.68779 3.24116 4.71957 3.49927 4.83562 3.72315C4.95168 3.94702 5.14428 4.12176 5.37835 4.21556C5.61242 4.30935 5.8724 4.31595 6.11093 4.23415C6.34946 4.15236 6.55068 3.98761 6.67794 3.76992C6.80521 3.55222 6.85004 3.29605 6.80429 3.04807C6.75854 2.80009 6.62524 2.57679 6.42868 2.41884C6.23211 2.26089 5.98535 2.17879 5.73333 2.1875ZM19.2667 2.1875C19.0412 2.1782 18.8187 2.24188 18.6322 2.36909C18.4458 2.49629 18.3054 2.68023 18.2318 2.8936C18.1582 3.10697 18.1554 3.33837 18.2238 3.55346C18.2922 3.76854 18.4282 3.95582 18.6115 4.0875C18.8374 4.24367 19.1154 4.30531 19.3862 4.25926C19.6569 4.2132 19.8989 4.06309 20.0605 3.841C20.2221 3.61891 20.2904 3.34245 20.2508 3.07067C20.2113 2.79888 20.0671 2.55333 19.849 2.38646C19.679 2.26359 19.4763 2.19431 19.2667 2.1875ZM8.05208 3.00729C7.934 3.01575 7.81885 3.04799 7.71354 3.10208C7.60984 3.155 7.51759 3.22785 7.44207 3.31647C7.36656 3.40508 7.30926 3.50772 7.27346 3.6185C7.23766 3.72929 7.22406 3.84604 7.23344 3.96209C7.24282 4.07814 7.275 4.1912 7.32812 4.29479C7.38054 4.39857 7.45297 4.49096 7.54124 4.56662C7.62952 4.64228 7.73189 4.69973 7.84247 4.73566C7.95304 4.77158 8.06964 4.78527 8.18552 4.77593C8.30141 4.76659 8.41431 4.73441 8.51771 4.68125C8.72683 4.5743 8.88509 4.38891 8.9579 4.1656C9.03071 3.94229 9.01214 3.69924 8.90625 3.48958C8.82683 3.33431 8.70352 3.20582 8.55165 3.12007C8.39978 3.03432 8.22606 2.9951 8.05208 3.00729ZM16.951 3.00729C16.7771 2.9951 16.6033 3.03432 16.4515 3.12007C16.2996 3.20582 16.1763 3.33431 16.0969 3.48958C15.9903 3.69901 15.9713 3.94217 16.044 4.16562C16.1166 4.38907 16.275 4.57453 16.4844 4.68125C16.5878 4.73461 16.7007 4.76698 16.8166 4.77647C16.9326 4.78597 17.0493 4.77241 17.16 4.73658C17.2707 4.70075 17.3732 4.64335 17.4616 4.56771C17.55 4.49206 17.6225 4.39966 17.675 4.29583C17.7283 4.19219 17.7606 4.07904 17.7701 3.96288C17.7795 3.84672 17.766 3.72984 17.7302 3.61893C17.6943 3.50803 17.637 3.40528 17.5614 3.31659C17.4858 3.22789 17.3934 3.155 17.2896 3.10208C17.1842 3.04823 17.0691 3.016 16.951 3.00729ZM12.5 3.71042C12.4029 3.71042 12.3068 3.72955 12.2171 3.76673C12.1275 3.80392 12.046 3.85841 11.9774 3.9271C11.9088 3.99579 11.8544 4.07733 11.8174 4.16705C11.7803 4.25678 11.7613 4.35293 11.7615 4.45C11.7615 4.85833 12.0917 5.1875 12.5 5.1875C12.597 5.18764 12.6931 5.16863 12.7828 5.13156C12.8725 5.09449 12.9539 5.0401 13.0225 4.97149C13.0911 4.90288 13.1455 4.82141 13.1826 4.73175C13.2197 4.64208 13.2387 4.54598 13.2385 4.44896C13.2385 4.25309 13.1607 4.06523 13.0222 3.92673C12.8837 3.78823 12.6959 3.71042 12.5 3.71042ZM10.075 4.10729C9.97638 4.09936 9.87718 4.1114 9.78333 4.14271C9.59745 4.20327 9.44322 4.33517 9.35454 4.5094C9.26586 4.68363 9.24999 4.88595 9.31042 5.07188C9.371 5.25779 9.50284 5.41208 9.67702 5.50093C9.85121 5.58978 10.0535 5.60593 10.2396 5.54583C10.4257 5.48544 10.5803 5.35374 10.6695 5.17959C10.7588 5.00543 10.7753 4.80301 10.7156 4.61667C10.6706 4.47827 10.5858 4.35619 10.4719 4.26561C10.358 4.17504 10.22 4.11998 10.075 4.10729ZM14.925 4.10729C14.7916 4.11831 14.6637 4.16532 14.5549 4.24332C14.4461 4.32132 14.3605 4.42737 14.3073 4.55019C14.2541 4.673 14.2351 4.80795 14.2526 4.94067C14.27 5.07339 14.3231 5.19888 14.4063 5.30378C14.4894 5.40868 14.5995 5.48905 14.7247 5.53631C14.8499 5.58357 14.9857 5.59597 15.1174 5.57216C15.2491 5.54836 15.3719 5.48925 15.4727 5.40115C15.5734 5.31304 15.6484 5.19924 15.6896 5.07188C15.75 4.88595 15.7341 4.68363 15.6455 4.5094C15.5568 4.33517 15.4025 4.20327 15.2167 4.14271C15.1228 4.11138 15.0236 4.09933 14.925 4.10729ZM3.27604 4.71979C3.10364 4.7138 2.93239 4.75017 2.77731 4.82572C2.62222 4.90127 2.48802 5.01368 2.38646 5.15313C2.2232 5.37893 2.15619 5.66029 2.20013 5.93545C2.24407 6.21061 2.39537 6.4571 2.62083 6.62083C3.08958 6.96146 3.74583 6.85833 4.08542 6.38854C4.42917 5.91979 4.32604 5.26146 3.85625 4.91979C3.68747 4.79608 3.4852 4.72636 3.27604 4.71979ZM21.7271 4.71979C21.5169 4.72625 21.3136 4.79595 21.1437 4.91979C20.94 5.06729 20.796 5.28302 20.7379 5.52774C20.6798 5.77246 20.7115 6.02991 20.8271 6.25325C20.9428 6.47659 21.1348 6.65098 21.3683 6.74469C21.6017 6.83841 21.861 6.84523 22.099 6.7639C22.337 6.68258 22.5379 6.51852 22.6652 6.30156C22.7924 6.08461 22.8376 5.82918 22.7924 5.58175C22.7473 5.33431 22.6148 5.11131 22.4191 4.95332C22.2234 4.79532 21.9774 4.71282 21.726 4.72083L21.7271 4.71979ZM5.66979 4.78125C5.55345 4.7814 5.43828 4.80447 5.33085 4.84916C5.22343 4.89384 5.12587 4.95926 5.04375 5.04167C4.87726 5.20797 4.78354 5.43352 4.78315 5.66884C4.78276 5.90416 4.87573 6.13002 5.04167 6.29688C5.20851 6.46258 5.43412 6.55558 5.66927 6.55558C5.90442 6.55558 6.13003 6.46258 6.29687 6.29688C6.46258 6.13003 6.55558 5.90442 6.55558 5.66927C6.55558 5.43412 6.46258 5.20851 6.29687 5.04167C6.21473 4.95899 6.11702 4.89342 6.00939 4.84872C5.90176 4.80402 5.78634 4.78109 5.66979 4.78125ZM19.3323 4.78125C19.2154 4.7811 19.0997 4.80403 18.9917 4.84872C18.8838 4.89341 18.7857 4.95898 18.7031 5.04167C18.5369 5.20824 18.4436 5.43395 18.4436 5.66927C18.4436 5.90459 18.5369 6.1303 18.7031 6.29688C18.8698 6.46283 19.0955 6.55601 19.3307 6.55601C19.566 6.55601 19.7916 6.46283 19.9583 6.29688C20.041 6.2146 20.1066 6.1168 20.1514 6.0091C20.1961 5.9014 20.2192 5.78591 20.2192 5.66927C20.2192 5.55263 20.1961 5.43715 20.1514 5.32944C20.1066 5.22174 20.041 5.12394 19.9583 5.04167C19.8763 4.95912 19.7788 4.89361 19.6713 4.84892C19.5639 4.80422 19.4487 4.78123 19.3323 4.78125ZM7.74375 5.25C7.59642 5.25463 7.45385 5.30325 7.33437 5.38958C7.18916 5.5095 7.09516 5.68029 7.07154 5.86713C7.04793 6.05397 7.09648 6.24278 7.2073 6.39506C7.31811 6.54733 7.48284 6.65159 7.66789 6.68658C7.85294 6.72156 8.04437 6.68464 8.20312 6.58333C8.2814 6.52645 8.3477 6.4547 8.39824 6.37218C8.44877 6.28967 8.48255 6.198 8.49764 6.10242C8.51273 6.00685 8.50884 5.90923 8.48619 5.81516C8.46354 5.72109 8.42257 5.6324 8.36562 5.55417C8.29495 5.45619 8.20126 5.3771 8.09281 5.32388C7.98436 5.27065 7.86449 5.24597 7.74375 5.25ZM17.2562 5.25C17.1356 5.24585 17.0158 5.27142 16.9073 5.32446C16.7989 5.3775 16.7052 5.45638 16.6344 5.55417C16.3948 5.88438 16.4677 6.34583 16.7969 6.58333C16.8752 6.6406 16.964 6.68183 17.0583 6.70467C17.1526 6.7275 17.2504 6.73148 17.3463 6.71638C17.4421 6.70128 17.534 6.6674 17.6167 6.61668C17.6994 6.56596 17.7712 6.4994 17.8281 6.42083C17.9072 6.3125 17.9552 6.18465 17.967 6.05105C17.9788 5.91746 17.954 5.78316 17.8952 5.66263C17.8364 5.5421 17.7458 5.43989 17.6332 5.367C17.5206 5.29411 17.3903 5.25434 17.2562 5.25ZM11.4792 5.25938C11.4373 5.25789 11.3954 5.26068 11.3542 5.26771C11.2342 5.28693 11.1226 5.34129 11.0335 5.42391C10.9444 5.50654 10.8818 5.61373 10.8536 5.73194C10.8254 5.85014 10.8328 5.97405 10.875 6.088C10.9172 6.20196 10.9923 6.30085 11.0907 6.37217C11.1891 6.44348 11.3064 6.48403 11.4278 6.48869C11.5492 6.49335 11.6693 6.4619 11.7729 6.39832C11.8765 6.33475 11.9588 6.24189 12.0097 6.1315C12.0605 6.02111 12.0774 5.89814 12.0583 5.77813C12.0363 5.63798 11.9666 5.50976 11.8608 5.4152C11.7551 5.32065 11.6198 5.2656 11.4781 5.25938H11.4792ZM13.5208 5.25938C13.3795 5.26591 13.2449 5.32115 13.1397 5.41571C13.0345 5.51027 12.9652 5.63832 12.9437 5.77813C12.9246 5.89823 12.9415 6.02132 12.9924 6.1318C13.0432 6.24229 13.1257 6.3352 13.2294 6.39878C13.333 6.46237 13.4533 6.49376 13.5748 6.48899C13.6963 6.48422 13.8137 6.4435 13.9121 6.37198C14.0104 6.30046 14.0854 6.20137 14.1274 6.08723C14.1694 5.9731 14.1766 5.84907 14.1481 5.73084C14.1196 5.6126 14.0567 5.50548 13.9673 5.42304C13.8779 5.3406 13.766 5.28654 13.6458 5.26771C13.6046 5.26068 13.5627 5.25789 13.5208 5.25938ZM9.41146 5.90833C9.32867 5.91469 9.24796 5.93735 9.17396 5.975C9.02885 6.04897 8.91903 6.17752 8.86864 6.33241C8.81825 6.48729 8.8314 6.65585 8.90521 6.80104C8.97922 6.94666 9.10799 7.05697 9.26325 7.10774C9.41851 7.15852 9.58757 7.14562 9.73333 7.07188C9.8789 6.99724 9.98906 6.86809 10.0398 6.71257C10.0905 6.55705 10.0777 6.38778 10.0042 6.24167C9.94925 6.13385 9.86368 6.04469 9.75822 5.98538C9.65276 5.92606 9.53211 5.89926 9.41146 5.90833ZM15.5906 5.90833C15.47 5.89926 15.3493 5.92606 15.2439 5.98538C15.1384 6.04469 15.0528 6.13385 14.9979 6.24167C14.9608 6.31351 14.9383 6.39197 14.9316 6.47254C14.925 6.55312 14.9343 6.63421 14.9591 6.71117C14.9839 6.78812 15.0236 6.85942 15.076 6.92097C15.1285 6.98251 15.1925 7.03309 15.2646 7.06979C15.3367 7.10671 15.4154 7.12904 15.4962 7.13551C15.577 7.14198 15.6583 7.13247 15.7354 7.10751C15.8125 7.08255 15.8839 7.04263 15.9456 6.99005C16.0073 6.93746 16.058 6.87323 16.0948 6.80104C16.1313 6.72902 16.1532 6.65052 16.1593 6.57003C16.1654 6.48954 16.1556 6.40862 16.1305 6.33192C16.1053 6.25521 16.0653 6.1842 16.0127 6.12296C15.9601 6.06172 15.896 6.01144 15.824 5.975C15.7514 5.93739 15.6721 5.91472 15.5906 5.90833ZM12.5 6.44583C12.3652 6.44583 12.2359 6.49939 12.1406 6.59472C12.0452 6.69005 11.9917 6.81935 11.9917 6.95417C11.9913 7.05529 12.0209 7.15426 12.0768 7.23852C12.1327 7.32278 12.2124 7.38852 12.3058 7.42741C12.3991 7.4663 12.5019 7.47658 12.6011 7.45696C12.7004 7.43733 12.7915 7.38867 12.863 7.31717C12.9345 7.24566 12.9832 7.15452 13.0028 7.05531C13.0224 6.95611 13.0121 6.85331 12.9732 6.75996C12.9344 6.66661 12.8686 6.58691 12.7844 6.53099C12.7001 6.47506 12.6011 6.44542 12.5 6.44583ZM10.8302 6.71771C10.7625 6.71247 10.6945 6.72097 10.6302 6.74271C10.502 6.78415 10.3955 6.87481 10.3342 6.99476C10.2729 7.1147 10.2617 7.2541 10.3031 7.38229C10.3446 7.51048 10.4352 7.61696 10.5552 7.6783C10.6751 7.73964 10.8145 7.75082 10.9427 7.70938C11.0065 7.68893 11.0656 7.65609 11.1166 7.61274C11.1677 7.56938 11.2096 7.51637 11.2401 7.45674C11.2706 7.39711 11.289 7.33205 11.2943 7.26529C11.2996 7.19852 11.2916 7.13138 11.2708 7.06771C11.2395 6.9726 11.1809 6.88876 11.1024 6.82655C11.0239 6.76435 10.9289 6.72651 10.8292 6.71771H10.8302ZM14.1698 6.71771C14.0703 6.72631 13.9756 6.76412 13.8976 6.8264C13.8196 6.88867 13.7617 6.97263 13.7312 7.06771C13.7104 7.13118 13.7023 7.19813 13.7074 7.26474C13.7124 7.33135 13.7306 7.39631 13.7608 7.4559C13.7909 7.5155 13.8326 7.56856 13.8833 7.61205C13.934 7.65554 13.9928 7.68861 14.0562 7.70938C14.1844 7.75123 14.324 7.74045 14.4442 7.6794C14.5645 7.61835 14.6555 7.51204 14.6974 7.38385C14.7392 7.25567 14.7285 7.1161 14.6674 6.99586C14.6064 6.87563 14.5001 6.78456 14.3719 6.74271C14.3069 6.72089 14.2381 6.71238 14.1698 6.71771ZM6.01354 7.03021C5.89287 7.02587 5.77299 7.05136 5.66451 7.10442C5.55604 7.15747 5.46233 7.23646 5.39167 7.33438C5.30566 7.4526 5.25667 7.5937 5.25092 7.73979C5.24517 7.88588 5.2829 8.03039 5.35935 8.15501C5.43579 8.27964 5.54751 8.37877 5.68034 8.43985C5.81317 8.50093 5.96115 8.52121 6.10552 8.49812C6.24988 8.47504 6.38415 8.40962 6.49131 8.31016C6.59847 8.2107 6.6737 8.08167 6.70746 7.93942C6.74123 7.79717 6.73202 7.6481 6.68099 7.51109C6.62997 7.37408 6.53942 7.2553 6.42083 7.16979C6.30257 7.08327 6.16103 7.03428 6.01458 7.02917L6.01354 7.03021ZM18.9885 7.03021C18.8412 7.0349 18.6987 7.08351 18.5792 7.16979C18.5004 7.22653 18.4337 7.29827 18.3828 7.38089C18.3319 7.4635 18.2978 7.55537 18.2825 7.6512C18.2672 7.74703 18.271 7.84494 18.2937 7.93931C18.3163 8.03367 18.3574 8.12262 18.4146 8.20104C18.5295 8.35976 18.7028 8.46632 18.8963 8.49728C19.0898 8.52824 19.2876 8.48107 19.4464 8.36615C19.6051 8.25122 19.7116 8.07795 19.7426 7.88445C19.7736 7.69096 19.7264 7.49309 19.6115 7.33438C19.5408 7.23611 19.447 7.15684 19.3383 7.10359C19.2296 7.05034 19.1095 7.02582 18.9885 7.03021ZM7.75521 7.14167C7.59194 7.14173 7.43535 7.20653 7.31979 7.32188C7.20466 7.43712 7.13998 7.59335 7.13998 7.75625C7.13998 7.91915 7.20466 8.07538 7.31979 8.19063C7.37689 8.24795 7.44475 8.29343 7.51947 8.32446C7.59419 8.3555 7.6743 8.37148 7.75521 8.37148C7.83612 8.37148 7.91623 8.3555 7.99095 8.32446C8.06567 8.29343 8.13352 8.24795 8.19062 8.19063C8.24796 8.13359 8.29349 8.06582 8.32463 7.99119C8.35577 7.91655 8.37189 7.83651 8.37208 7.75564C8.37228 7.67477 8.35654 7.59465 8.32576 7.51987C8.29498 7.44509 8.24977 7.3771 8.19271 7.31979C8.13507 7.26281 8.06676 7.21774 7.99169 7.18718C7.91662 7.15661 7.83626 7.14115 7.75521 7.14167ZM17.2448 7.14167C17.1639 7.14153 17.0838 7.15737 17.0091 7.1883C16.9344 7.21923 16.8665 7.26462 16.8094 7.32188C16.752 7.37873 16.7064 7.44638 16.6754 7.52094C16.6443 7.5955 16.6283 7.67547 16.6283 7.75625C16.6283 7.83703 16.6443 7.917 16.6754 7.99156C16.7064 8.06612 16.752 8.13377 16.8094 8.19063C16.8664 8.24776 16.9341 8.29309 17.0086 8.32402C17.0831 8.35494 17.1631 8.37086 17.2438 8.37086C17.3244 8.37086 17.4044 8.35494 17.4789 8.32402C17.5534 8.29309 17.6211 8.24776 17.6781 8.19063C17.7935 8.07566 17.8586 7.91958 17.859 7.75668C17.8594 7.59378 17.7951 7.43739 17.6802 7.32188C17.6231 7.26458 17.5553 7.21915 17.4805 7.18822C17.4058 7.15729 17.3257 7.14147 17.2448 7.14167ZM3.95729 7.22917C3.78325 7.21734 3.60955 7.25683 3.45773 7.34274C3.3059 7.42865 3.18261 7.55721 3.10312 7.7125C3.05026 7.81609 3.01834 7.9291 3.00921 8.04505C3.00008 8.16099 3.0139 8.2776 3.0499 8.38819C3.08589 8.49879 3.14335 8.6012 3.21897 8.68956C3.2946 8.77792 3.38691 8.85049 3.49062 8.90313C3.70004 9.00976 3.94323 9.02885 4.16671 8.95618C4.39019 8.88351 4.57565 8.72504 4.68229 8.51563C4.78893 8.30622 4.80801 8.06302 4.73534 7.83954C4.66267 7.61606 4.5042 7.4306 4.29479 7.32396C4.18981 7.27 4.07502 7.23776 3.95729 7.22917ZM21.0448 7.22917C20.9264 7.23776 20.8109 7.27 20.7052 7.32396C20.5489 7.40337 20.4196 7.52736 20.3338 7.68024C20.2479 7.83313 20.2093 8.00804 20.2229 8.18285C20.2365 8.35766 20.3016 8.52453 20.41 8.66234C20.5184 8.80015 20.6652 8.90272 20.8319 8.95708C20.9986 9.01143 21.1777 9.01512 21.3465 8.96769C21.5153 8.92026 21.6662 8.82384 21.7802 8.69062C21.8942 8.5574 21.9662 8.39336 21.9869 8.21925C22.0077 8.04515 21.9763 7.86879 21.8969 7.7125C21.8177 7.55738 21.6948 7.4289 21.5434 7.34298C21.3919 7.25706 21.2185 7.21749 21.0448 7.22917ZM9.22187 7.50521C9.12097 7.50832 9.02334 7.54171 8.94167 7.60104C8.84488 7.68469 8.78304 7.80163 8.76838 7.92871C8.75372 8.05579 8.78731 8.18375 8.8625 8.28724C8.9377 8.39073 9.04901 8.46221 9.1744 8.48753C9.29979 8.51285 9.43012 8.49016 9.53958 8.42396C9.64794 8.34458 9.72056 8.22561 9.74163 8.09295C9.7627 7.96029 9.73051 7.82467 9.65208 7.71563C9.60354 7.64778 9.53892 7.59305 9.46402 7.55633C9.38912 7.5196 9.30628 7.50204 9.22292 7.50521H9.22187ZM15.7781 7.50521C15.6947 7.50184 15.6117 7.5192 15.5367 7.55574C15.4616 7.59228 15.3967 7.64685 15.3479 7.71458C15.3086 7.76868 15.2804 7.83002 15.2648 7.89507C15.2493 7.96012 15.2468 8.0276 15.2574 8.09362C15.2681 8.15965 15.2917 8.22292 15.3269 8.27979C15.3621 8.33666 15.4082 8.38601 15.4625 8.425C15.5715 8.50403 15.7075 8.53657 15.8405 8.51548C15.9735 8.49439 16.0926 8.42139 16.1719 8.3125C16.2509 8.20301 16.2833 8.06667 16.2621 7.93332C16.2408 7.79997 16.1675 7.68049 16.0583 7.60104C15.9764 7.54151 15.8783 7.50811 15.7771 7.50521H15.7781ZM11.8062 7.57604C11.7784 7.57455 11.7505 7.57595 11.7229 7.58021C11.6164 7.59625 11.5201 7.65263 11.454 7.73768C11.3879 7.82272 11.357 7.92993 11.3677 8.03711C11.3785 8.1443 11.43 8.24326 11.5116 8.31352C11.5933 8.38378 11.6988 8.41997 11.8064 8.41459C11.914 8.40921 12.0154 8.36268 12.0896 8.28462C12.1639 8.20656 12.2053 8.10296 12.2052 7.99524C12.2052 7.88752 12.1638 7.78393 12.0895 7.7059C12.0153 7.62787 11.9138 7.58138 11.8062 7.57604ZM13.1937 7.57604C13.0974 7.57995 13.0053 7.61719 12.9333 7.6814C12.8613 7.74561 12.8138 7.83281 12.799 7.92813C12.7829 8.03772 12.8103 8.14924 12.8753 8.23893C12.9403 8.32863 13.0377 8.38941 13.1469 8.40833C13.2541 8.42024 13.3618 8.39043 13.4476 8.32507C13.5334 8.25972 13.5907 8.16384 13.6078 8.05733C13.6248 7.95082 13.6001 7.84184 13.539 7.753C13.4778 7.66417 13.3847 7.60229 13.2792 7.58021C13.2509 7.57597 13.2223 7.57457 13.1937 7.57604ZM1.52187 7.91458C1.26213 7.93689 1.01995 8.05492 0.842358 8.24577C0.664763 8.43661 0.564431 8.68665 0.560847 8.94732C0.557263 9.20799 0.650682 9.46069 0.822962 9.65635C0.995242 9.85201 1.23409 9.97666 1.49312 10.0061C1.75215 10.0355 2.01287 9.96765 2.22466 9.81563C2.43645 9.66362 2.58418 9.43832 2.63918 9.1835C2.69417 8.92867 2.6525 8.66249 2.52226 8.43667C2.39201 8.21084 2.18249 8.04147 1.93437 7.96146C1.80148 7.91799 1.6612 7.90274 1.52187 7.91458ZM23.4781 7.91458C23.3389 7.90237 23.1986 7.91831 23.0656 7.96146C22.5135 8.14167 22.2104 8.73542 22.3896 9.2875C22.5708 9.83958 23.1615 10.1417 23.7125 9.96042C23.9446 9.88699 24.1439 9.73515 24.2763 9.53091C24.4087 9.32668 24.4659 9.08275 24.4382 8.84094C24.4105 8.59912 24.2996 8.37447 24.1244 8.20546C23.9493 8.03646 23.7208 7.93363 23.4781 7.91458ZM10.4 8.01875C10.3435 8.02238 10.2882 8.03726 10.2375 8.0625C10.1389 8.11307 10.0642 8.20059 10.0299 8.30597C9.99556 8.41134 10.0043 8.52603 10.0542 8.625C10.079 8.67417 10.1133 8.71794 10.1551 8.75376C10.197 8.78959 10.2455 8.81676 10.2979 8.83371C10.3503 8.85067 10.4056 8.85706 10.4605 8.85252C10.5153 8.84799 10.5688 8.83262 10.6177 8.80729C10.6667 8.78256 10.7103 8.7484 10.7461 8.70676C10.7818 8.66512 10.809 8.61683 10.826 8.56466C10.8431 8.51249 10.8496 8.45747 10.8453 8.40275C10.8411 8.34804 10.826 8.29471 10.801 8.24583C10.7644 8.17227 10.7067 8.11128 10.6353 8.07064C10.5639 8.03001 10.4819 8.01263 10.4 8.01875ZM14.6 8.01875C14.5184 8.01263 14.4369 8.03071 14.3655 8.07073C14.2942 8.11076 14.2362 8.17094 14.199 8.24375C14.1738 8.29275 14.1586 8.34625 14.1542 8.40115C14.1498 8.45606 14.1563 8.51129 14.1734 8.56366C14.1904 8.61604 14.2177 8.66453 14.2535 8.70634C14.2894 8.74815 14.3331 8.78246 14.3823 8.80729C14.4312 8.83225 14.4845 8.84731 14.5392 8.8516C14.5939 8.85589 14.6489 8.84933 14.7011 8.83229C14.7533 8.81526 14.8016 8.78808 14.8432 8.75233C14.8849 8.71658 14.919 8.67295 14.9437 8.62396C14.9689 8.57503 14.9841 8.52162 14.9884 8.46679C14.9928 8.41196 14.9863 8.35681 14.9692 8.30452C14.9522 8.25223 14.925 8.20383 14.8891 8.16211C14.8533 8.12039 14.8095 8.08619 14.7604 8.06146C14.7104 8.03619 14.6559 8.02235 14.6 8.01875ZM8.03229 8.73229C7.91055 8.72842 7.79146 8.76839 7.69671 8.84492C7.60195 8.92146 7.53783 9.02947 7.51601 9.14931C7.49419 9.26914 7.51613 9.39283 7.57782 9.49785C7.63952 9.60287 7.73687 9.68225 7.85217 9.72154C7.96746 9.76082 8.09303 9.7574 8.20602 9.7119C8.319 9.6664 8.41189 9.58184 8.46778 9.47362C8.52367 9.36539 8.53884 9.2407 8.51054 9.12223C8.48223 9.00376 8.41232 8.89939 8.31354 8.82813C8.23152 8.76871 8.13353 8.73532 8.03229 8.73229ZM16.9698 8.73229C16.8679 8.73523 16.7692 8.76861 16.6865 8.82813C16.6325 8.86735 16.5868 8.91682 16.552 8.97372C16.5172 9.03061 16.494 9.09381 16.4836 9.1597C16.4733 9.22559 16.476 9.29287 16.4917 9.3577C16.5074 9.42253 16.5357 9.48363 16.575 9.5375C16.6118 9.59712 16.6605 9.64851 16.718 9.68846C16.7756 9.7284 16.8408 9.75605 16.9095 9.76967C16.9782 9.78328 17.049 9.78258 17.1174 9.76759C17.1859 9.75261 17.2505 9.72367 17.3072 9.68259C17.364 9.6415 17.4116 9.58915 17.4472 9.52881C17.4828 9.46847 17.5056 9.40144 17.5141 9.3319C17.5226 9.26236 17.5167 9.19182 17.4967 9.12467C17.4767 9.05753 17.4431 8.99523 17.3979 8.94167C17.3496 8.87396 17.2851 8.81937 17.2103 8.78282C17.1356 8.74626 17.0529 8.7289 16.9698 8.73229ZM6.56771 8.83958C6.44676 8.83117 6.32601 8.85848 6.22045 8.91811C6.1149 8.97774 6.02918 9.06707 5.97396 9.175C5.90026 9.3206 5.88739 9.48951 5.93817 9.6446C5.98896 9.79969 6.09924 9.92827 6.24479 10.0021C6.31643 10.039 6.39465 10.0613 6.47495 10.0679C6.55525 10.0744 6.63606 10.065 6.71273 10.0403C6.78939 10.0155 6.86041 9.97579 6.92168 9.92347C6.98296 9.87116 7.03329 9.80725 7.06979 9.73542C7.14406 9.58965 7.15748 9.42038 7.10709 9.26474C7.05671 9.1091 6.94664 8.9798 6.80104 8.90521C6.72845 8.8679 6.6491 8.84559 6.56771 8.83958ZM18.4344 8.83958C18.3523 8.84548 18.2722 8.86779 18.199 8.90521C18.0534 8.9798 17.9433 9.1091 17.8929 9.26474C17.8425 9.42038 17.8559 9.58965 17.9302 9.73542C18.0044 9.88035 18.133 9.98993 18.2879 10.0401C18.4427 10.0903 18.6112 10.077 18.7562 10.0031C18.8284 9.9665 18.8925 9.916 18.9451 9.85452C18.9977 9.79304 19.0376 9.72179 19.0626 9.64486C19.0875 9.56792 19.0971 9.48682 19.0906 9.40619C19.0842 9.32556 19.0619 9.24699 19.025 9.175C18.9707 9.06697 18.8857 8.97744 18.7805 8.91774C18.6754 8.85804 18.555 8.83084 18.4344 8.83958ZM9.275 8.85417C9.1628 8.85494 9.0554 8.89985 8.97604 8.97917C8.89795 9.05795 8.85431 9.1645 8.8547 9.27543C8.85509 9.38636 8.89948 9.4926 8.97813 9.57083C9.05663 9.6492 9.16303 9.69322 9.27396 9.69322C9.38489 9.69322 9.49128 9.6492 9.56979 9.57083C9.60875 9.53194 9.63966 9.48575 9.66075 9.43489C9.68184 9.38404 9.69269 9.32953 9.69269 9.27448C9.69269 9.21943 9.68184 9.16492 9.66075 9.11407C9.63966 9.06321 9.60875 9.01702 9.56979 8.97813C9.53124 8.93907 9.48535 8.90801 9.43476 8.88674C9.38417 8.86547 9.32988 8.8544 9.275 8.85417ZM15.7271 8.85625C15.6718 8.85579 15.617 8.86634 15.5659 8.88726C15.5147 8.90818 15.4683 8.93907 15.4292 8.97813C15.3902 9.01709 15.3593 9.0634 15.3383 9.11438C15.3173 9.16536 15.3067 9.22 15.307 9.27513C15.3072 9.33026 15.3185 9.38479 15.34 9.43555C15.3615 9.4863 15.3929 9.53229 15.4323 9.57083C15.471 9.60957 15.5169 9.64031 15.5675 9.66128C15.6181 9.68224 15.6723 9.69304 15.7271 9.69304C15.7818 9.69304 15.8361 9.68224 15.8866 9.66128C15.9372 9.64031 15.9832 9.60957 16.0219 9.57083C16.061 9.53201 16.092 9.48584 16.1131 9.43498C16.1343 9.38412 16.1452 9.32957 16.1452 9.27448C16.1452 9.21939 16.1343 9.16484 16.1131 9.11398C16.092 9.06312 16.061 9.01695 16.0219 8.97813C15.9831 8.93945 15.9372 8.90877 15.8866 8.88786C15.836 8.86695 15.7818 8.85621 15.7271 8.85625ZM4.78125 9.27708C4.61159 9.29155 4.45216 9.36427 4.33003 9.48291C4.20789 9.60155 4.13057 9.7588 4.11118 9.92797C4.0918 10.0971 4.13155 10.2678 4.22369 10.411C4.31583 10.5542 4.45468 10.6611 4.61667 10.7135C4.70866 10.7436 4.80568 10.7553 4.90218 10.7478C4.99868 10.7404 5.09276 10.714 5.17906 10.6702C5.26535 10.6264 5.34217 10.566 5.4051 10.4924C5.46803 10.4189 5.51586 10.3337 5.54583 10.2417C5.57603 10.1495 5.58772 10.0522 5.58022 9.95551C5.57273 9.85879 5.5462 9.76451 5.50216 9.67807C5.45812 9.59164 5.39743 9.51475 5.32359 9.45184C5.24975 9.38892 5.16421 9.34122 5.07187 9.31146C4.97797 9.28042 4.8798 9.26873 4.78125 9.27708ZM20.2187 9.27708C20.1202 9.26873 20.021 9.28042 19.9271 9.31146C19.7412 9.37196 19.5869 9.50385 19.4982 9.6781C19.4095 9.85235 19.3937 10.0547 19.4542 10.2406C19.5147 10.4266 19.6466 10.5808 19.8208 10.6695C19.9951 10.7582 20.1974 10.774 20.3833 10.7135C20.5695 10.6531 20.7241 10.5215 20.8133 10.3473C20.9025 10.1731 20.9191 9.97072 20.8594 9.78438C20.8141 9.6463 20.7293 9.52458 20.6154 9.43438C20.5014 9.34418 20.3635 9.28948 20.2187 9.27708ZM8.46562 10.0115C8.38333 10.0057 8.30116 10.0244 8.22945 10.0651C8.15773 10.1059 8.09965 10.167 8.0625 10.2406C8.0377 10.2895 8.02278 10.3427 8.01857 10.3973C8.01437 10.4519 8.02097 10.5068 8.03799 10.5588C8.05502 10.6109 8.08214 10.6591 8.1178 10.7006C8.15347 10.7422 8.19697 10.7763 8.24583 10.801C8.2945 10.8265 8.34775 10.842 8.40247 10.8467C8.4572 10.8513 8.5123 10.845 8.56457 10.8282C8.61684 10.8113 8.66522 10.7842 8.70689 10.7484C8.74857 10.7126 8.7827 10.6689 8.80729 10.6198C8.83227 10.5708 8.84735 10.5174 8.85165 10.4626C8.85595 10.4078 8.8494 10.3527 8.83237 10.3005C8.81534 10.2482 8.78816 10.1999 8.7524 10.1581C8.71664 10.1164 8.67299 10.0821 8.62396 10.0573C8.57482 10.0315 8.52096 10.0159 8.46562 10.0115ZM16.5344 10.0115C16.4791 10.0155 16.4252 10.0307 16.376 10.0563C16.3268 10.081 16.2829 10.1152 16.247 10.157C16.211 10.1988 16.1838 10.2473 16.1667 10.2997C16.1497 10.3522 16.1432 10.4074 16.1476 10.4624C16.1521 10.5173 16.1674 10.5708 16.1927 10.6198C16.2436 10.7178 16.3311 10.7918 16.4362 10.8257C16.5413 10.8596 16.6556 10.8508 16.7542 10.801C16.8034 10.7764 16.8472 10.7423 16.8832 10.7006C16.9191 10.6589 16.9464 10.6104 16.9634 10.5581C16.9805 10.5058 16.987 10.4506 16.9825 10.3957C16.9781 10.3409 16.9628 10.2874 16.9375 10.2385C16.8999 10.1654 16.8417 10.1048 16.77 10.0644C16.6984 10.0241 16.6164 10.0057 16.5344 10.0115ZM2.91771 10.1042C2.71368 10.1136 2.51912 10.193 2.36678 10.329C2.21443 10.465 2.1136 10.6494 2.08125 10.851C2.04498 11.0834 2.10239 11.3206 2.24085 11.5106C2.37932 11.7006 2.58754 11.8279 2.81979 11.8646C2.93459 11.8831 3.05192 11.8789 3.16506 11.852C3.27819 11.8251 3.3849 11.7761 3.47907 11.7079C3.57324 11.6397 3.65301 11.5535 3.7138 11.4544C3.77459 11.3552 3.81521 11.2451 3.83333 11.1302C3.85191 11.0153 3.84764 10.8978 3.82078 10.7846C3.79391 10.6713 3.74497 10.5644 3.67676 10.4701C3.60855 10.3758 3.52241 10.2958 3.42326 10.2348C3.32411 10.1738 3.21391 10.133 3.09896 10.1146C3.03904 10.1051 2.97832 10.1016 2.91771 10.1042ZM22.0823 10.1042C22.0224 10.1016 21.9623 10.1051 21.9031 10.1146C21.788 10.1327 21.6776 10.1734 21.5782 10.2343C21.4788 10.2952 21.3924 10.3751 21.324 10.4695C21.2556 10.5638 21.2064 10.6708 21.1794 10.7841C21.1525 10.8975 21.1481 11.0151 21.1667 11.1302C21.1848 11.2451 21.2254 11.3552 21.2862 11.4544C21.347 11.5535 21.4268 11.6397 21.5209 11.7079C21.6151 11.7761 21.7218 11.8251 21.8349 11.852C21.9481 11.8789 22.0654 11.8831 22.1802 11.8646C22.2951 11.8465 22.4054 11.8058 22.5046 11.7451C22.6038 11.6843 22.6901 11.6046 22.7585 11.5105C22.8269 11.4163 22.8761 11.3096 22.9032 11.1965C22.9304 11.0833 22.9349 10.966 22.9167 10.851C22.8846 10.6498 22.7843 10.4657 22.6325 10.3297C22.4808 10.1937 22.2869 10.1141 22.0833 10.1042H22.0823ZM7.18125 10.2792C7.08187 10.288 6.9873 10.3259 6.90932 10.3882C6.83133 10.4504 6.77339 10.5342 6.74271 10.6292C6.72194 10.6927 6.71393 10.7597 6.71914 10.8264C6.72436 10.893 6.74269 10.9579 6.77308 11.0175C6.80348 11.077 6.84534 11.1299 6.89626 11.1732C6.94717 11.2165 7.00615 11.2494 7.06979 11.2698C7.13319 11.2906 7.20008 11.2987 7.26661 11.2936C7.33315 11.2886 7.39803 11.2704 7.45754 11.2402C7.51705 11.21 7.57001 11.1684 7.61341 11.1177C7.6568 11.067 7.68977 11.0082 7.71042 10.9448C7.75214 10.8162 7.74113 10.6763 7.6798 10.5558C7.61848 10.4353 7.51186 10.344 7.38333 10.3021C7.3182 10.2809 7.24947 10.2731 7.18125 10.2792ZM17.8177 10.2792C17.7498 10.2733 17.6815 10.2811 17.6167 10.3021C17.4886 10.3447 17.3825 10.4361 17.3213 10.5564C17.2601 10.6766 17.2487 10.8162 17.2896 10.9448C17.332 11.0729 17.4234 11.1791 17.5438 11.24C17.6643 11.3009 17.804 11.3116 17.9323 11.2698C17.9956 11.249 18.0543 11.216 18.1048 11.1725C18.1553 11.1291 18.1968 11.0761 18.2268 11.0166C18.2568 10.957 18.2748 10.8922 18.2796 10.8257C18.2845 10.7592 18.2762 10.6924 18.2552 10.6292C18.2252 10.534 18.1676 10.45 18.0897 10.3876C18.0118 10.3253 17.9171 10.2876 17.8177 10.2792ZM5.84479 10.8333C5.70362 10.8403 5.56914 10.8956 5.46403 10.9901C5.35891 11.0846 5.28958 11.2124 5.26771 11.3521C5.25125 11.4333 5.25139 11.5171 5.26809 11.5983C5.2848 11.6795 5.31774 11.7565 5.36494 11.8247C5.41214 11.8929 5.47262 11.9508 5.54276 11.995C5.61289 12.0392 5.69124 12.0688 5.7731 12.082C5.85495 12.0952 5.93863 12.0918 6.01911 12.0718C6.09959 12.0519 6.17521 12.0159 6.24145 11.966C6.30768 11.9161 6.36315 11.8534 6.40454 11.7815C6.44592 11.7097 6.47237 11.6302 6.48229 11.5479C6.50778 11.3862 6.468 11.2209 6.37171 11.0885C6.27541 10.9561 6.13047 10.8673 5.96875 10.8417C5.92782 10.8347 5.88629 10.8319 5.84479 10.8333ZM19.1552 10.8333C19.1134 10.8319 19.0715 10.8347 19.0302 10.8417C18.9502 10.8543 18.8734 10.8827 18.8043 10.925C18.7352 10.9674 18.6752 11.023 18.6276 11.0886C18.58 11.1542 18.5458 11.2285 18.5269 11.3073C18.5081 11.3861 18.5049 11.4679 18.5177 11.5479C18.5304 11.6277 18.5587 11.7042 18.6009 11.773C18.6432 11.8419 18.6986 11.9017 18.764 11.9491C18.8294 11.9965 18.9035 12.0305 18.9821 12.0493C19.0606 12.068 19.1421 12.0711 19.2219 12.0583C19.3832 12.0322 19.5275 11.9432 19.6232 11.8108C19.7189 11.6784 19.7581 11.5134 19.7323 11.3521C19.7104 11.2124 19.6411 11.0846 19.536 10.9901C19.4309 10.8956 19.2964 10.8403 19.1552 10.8333ZM7.975 11.3688C7.87915 11.3733 7.78775 11.4105 7.71595 11.4742C7.64414 11.5379 7.59625 11.6241 7.58021 11.7188C7.57146 11.7733 7.57359 11.829 7.58648 11.8827C7.59936 11.9364 7.62274 11.9871 7.65527 12.0317C7.6878 12.0763 7.72885 12.1141 7.77603 12.1428C7.82322 12.1715 7.87561 12.1906 7.93021 12.199C8.03917 12.2161 8.15047 12.1893 8.23971 12.1244C8.32894 12.0596 8.38883 11.962 8.40625 11.8531C8.41517 11.7986 8.41324 11.7429 8.40057 11.6891C8.3879 11.6353 8.36474 11.5846 8.33242 11.5397C8.3001 11.4949 8.25925 11.457 8.21221 11.428C8.16518 11.399 8.11289 11.3796 8.05833 11.3708C8.0307 11.3673 8.00278 11.3666 7.975 11.3688ZM17.025 11.3688C16.9965 11.3673 16.9678 11.3687 16.9396 11.3729C16.8301 11.3908 16.7322 11.4514 16.6673 11.5415C16.6025 11.6315 16.576 11.7436 16.5937 11.8531C16.6024 11.9073 16.6216 11.9592 16.6503 12.0059C16.679 12.0526 16.7166 12.0931 16.761 12.1253C16.8055 12.1574 16.8558 12.1804 16.9091 12.1931C16.9625 12.2057 17.0178 12.2077 17.0719 12.199C17.1813 12.1815 17.2794 12.1214 17.3446 12.0318C17.4099 11.9422 17.4369 11.8303 17.4198 11.7208C17.4049 11.6253 17.3572 11.538 17.285 11.4738C17.2128 11.4096 17.1216 11.3724 17.025 11.3688ZM1.05 11.45C0.771523 11.45 0.504451 11.5606 0.307538 11.7575C0.110625 11.9545 0 12.2215 0 12.5C0 12.7785 0.110625 13.0455 0.307538 13.2425C0.504451 13.4394 0.771523 13.55 1.05 13.55C1.18793 13.5501 1.32453 13.5231 1.45198 13.4704C1.57943 13.4176 1.69524 13.3403 1.79277 13.2428C1.8903 13.1452 1.96763 13.0294 2.02035 12.902C2.07307 12.7745 2.10014 12.6379 2.1 12.5C2.1 11.9208 1.63021 11.45 1.05 11.45ZM23.95 11.45C23.812 11.4498 23.6754 11.4768 23.5479 11.5294C23.4203 11.582 23.3044 11.6592 23.2067 11.7566C23.0094 11.9533 22.8983 12.2203 22.8979 12.499C22.8975 12.7776 23.0078 13.0449 23.2045 13.2422C23.4012 13.4396 23.6683 13.5506 23.9469 13.551C24.2255 13.5515 24.4929 13.4412 24.6902 13.2445C24.8875 13.0477 24.9985 12.7807 24.999 12.5021C24.9994 12.2235 24.8891 11.9561 24.6924 11.7588C24.4957 11.5615 24.2286 11.4504 23.95 11.45ZM4.45 11.7625C4.35301 11.7624 4.25695 11.7813 4.16729 11.8183C4.07764 11.8553 3.99614 11.9096 3.92747 11.9781C3.85879 12.0466 3.80427 12.1279 3.76703 12.2175C3.72979 12.307 3.71055 12.403 3.71042 12.5C3.71042 12.5971 3.72955 12.6932 3.76673 12.7829C3.80391 12.8725 3.85841 12.954 3.9271 13.0226C3.99579 13.0912 4.07733 13.1456 4.16705 13.1826C4.25678 13.2197 4.35293 13.2387 4.45 13.2385C4.64569 13.2383 4.83328 13.1603 4.97155 13.0219C5.10983 12.8834 5.1875 12.6957 5.1875 12.5C5.1875 12.3041 5.10969 12.1163 4.97119 11.9778C4.83268 11.8393 4.64483 11.7615 4.44896 11.7615L4.45 11.7625ZM20.55 11.7625C20.3626 11.7747 20.1868 11.8578 20.0584 11.9948C19.9299 12.1319 19.8585 12.3127 19.8585 12.5005C19.8585 12.6884 19.9299 12.8691 20.0584 13.0062C20.1868 13.1433 20.3626 13.2263 20.55 13.2385C20.6469 13.2387 20.7429 13.2197 20.8325 13.1826C20.922 13.1455 21.0034 13.091 21.0718 13.0224C21.1402 12.9538 21.1944 12.8723 21.2313 12.7826C21.2681 12.693 21.2869 12.5969 21.2865 12.5C21.2867 12.4031 21.2679 12.3071 21.231 12.2175C21.1941 12.1279 21.1399 12.0465 21.0715 11.9779C21.0031 11.9093 20.9218 11.8549 20.8323 11.8177C20.7428 11.7806 20.6469 11.7625 20.55 11.7625ZM6.95417 11.9896C6.81898 11.9899 6.68942 12.0438 6.59392 12.1394C6.49842 12.2351 6.44479 12.3648 6.44479 12.5C6.44479 12.7802 6.67292 13.0083 6.95417 13.0063C7.02092 13.0063 7.08702 12.9931 7.1487 12.9676C7.21037 12.942 7.26641 12.9046 7.31361 12.8574C7.36082 12.8102 7.39826 12.7541 7.42381 12.6924C7.44935 12.6308 7.4625 12.5647 7.4625 12.4979C7.4625 12.4312 7.44935 12.3651 7.42381 12.3034C7.39826 12.2417 7.36082 12.1857 7.31361 12.1385C7.26641 12.0913 7.21037 12.0538 7.1487 12.0283C7.08702 12.0027 7.02092 11.9896 6.95417 11.9896ZM18.0458 11.9896C17.9108 11.9901 17.7815 12.0442 17.6863 12.1398C17.591 12.2355 17.5375 12.365 17.5375 12.5C17.5375 12.5667 17.5507 12.6327 17.5762 12.6942C17.6018 12.7558 17.6393 12.8117 17.6865 12.8587C17.7337 12.9057 17.7898 12.943 17.8515 12.9683C17.9131 12.9936 17.9792 13.0065 18.0458 13.0063C18.1125 13.0064 18.1784 12.9934 18.24 12.968C18.3016 12.9427 18.3576 12.9054 18.4048 12.8584C18.452 12.8114 18.4895 12.7555 18.5152 12.6941C18.5408 12.6326 18.554 12.5666 18.5542 12.5C18.5542 12.365 18.5007 12.2355 18.4054 12.1398C18.3101 12.0442 18.1808 11.9901 18.0458 11.9896ZM16.9865 12.7948C16.8904 12.7992 16.7989 12.8366 16.7273 12.9008C16.6557 12.965 16.6085 13.0519 16.5937 13.1469C16.5851 13.2011 16.5871 13.2565 16.5999 13.31C16.6126 13.3634 16.6357 13.4138 16.6679 13.4583C16.7002 13.5028 16.7408 13.5405 16.7876 13.5693C16.8344 13.5981 16.8864 13.6174 16.9406 13.626C16.9949 13.6347 17.0503 13.6326 17.1037 13.6199C17.1571 13.6072 17.2076 13.5841 17.252 13.5518C17.2965 13.5196 17.3343 13.479 17.363 13.4322C17.3918 13.3854 17.4111 13.3334 17.4198 13.2792C17.4288 13.2249 17.427 13.1693 17.4143 13.1158C17.4016 13.0622 17.3784 13.0117 17.3461 12.9672C17.3137 12.9227 17.2727 12.8851 17.2257 12.8565C17.1786 12.828 17.1263 12.8091 17.0719 12.801C17.0437 12.7961 17.0151 12.794 16.9865 12.7948ZM8.01354 12.7969C7.985 12.7955 7.95639 12.7968 7.92812 12.801C7.8737 12.8094 7.82147 12.8285 7.77446 12.8571C7.72745 12.8858 7.68659 12.9235 7.65423 12.9681C7.62188 13.0126 7.59868 13.0632 7.58598 13.1167C7.57327 13.1703 7.57131 13.2259 7.58021 13.2802C7.59811 13.3898 7.6587 13.4878 7.74869 13.5528C7.83869 13.6178 7.95077 13.6445 8.06042 13.6271C8.16984 13.6092 8.26776 13.5488 8.33291 13.459C8.39806 13.3693 8.42516 13.2575 8.40833 13.1479C8.39324 13.0528 8.34566 12.9658 8.27368 12.9018C8.20171 12.8378 8.10978 12.8007 8.01354 12.7969ZM5.90208 12.9354C5.85997 12.9333 5.81774 12.9354 5.77604 12.9417C5.61531 12.9678 5.47151 13.0566 5.3762 13.1886C5.28089 13.3206 5.24187 13.4851 5.26771 13.6458C5.29284 13.8067 5.38078 13.951 5.51222 14.0471C5.64365 14.1432 5.80785 14.1832 5.96875 14.1583C6.04889 14.1458 6.12576 14.1175 6.19497 14.0752C6.26417 14.0329 6.32435 13.9774 6.37206 13.9118C6.41976 13.8462 6.45405 13.7718 6.47297 13.6929C6.49188 13.614 6.49505 13.5322 6.48229 13.4521C6.46006 13.3122 6.39013 13.1844 6.28438 13.0902C6.17863 12.996 6.04356 12.9414 5.90208 12.9354ZM19.0979 12.9354C18.9562 12.9416 18.821 12.9967 18.7152 13.0912C18.6095 13.1858 18.5397 13.314 18.5177 13.4542C18.4923 13.6152 18.5319 13.7798 18.6278 13.9117C18.7237 14.0435 18.8681 14.1319 19.0292 14.1573C19.1902 14.1827 19.3548 14.1431 19.4867 14.0472C19.6185 13.9513 19.7069 13.8069 19.7323 13.6458C19.7452 13.5661 19.7422 13.4845 19.7235 13.4059C19.7049 13.3273 19.6708 13.2531 19.6234 13.1877C19.576 13.1223 19.5161 13.0668 19.4472 13.0246C19.3783 12.9824 19.3017 12.9542 19.2219 12.9417C19.1809 12.9354 19.1393 12.9333 19.0979 12.9354ZM2.99896 13.125C2.93904 13.1224 2.87901 13.1259 2.81979 13.1354C2.64624 13.1626 2.48465 13.2406 2.35548 13.3597C2.22632 13.4788 2.13539 13.6335 2.09422 13.8042C2.05305 13.975 2.06349 14.1542 2.12421 14.319C2.18492 14.4838 2.2932 14.627 2.43531 14.7302C2.57742 14.8335 2.74698 14.8922 2.92252 14.8991C3.09805 14.9059 3.27166 14.8605 3.42137 14.7686C3.57107 14.6767 3.69013 14.5424 3.76346 14.3828C3.8368 14.2231 3.86112 14.0453 3.83333 13.8719C3.80162 13.6703 3.70125 13.4859 3.54921 13.3498C3.39718 13.2137 3.2028 13.1343 2.99896 13.125ZM22.001 13.125C21.774 13.1353 21.5596 13.2323 21.4021 13.3961C21.2446 13.5599 21.156 13.7779 21.1546 14.0051C21.1532 14.2324 21.2392 14.4515 21.3947 14.6172C21.5502 14.7829 21.7633 14.8825 21.9902 14.8956C22.2171 14.9086 22.4403 14.834 22.6137 14.6872C22.7872 14.5404 22.8976 14.3326 22.9223 14.1067C22.947 13.8808 22.8839 13.6541 22.7462 13.4733C22.6085 13.2926 22.4066 13.1716 22.1823 13.1354C22.1224 13.1259 22.0617 13.1224 22.001 13.125ZM7.27187 13.7063C7.20366 13.7003 7.13495 13.7081 7.06979 13.7292C6.94127 13.7711 6.83464 13.8624 6.77332 13.9829C6.712 14.1034 6.70099 14.2433 6.74271 14.3719C6.79053 14.4926 6.88259 14.5906 7.00014 14.6459C7.1177 14.7012 7.25189 14.7095 7.3754 14.6693C7.4989 14.629 7.60242 14.5432 7.66486 14.4293C7.7273 14.3154 7.74396 14.182 7.71146 14.0563C7.68064 13.961 7.62238 13.877 7.54399 13.8147C7.46561 13.7525 7.37162 13.7147 7.27187 13.7063ZM17.7302 13.7063C17.6305 13.715 17.5356 13.7528 17.4573 13.815C17.379 13.8773 17.3206 13.9611 17.2896 14.0563C17.2485 14.1846 17.2598 14.324 17.3211 14.444C17.3824 14.564 17.4886 14.6549 17.6167 14.6969C17.6799 14.7177 17.7467 14.7257 17.8131 14.7206C17.8794 14.7155 17.9442 14.6974 18.0035 14.6672C18.0629 14.6369 18.1156 14.5953 18.1588 14.5446C18.202 14.494 18.2348 14.4353 18.2552 14.3719C18.2762 14.3085 18.2846 14.2415 18.2797 14.1749C18.2749 14.1083 18.2569 14.0433 18.227 13.9836C18.197 13.9239 18.1555 13.8707 18.1049 13.8271C18.0544 13.7834 17.9957 13.7501 17.9323 13.7292C17.8671 13.7081 17.7984 13.7003 17.7302 13.7063ZM8.40729 14.1521C8.35169 14.1561 8.29747 14.1713 8.24792 14.1969C8.19859 14.2214 8.15465 14.2555 8.11865 14.2972C8.08265 14.3389 8.05532 14.3873 8.03825 14.4397C8.02118 14.492 8.01472 14.5473 8.01924 14.6022C8.02376 14.6571 8.03918 14.7105 8.06458 14.7594C8.08912 14.8083 8.12308 14.8519 8.1645 14.8876C8.20592 14.9234 8.254 14.9506 8.30598 14.9677C8.35795 14.9849 8.41279 14.9916 8.46736 14.9875C8.52193 14.9833 8.57515 14.9685 8.62396 14.9438C8.67309 14.919 8.71683 14.8848 8.75267 14.8431C8.78852 14.8014 8.81574 14.753 8.83279 14.7007C8.84983 14.6484 8.85635 14.5932 8.85198 14.5384C8.8476 14.4836 8.83241 14.4302 8.80729 14.3813C8.77018 14.308 8.7124 14.2473 8.64112 14.2066C8.56984 14.1658 8.48818 14.1469 8.40625 14.1521H8.40729ZM16.5948 14.1521C16.5125 14.1464 16.4304 14.165 16.3585 14.2056C16.2867 14.2461 16.2283 14.3068 16.1906 14.3802C16.141 14.4792 16.1324 14.5938 16.1668 14.6991C16.2011 14.8044 16.2755 14.8919 16.374 14.9427C16.4732 14.9934 16.5884 15.0026 16.6944 14.9685C16.8005 14.9343 16.8886 14.8595 16.9396 14.7604C17.0437 14.5563 16.9604 14.3021 16.7542 14.1969C16.705 14.1713 16.6511 14.1561 16.5958 14.1521H16.5948ZM4.90729 14.25C4.80875 14.2417 4.70954 14.2534 4.61563 14.2844C4.42959 14.3454 4.27533 14.4777 4.18668 14.6523C4.09803 14.8268 4.08222 15.0294 4.14271 15.2156C4.17258 15.3077 4.22032 15.3931 4.28321 15.4667C4.3461 15.5404 4.4229 15.6009 4.5092 15.6448C4.59551 15.6887 4.68963 15.7152 4.78618 15.7227C4.88273 15.7302 4.97982 15.7186 5.07187 15.6885C5.16421 15.6588 5.24975 15.6111 5.32359 15.5482C5.39743 15.4852 5.45812 15.4084 5.50216 15.3219C5.5462 15.2355 5.57273 15.1412 5.58022 15.0445C5.58772 14.9478 5.57603 14.8505 5.54583 14.7583C5.5009 14.6204 5.41642 14.4986 5.3029 14.4083C5.18938 14.3179 5.05182 14.2629 4.90729 14.25ZM20.0927 14.25C19.948 14.2632 19.8103 14.3185 19.6968 14.4093C19.5832 14.5 19.4989 14.6221 19.4542 14.7604C19.3292 15.1479 19.5396 15.5625 19.9281 15.6875C20.0201 15.7176 20.1171 15.7292 20.2136 15.7218C20.3101 15.7144 20.4042 15.688 20.4905 15.6442C20.5768 15.6003 20.6536 15.5399 20.7166 15.4664C20.7795 15.3929 20.8273 15.3077 20.8573 15.2156C20.9177 15.0293 20.9018 14.8266 20.8129 14.652C20.7241 14.4774 20.5696 14.3452 20.3833 14.2844C20.2898 14.2535 20.1909 14.2418 20.0927 14.25ZM6.47812 14.9313C6.39643 14.9367 6.31669 14.9586 6.24375 14.9958C6.17155 15.0324 6.10726 15.0828 6.05456 15.1442C6.00186 15.2056 5.96179 15.2768 5.93664 15.3537C5.91148 15.4307 5.90174 15.5118 5.90796 15.5925C5.91419 15.6731 5.93626 15.7518 5.97292 15.824C6.00954 15.8961 6.06004 15.9603 6.12152 16.0128C6.183 16.0654 6.25425 16.1053 6.33118 16.1303C6.40812 16.1552 6.48923 16.1648 6.56986 16.1583C6.65048 16.1519 6.72905 16.1296 6.80104 16.0927C6.87328 16.0565 6.93762 16.0063 6.99031 15.9451C7.04301 15.8838 7.08302 15.8127 7.10802 15.7358C7.13302 15.659 7.14251 15.578 7.13595 15.4974C7.12939 15.4169 7.1069 15.3384 7.06979 15.2667C7.01503 15.1588 6.92971 15.0695 6.82448 15.0098C6.71926 14.9502 6.59879 14.9229 6.47812 14.9313ZM18.5219 14.9313C18.4015 14.9228 18.2812 14.9499 18.176 15.0091C18.0708 15.0684 17.9854 15.1572 17.9302 15.2646C17.8933 15.3366 17.871 15.4151 17.8646 15.4958C17.8582 15.5764 17.8677 15.6575 17.8927 15.7344C17.9176 15.8114 17.9575 15.8826 18.0101 15.9441C18.0627 16.0056 18.1268 16.0561 18.199 16.0927C18.2715 16.1362 18.3523 16.1643 18.4362 16.1752C18.5201 16.1862 18.6053 16.1798 18.6866 16.1563C18.7679 16.1329 18.8435 16.093 18.9088 16.0391C18.974 15.9852 19.0274 15.9185 19.0657 15.8431C19.1041 15.7677 19.1264 15.6851 19.1315 15.6007C19.1366 15.5162 19.1242 15.4316 19.0952 15.3522C19.0662 15.2727 19.0211 15.2001 18.9628 15.1388C18.9045 15.0775 18.8342 15.0288 18.7562 14.9958C18.6833 14.9586 18.6036 14.9366 18.5219 14.9313ZM1.70104 14.9906C1.56137 14.9784 1.42067 14.9947 1.2875 15.0385C1.08963 15.1026 0.915214 15.2239 0.786326 15.3871C0.657437 15.5504 0.579872 15.7482 0.563449 15.9555C0.547025 16.1628 0.592481 16.3704 0.694063 16.5518C0.795645 16.7333 0.948786 16.8806 1.1341 16.975C1.31942 17.0694 1.52858 17.1067 1.73511 17.0822C1.94164 17.0577 2.13625 16.9724 2.29431 16.8373C2.45237 16.7021 2.56678 16.5231 2.62305 16.3229C2.67932 16.1226 2.67492 15.9102 2.61042 15.7125C2.54651 15.5162 2.42618 15.343 2.26445 15.2146C2.10273 15.0862 1.90677 15.0083 1.70104 14.9906ZM23.299 14.9906C23.0933 15.0085 22.8974 15.0864 22.7357 15.2148C22.574 15.3431 22.4536 15.5162 22.3896 15.7125C22.3252 15.91 22.3208 16.1221 22.3769 16.3221C22.4331 16.5221 22.5473 16.7009 22.7052 16.8359C22.863 16.971 23.0573 17.0562 23.2636 17.0807C23.4698 17.1053 23.6787 17.0682 23.8639 16.974C24.049 16.8798 24.202 16.7329 24.3036 16.5517C24.4052 16.3705 24.4508 16.1633 24.4346 15.9562C24.4184 15.7491 24.3412 15.5515 24.2126 15.3883C24.0841 15.2252 23.91 15.1038 23.7125 15.0396C23.5794 14.9954 23.4387 14.9787 23.299 14.9906ZM7.99583 15.251C7.89449 15.2544 7.79649 15.2881 7.71458 15.3479C7.60553 15.4272 7.53227 15.5464 7.5108 15.6795C7.48934 15.8126 7.5214 15.9488 7.6 16.0583C7.63928 16.1128 7.68891 16.1589 7.74605 16.1942C7.80319 16.2294 7.86672 16.253 7.933 16.2636C7.99928 16.2743 8.06701 16.2718 8.13231 16.2562C8.19761 16.2406 8.25919 16.2123 8.31354 16.1729C8.4228 16.0933 8.49607 15.9736 8.51735 15.8401C8.53863 15.7066 8.50617 15.5701 8.42708 15.4604C8.37759 15.3931 8.31246 15.3389 8.23733 15.3024C8.16219 15.266 8.07931 15.2483 7.99583 15.251ZM17.0042 15.251C16.9211 15.2483 16.8386 15.2658 16.7638 15.3021C16.689 15.3384 16.6242 15.3924 16.575 15.4594C16.4954 15.5687 16.4625 15.7051 16.4834 15.8387C16.5043 15.9723 16.5773 16.0921 16.6865 16.1719C16.9146 16.3375 17.2344 16.2865 17.3969 16.0583C17.4364 16.0044 17.4648 15.9432 17.4806 15.8783C17.4963 15.8134 17.4991 15.746 17.4888 15.68C17.4784 15.614 17.4551 15.5506 17.4202 15.4937C17.3853 15.4367 17.3395 15.3871 17.2854 15.3479C17.2035 15.2881 17.1055 15.2543 17.0042 15.251ZM9.275 15.3073C9.16408 15.3063 9.05731 15.3494 8.97813 15.4271C8.93916 15.466 8.90826 15.5122 8.88717 15.563C8.86608 15.6139 8.85522 15.6684 8.85522 15.7234C8.85522 15.7785 8.86608 15.833 8.88717 15.8839C8.90826 15.9347 8.93916 15.9809 8.97813 16.0198C9.05654 16.0985 9.16295 16.1429 9.27405 16.1433C9.38515 16.1437 9.49187 16.1 9.57083 16.0219C9.60983 15.9829 9.64076 15.9366 9.66186 15.8857C9.68296 15.8347 9.69382 15.7801 9.69382 15.725C9.69382 15.6699 9.68296 15.6153 9.66186 15.5643C9.64076 15.5134 9.60983 15.4671 9.57083 15.4281C9.532 15.3894 9.48585 15.3587 9.43506 15.338C9.38427 15.3172 9.32986 15.3068 9.275 15.3073ZM15.725 15.3073C15.6702 15.3071 15.616 15.3178 15.5654 15.3387C15.5148 15.3597 15.4689 15.3904 15.4302 15.4292C15.3913 15.468 15.3604 15.5142 15.3393 15.5649C15.3182 15.6157 15.3074 15.6702 15.3073 15.7252C15.3072 15.8362 15.3512 15.9428 15.4297 16.0214C15.5081 16.1 15.6146 16.1442 15.7257 16.1443C15.8367 16.1444 15.9433 16.1003 16.0219 16.0219C16.0608 15.983 16.0917 15.9368 16.1128 15.8859C16.1339 15.8351 16.1448 15.7806 16.1448 15.7255C16.1448 15.6705 16.1339 15.616 16.1128 15.5651C16.0917 15.5143 16.0608 15.4681 16.0219 15.4292C15.943 15.3508 15.8362 15.307 15.725 15.3073ZM3.82917 16.001C3.71151 16.0093 3.59672 16.0412 3.49167 16.0948C3.29562 16.1943 3.14357 16.3632 3.06503 16.5685C2.98648 16.7739 2.98706 17.0011 3.06665 17.2061C3.14624 17.411 3.29915 17.5791 3.4957 17.6776C3.69225 17.7762 3.9184 17.7982 4.13025 17.7393C4.3421 17.6805 4.52451 17.545 4.64208 17.3592C4.75965 17.1734 4.80397 16.9506 4.76645 16.7339C4.72892 16.5173 4.61223 16.3223 4.43902 16.1869C4.26582 16.0514 4.04846 15.9852 3.82917 16.001ZM21.1708 16.001C20.9969 15.989 20.8232 16.0283 20.6714 16.114C20.5195 16.1997 20.3962 16.3282 20.3167 16.4833C20.2372 16.6396 20.2059 16.816 20.2266 16.9901C20.2474 17.1642 20.3193 17.3282 20.4333 17.4615C20.5473 17.5947 20.6983 17.6911 20.8671 17.7385C21.0359 17.786 21.2149 17.7823 21.3816 17.7279C21.5483 17.6736 21.6952 17.571 21.8036 17.4332C21.912 17.2954 21.9771 17.1285 21.9906 16.9537C22.0042 16.7789 21.9656 16.604 21.8798 16.4511C21.7939 16.2982 21.6647 16.1742 21.5083 16.0948C21.4033 16.0411 21.2885 16.0092 21.1708 16.001ZM14.5406 16.1458C14.4847 16.1499 14.4302 16.1652 14.3802 16.1906C14.2821 16.242 14.2081 16.3298 14.1741 16.4353C14.1402 16.5407 14.1491 16.6552 14.199 16.7542C14.2236 16.8033 14.2577 16.847 14.2993 16.8828C14.3409 16.9186 14.3892 16.9459 14.4415 16.9629C14.4937 16.98 14.5487 16.9865 14.6035 16.9821C14.6582 16.9778 14.7116 16.9626 14.7604 16.9375C14.8591 16.8867 14.9338 16.799 14.9681 16.6935C15.0024 16.5879 14.9937 16.4731 14.9437 16.374C14.9067 16.3003 14.8486 16.2393 14.7768 16.1987C14.705 16.1581 14.6229 16.1397 14.5406 16.1458ZM10.4594 16.1479C10.3774 16.1417 10.2954 16.1599 10.2237 16.2001C10.152 16.2403 10.0937 16.3008 10.0562 16.374C10.0313 16.4229 10.0162 16.4763 10.0119 16.5311C10.0076 16.5859 10.0141 16.641 10.0312 16.6933C10.0482 16.7455 10.0754 16.7939 10.1111 16.8356C10.1469 16.8774 10.1906 16.9116 10.2396 16.9365C10.3386 16.9869 10.4536 16.9959 10.5593 16.9615C10.665 16.9271 10.7527 16.8522 10.8031 16.7531C10.8535 16.6541 10.8626 16.5391 10.8282 16.4334C10.7938 16.3277 10.7188 16.24 10.6198 16.1896C10.5696 16.1651 10.5151 16.151 10.4594 16.1479ZM9.25937 16.4771C9.17606 16.4742 9.09331 16.4919 9.01846 16.5286C8.9436 16.5653 8.87895 16.6199 8.83021 16.6875C8.7512 16.7965 8.71871 16.9324 8.73991 17.0653C8.76111 17.1983 8.83424 17.3173 8.94323 17.3964C9.05222 17.4754 9.18813 17.5078 9.32106 17.4867C9.454 17.4655 9.57307 17.3923 9.65208 17.2833C9.7309 17.174 9.7633 17.038 9.74223 16.9049C9.72115 16.7719 9.64831 16.6525 9.53958 16.5729C9.45762 16.5134 9.35959 16.48 9.25833 16.4771H9.25937ZM15.7427 16.4771C15.6414 16.48 15.5434 16.5134 15.4615 16.5729C15.3797 16.6318 15.3172 16.7137 15.282 16.8081C15.2468 16.9026 15.2404 17.0053 15.2636 17.1034C15.2868 17.2015 15.3385 17.2905 15.4123 17.3591C15.4861 17.4278 15.5786 17.473 15.6781 17.489C15.7776 17.5051 15.8797 17.4913 15.9713 17.4493C16.063 17.4073 16.1401 17.3391 16.193 17.2533C16.2458 17.1675 16.272 17.0679 16.2683 16.9672C16.2645 16.8665 16.231 16.7691 16.1719 16.6875C16.1232 16.6198 16.0586 16.5652 15.9837 16.5285C15.9088 16.4917 15.826 16.4741 15.7427 16.4771ZM5.96146 16.4937C5.81485 16.4979 5.67291 16.5462 5.55417 16.6323C5.39603 16.7481 5.29017 16.9218 5.25972 17.1154C5.22928 17.3091 5.27671 17.5069 5.39167 17.6656C5.44828 17.7442 5.51991 17.8109 5.60242 17.8616C5.68493 17.9124 5.77668 17.9463 5.87237 17.9614C5.96807 17.9765 6.0658 17.9725 6.15994 17.9497C6.25408 17.9268 6.34275 17.8855 6.42083 17.8281C6.49927 17.7714 6.56576 17.6998 6.61649 17.6173C6.66722 17.5349 6.7012 17.4432 6.71648 17.3477C6.73177 17.2521 6.72806 17.1544 6.70557 17.0603C6.68308 16.9661 6.64225 16.8773 6.58542 16.799C6.51419 16.7008 6.41995 16.6216 6.31097 16.5684C6.202 16.5152 6.08266 16.4896 5.96146 16.4937ZM19.0385 16.4937C18.9174 16.4897 18.7971 16.5155 18.6881 16.5687C18.5792 16.6219 18.4849 16.7009 18.4135 16.799C18.3565 16.8773 18.3155 16.9661 18.2929 17.0604C18.2704 17.1546 18.2667 17.2524 18.2821 17.348C18.2975 17.4437 18.3317 17.5354 18.3826 17.6178C18.4336 17.7002 18.5004 17.7717 18.5792 17.8281C18.6574 17.8855 18.7463 17.9269 18.8406 17.9498C18.9349 17.9727 19.0328 17.9767 19.1286 17.9616C19.2245 17.9465 19.3164 17.9126 19.3991 17.8618C19.4818 17.811 19.5536 17.7443 19.6104 17.6656C19.7254 17.5067 19.7727 17.3086 19.7418 17.1149C19.711 16.9212 19.6045 16.7476 19.4458 16.6323C19.3274 16.5463 19.1848 16.4981 19.0385 16.4937ZM11.7677 16.5854C11.6706 16.59 11.5781 16.628 11.5058 16.6929C11.4335 16.7578 11.3858 16.8457 11.3708 16.9417C11.3549 17.0516 11.383 17.1634 11.4489 17.2529C11.5147 17.3424 11.6132 17.4023 11.7229 17.4198C11.8327 17.4371 11.9449 17.41 12.0348 17.3445C12.1246 17.2791 12.1848 17.1806 12.2021 17.0708C12.2193 16.961 12.1923 16.8488 12.1268 16.759C12.0614 16.6691 11.9629 16.6089 11.8531 16.5917C11.8249 16.5867 11.7963 16.5846 11.7677 16.5854ZM13.2323 16.5875C13.2038 16.586 13.1751 16.5874 13.1469 16.5917C13.0927 16.6004 13.0408 16.6197 12.9941 16.6485C12.9474 16.6774 12.9068 16.7151 12.8747 16.7596C12.8426 16.8041 12.8195 16.8545 12.8069 16.9079C12.7943 16.9613 12.7923 17.0167 12.801 17.0708C12.8094 17.1253 12.8285 17.1776 12.8571 17.2246C12.8858 17.2717 12.9235 17.3126 12.968 17.345C13.0125 17.3775 13.0631 17.4008 13.1166 17.4136C13.1702 17.4264 13.2258 17.4285 13.2802 17.4198C13.3344 17.4112 13.3864 17.3919 13.4331 17.3632C13.4798 17.3344 13.5204 17.2966 13.5525 17.2521C13.5845 17.2075 13.6074 17.157 13.6199 17.1036C13.6323 17.0501 13.6341 16.9948 13.625 16.9406C13.6106 16.8453 13.5636 16.7578 13.492 16.6933C13.4204 16.6287 13.3286 16.592 13.2323 16.5875ZM7.75521 16.6281C7.67427 16.6282 7.59414 16.6442 7.51942 16.6753C7.4447 16.7064 7.37686 16.752 7.31979 16.8094C7.20459 16.9249 7.13998 17.0814 7.14017 17.2445C7.14037 17.4076 7.20535 17.564 7.32083 17.6792C7.43631 17.7944 7.59283 17.859 7.75594 17.8588C7.91906 17.8586 8.07542 17.7936 8.19062 17.6781C8.24789 17.6213 8.29339 17.5537 8.32449 17.4792C8.3556 17.4047 8.37171 17.3249 8.37191 17.2442C8.3721 17.1635 8.35637 17.0835 8.32562 17.0089C8.29487 16.9343 8.2497 16.8665 8.19271 16.8094C8.07655 16.6935 7.91926 16.6284 7.75521 16.6281ZM17.2448 16.6281C17.1639 16.6282 17.0837 16.6442 17.009 16.6753C16.9343 16.7064 16.8664 16.752 16.8094 16.8094C16.752 16.8662 16.7064 16.9339 16.6754 17.0084C16.6443 17.083 16.6283 17.163 16.6283 17.2438C16.6283 17.3245 16.6443 17.4045 16.6754 17.4791C16.7064 17.5536 16.752 17.6213 16.8094 17.6781C16.8663 17.7354 16.934 17.7808 17.0085 17.8118C17.0831 17.8428 17.163 17.8588 17.2438 17.8588C17.3245 17.8588 17.4044 17.8428 17.479 17.8118C17.5535 17.7808 17.6212 17.7354 17.6781 17.6781C17.7933 17.5629 17.8579 17.4066 17.8579 17.2438C17.8579 17.0809 17.7933 16.9246 17.6781 16.8094C17.6215 16.752 17.554 16.7064 17.4796 16.6753C17.4052 16.6442 17.3254 16.6282 17.2448 16.6281ZM10.7427 17.2667C10.6431 17.2753 10.5483 17.3132 10.4702 17.3754C10.392 17.4377 10.3339 17.5216 10.3031 17.6167C10.2822 17.6802 10.2741 17.7472 10.2792 17.8139C10.2844 17.8806 10.3027 17.9456 10.3331 18.0052C10.3635 18.0647 10.4054 18.1177 10.4564 18.161C10.5074 18.2042 10.5665 18.237 10.6302 18.2573C10.7583 18.2988 10.8975 18.2878 11.0176 18.2269C11.1376 18.166 11.2287 18.0601 11.2708 17.9323C11.3126 17.8037 11.3015 17.6638 11.2402 17.5433C11.1789 17.4228 11.0723 17.3315 10.9437 17.2896C10.8789 17.2686 10.8106 17.2608 10.7427 17.2667ZM14.2583 17.2667C14.1901 17.2607 14.1214 17.2685 14.0562 17.2896C13.9926 17.3103 13.9337 17.3434 13.8829 17.3868C13.8321 17.4303 13.7903 17.4834 13.76 17.543C13.7296 17.6027 13.7114 17.6677 13.7062 17.7344C13.701 17.8011 13.709 17.8682 13.7297 17.9318C13.7504 17.9954 13.7835 18.0543 13.8269 18.1051C13.8704 18.156 13.9235 18.1977 13.9831 18.2281C14.0428 18.2584 14.1078 18.2767 14.1745 18.2819C14.2412 18.287 14.3083 18.2791 14.3719 18.2583C14.4354 18.2376 14.4941 18.2045 14.5448 18.161C14.5956 18.1175 14.6372 18.0645 14.6674 18.0049C14.6976 17.9453 14.7157 17.8803 14.7208 17.8137C14.7258 17.7471 14.7177 17.6801 14.6969 17.6167C14.6662 17.5217 14.6082 17.4379 14.5303 17.3757C14.4523 17.3134 14.3577 17.2755 14.2583 17.2667ZM12.5 17.5375C12.3652 17.5375 12.2359 17.5911 12.1406 17.6864C12.0452 17.7817 11.9917 17.911 11.9917 18.0458C11.9917 18.1464 12.0215 18.2447 12.0773 18.3282C12.1332 18.4118 12.2126 18.477 12.3055 18.5155C12.3984 18.5539 12.5006 18.564 12.5992 18.5444C12.6978 18.5248 12.7884 18.4764 12.8594 18.4053C12.9305 18.3342 12.979 18.2436 12.9986 18.145C13.0182 18.0464 13.0081 17.9442 12.9696 17.8513C12.9312 17.7584 12.866 17.679 12.7824 17.6232C12.6988 17.5673 12.6005 17.5375 12.5 17.5375ZM9.49687 17.8625C9.37641 17.8538 9.25605 17.8807 9.15082 17.94C9.04559 17.9993 8.96016 18.0883 8.90521 18.1958C8.83127 18.3415 8.81803 18.5105 8.86839 18.6659C8.91876 18.8213 9.02863 18.9504 9.17396 19.025C9.24611 19.0619 9.32482 19.0842 9.40561 19.0907C9.4864 19.0972 9.56766 19.0877 9.64477 19.0627C9.72187 19.0378 9.7933 18.9978 9.85497 18.9453C9.91664 18.8927 9.96734 18.8284 10.0042 18.7562C10.0775 18.6106 10.0904 18.442 10.0401 18.2869C9.98976 18.1319 9.88027 18.0029 9.73542 17.9281C9.66107 17.8906 9.57997 17.8683 9.49687 17.8625ZM15.5031 17.8625C15.4207 17.8683 15.3403 17.8906 15.2667 17.9281C15.1212 18.0023 15.0111 18.1311 14.9604 18.2863C14.9096 18.4415 14.9224 18.6104 14.9958 18.7562C15.1521 19.0583 15.524 19.1792 15.826 19.025C15.898 18.9882 15.962 18.9376 16.0143 18.876C16.0667 18.8144 16.1064 18.7432 16.1311 18.6662C16.1559 18.5893 16.1652 18.5083 16.1587 18.4277C16.1521 18.3472 16.1297 18.2687 16.0927 18.1969C16.0383 18.0893 15.9533 18.0003 15.8484 17.9409C15.7435 17.8816 15.6233 17.8536 15.5031 17.8625ZM3.20104 18.1781C2.99188 18.1856 2.78976 18.2556 2.62083 18.3792C2.45211 18.5012 2.32341 18.6707 2.25104 18.8659C2.17868 19.0612 2.16589 19.2736 2.21431 19.4761C2.26273 19.6787 2.37017 19.8623 2.52303 20.0037C2.67589 20.1452 2.86729 20.2381 3.07299 20.2707C3.27868 20.3032 3.48942 20.274 3.6785 20.1868C3.86759 20.0995 4.02651 19.958 4.13515 19.7804C4.24379 19.6027 4.29726 19.3968 4.28877 19.1887C4.28029 18.9806 4.21024 18.7797 4.0875 18.6115C3.98633 18.4721 3.8525 18.3597 3.69776 18.2842C3.54302 18.2086 3.37314 18.1722 3.20104 18.1781ZM21.8 18.1802C21.5483 18.171 21.3016 18.2524 21.1048 18.4098C20.9081 18.5672 20.7745 18.79 20.7282 19.0376C20.682 19.2852 20.7262 19.5413 20.8529 19.759C20.9796 19.9768 21.1802 20.1418 21.4183 20.224C21.6565 20.3062 21.9162 20.3002 22.1502 20.207C22.3843 20.1138 22.5771 19.9397 22.6935 19.7163C22.8099 19.4929 22.8422 19.2351 22.7845 18.9898C22.7268 18.7446 22.583 18.5283 22.3792 18.3802C22.2105 18.257 22.0087 18.1873 21.8 18.1802ZM7.79375 18.274C7.67303 18.27 7.55318 18.2958 7.44475 18.349C7.33631 18.4022 7.24261 18.4813 7.17187 18.5792C7.08579 18.6976 7.03678 18.8388 7.03103 18.9851C7.02529 19.1313 7.06308 19.276 7.13961 19.4008C7.21614 19.5256 7.32797 19.6248 7.46095 19.686C7.59392 19.7472 7.74206 19.7675 7.88661 19.7444C8.03115 19.7214 8.1656 19.6559 8.27293 19.5564C8.38026 19.4569 8.45564 19.3277 8.48953 19.1853C8.52342 19.043 8.5143 18.8937 8.46332 18.7565C8.41233 18.6193 8.32178 18.5003 8.20312 18.4146C8.08392 18.3276 7.94125 18.2786 7.79375 18.274ZM17.2062 18.274C17.0587 18.2786 16.9161 18.3276 16.7969 18.4146C16.6389 18.53 16.5331 18.7034 16.5026 18.8966C16.4722 19.0899 16.5195 19.2874 16.6344 19.4458C16.7495 19.6042 16.9227 19.7104 17.116 19.7412C17.3093 19.7721 17.5069 19.725 17.6656 19.6104C17.7441 19.5534 17.8105 19.4815 17.8612 19.3988C17.9118 19.3161 17.9456 19.2243 17.9607 19.1285C17.9758 19.0327 17.9719 18.9349 17.9491 18.8406C17.9264 18.7464 17.8853 18.6575 17.8281 18.5792C17.7575 18.4812 17.6638 18.4021 17.5553 18.3489C17.4469 18.2957 17.327 18.2699 17.2062 18.274ZM5.66979 18.4427C5.55342 18.4427 5.4382 18.4657 5.33076 18.5104C5.22331 18.5551 5.12577 18.6206 5.04375 18.7031C4.87758 18.8693 4.78422 19.0947 4.78422 19.3297C4.78422 19.5647 4.87758 19.7901 5.04375 19.9563C5.20992 20.1224 5.43531 20.2158 5.67031 20.2158C5.90532 20.2158 6.1307 20.1224 6.29687 19.9563C6.42045 19.8321 6.50451 19.6741 6.53847 19.5023C6.57243 19.3304 6.55477 19.1523 6.48772 18.9905C6.42067 18.8287 6.30722 18.6903 6.16167 18.5928C6.01612 18.4953 5.84497 18.4431 5.66979 18.4427ZM19.3323 18.4448C19.0967 18.4443 18.8704 18.5372 18.7031 18.7031C18.6208 18.7854 18.5554 18.883 18.5108 18.9905C18.4663 19.0981 18.4433 19.2133 18.4433 19.3297C18.4433 19.4461 18.4663 19.5613 18.5108 19.6688C18.5554 19.7763 18.6208 19.874 18.7031 19.9563C18.8698 20.1222 19.0955 20.2154 19.3307 20.2154C19.566 20.2154 19.7916 20.1222 19.9583 19.9563C20.0407 19.874 20.106 19.7763 20.1506 19.6688C20.1952 19.5613 20.2181 19.4461 20.2181 19.3297C20.2181 19.2133 20.1952 19.0981 20.1506 18.9905C20.106 18.883 20.0407 18.7854 19.9583 18.7031C19.8762 18.6208 19.7786 18.5556 19.6712 18.5113C19.5637 18.4669 19.4485 18.4443 19.3323 18.4448ZM11.424 18.5094C11.2699 18.5136 11.1231 18.5756 11.0126 18.683C10.9021 18.7904 10.836 18.9354 10.8274 19.0892C10.8187 19.2431 10.8682 19.3945 10.9659 19.5137C11.0637 19.6328 11.2026 19.7108 11.3552 19.7323C11.435 19.7449 11.5166 19.7416 11.5951 19.7227C11.6737 19.7037 11.7478 19.6695 11.8131 19.6219C11.8784 19.5743 11.9337 19.5143 11.9757 19.4453C12.0178 19.3763 12.0459 19.2996 12.0583 19.2198C12.0712 19.1401 12.0682 19.0587 12.0495 18.9802C12.0308 18.9017 11.9968 18.8277 11.9493 18.7625C11.9019 18.6972 11.842 18.642 11.7731 18.6C11.7042 18.558 11.6277 18.53 11.5479 18.5177C11.5066 18.5107 11.4648 18.5079 11.4229 18.5094H11.424ZM13.576 18.5094C13.5345 18.508 13.493 18.5108 13.4521 18.5177C13.3726 18.5304 13.2964 18.5586 13.2278 18.6007C13.1592 18.6429 13.0996 18.6982 13.0524 18.7634C13.0052 18.8286 12.9713 18.9025 12.9526 18.9808C12.934 19.0591 12.931 19.1403 12.9437 19.2198C12.9958 19.5552 13.3083 19.7865 13.6458 19.7323C13.8067 19.7067 13.9509 19.6182 14.0466 19.4864C14.1423 19.3545 14.1817 19.1901 14.1562 19.0292C14.1343 18.889 14.0645 18.7608 13.9587 18.6662C13.853 18.5717 13.7178 18.5166 13.576 18.5104V18.5094ZM9.94896 19.4187C9.80426 19.4316 9.66654 19.4867 9.55299 19.5773C9.43943 19.6679 9.35506 19.7899 9.31042 19.9281C9.28052 20.0203 9.26906 20.1174 9.2767 20.2139C9.28434 20.3105 9.31092 20.4046 9.35494 20.4909C9.39895 20.5772 9.45953 20.6539 9.53321 20.7168C9.60689 20.7797 9.69224 20.8274 9.78437 20.8573C9.97072 20.9177 10.1734 20.9018 10.348 20.8129C10.5226 20.7241 10.6548 20.5696 10.7156 20.3833C10.7753 20.197 10.7588 19.9946 10.6695 19.8204C10.5803 19.6463 10.4257 19.5146 10.2396 19.4542C10.1457 19.4232 10.0465 19.4116 9.94792 19.4198L9.94896 19.4187ZM15.051 19.4187C14.9526 19.4101 14.8534 19.4215 14.7594 19.4521C14.6201 19.4969 14.4972 19.5821 14.4063 19.6968C14.3155 19.8115 14.2606 19.9505 14.2488 20.0964C14.237 20.2423 14.2688 20.3883 14.34 20.5162C14.4112 20.644 14.5188 20.7478 14.6491 20.8145C14.7793 20.8811 14.9265 20.9077 15.0718 20.8907C15.2172 20.8737 15.3542 20.814 15.4656 20.7191C15.577 20.6242 15.6577 20.4984 15.6976 20.3576C15.7375 20.2168 15.7347 20.0673 15.6896 19.9281C15.6449 19.79 15.5605 19.6681 15.4469 19.5777C15.3333 19.4873 15.1957 19.4314 15.051 19.4187ZM12.5 19.8125C12.3041 19.8125 12.1163 19.8903 11.9778 20.0288C11.8393 20.1673 11.7615 20.3552 11.7615 20.551C11.7617 20.7468 11.8396 20.9345 11.9781 21.073C12.1165 21.2114 12.3042 21.2893 12.5 21.2896C12.5971 21.2896 12.6932 21.2704 12.7829 21.2333C12.8725 21.1961 12.954 21.1416 13.0226 21.0729C13.0912 21.0042 13.1456 20.9227 13.1826 20.8329C13.2197 20.7432 13.2387 20.6471 13.2385 20.55C13.2383 20.3543 13.1603 20.1667 13.0219 20.0284C12.8834 19.8902 12.6957 19.8125 12.5 19.8125ZM8.17708 20.2229C8.00324 20.2107 7.82963 20.2499 7.67791 20.3356C7.5262 20.4214 7.4031 20.5499 7.32396 20.7052C7.24491 20.8613 7.2139 21.0374 7.23483 21.2111C7.25577 21.3848 7.3277 21.5484 7.44157 21.6813C7.55543 21.8142 7.70611 21.9103 7.87458 21.9576C8.04306 22.0049 8.22176 22.0012 8.38814 21.947C8.55452 21.8928 8.70111 21.7906 8.8094 21.6531C8.91769 21.5157 8.98282 21.3492 8.99657 21.1747C9.01032 21.0003 8.97208 20.8257 8.88666 20.673C8.80125 20.5203 8.6725 20.3963 8.51667 20.3167C8.41089 20.263 8.29541 20.2311 8.17708 20.2229ZM16.8229 20.2229C16.7039 20.2311 16.5878 20.263 16.4812 20.3167C16.3727 20.3667 16.2753 20.4382 16.1951 20.5269C16.1148 20.6155 16.0533 20.7194 16.0142 20.8324C15.9752 20.9454 15.9593 21.0652 15.9676 21.1844C15.976 21.3037 16.0083 21.4201 16.0628 21.5265C16.1172 21.633 16.1926 21.7274 16.2844 21.804C16.3762 21.8806 16.4825 21.9378 16.597 21.9723C16.7115 22.0068 16.8317 22.0178 16.9506 22.0047C17.0694 21.9915 17.1844 21.9545 17.2885 21.8958C17.3922 21.8431 17.4844 21.7705 17.5599 21.682C17.6354 21.5936 17.6927 21.4912 17.7285 21.3805C17.7643 21.2699 17.7779 21.1533 17.7685 21.0374C17.7592 20.9216 17.727 20.8087 17.674 20.7052C17.5955 20.5498 17.4728 20.4211 17.3214 20.3353C17.17 20.2495 16.9965 20.2104 16.8229 20.2229ZM5.80625 20.7115C5.63431 20.7056 5.46357 20.7421 5.30901 20.8176C5.15445 20.8932 5.0208 21.0055 4.91979 21.1448C4.75648 21.3703 4.68933 21.6514 4.73307 21.9264C4.77682 22.2014 4.92789 22.4478 5.15312 22.6115C5.26471 22.6927 5.39122 22.7511 5.5254 22.7834C5.65959 22.8157 5.79882 22.8212 5.93514 22.7996C6.07145 22.778 6.20218 22.7298 6.31984 22.6576C6.4375 22.5855 6.53978 22.4909 6.62083 22.3792C6.70202 22.2677 6.76042 22.1412 6.79268 22.0071C6.82495 21.873 6.83045 21.7339 6.80888 21.5977C6.7873 21.4614 6.73907 21.3308 6.66694 21.2132C6.59482 21.0956 6.50021 20.9935 6.38854 20.9125C6.21885 20.7889 6.01606 20.7189 5.80625 20.7115ZM19.1937 20.7115C18.984 20.719 18.7812 20.789 18.6115 20.9125C18.4434 21.0348 18.3153 21.2041 18.2435 21.3992C18.1717 21.5942 18.1593 21.8061 18.2079 22.0082C18.2565 22.2103 18.3639 22.3934 18.5166 22.5345C18.6693 22.6755 18.8603 22.7681 19.0656 22.8006C19.2709 22.833 19.4812 22.8039 19.6699 22.7169C19.8587 22.6298 20.0174 22.4888 20.126 22.3116C20.2345 22.1344 20.2882 21.9289 20.28 21.7212C20.2719 21.5136 20.2023 21.313 20.0802 21.1448C19.9793 21.0055 19.8456 20.8931 19.691 20.8175C19.5365 20.7419 19.3657 20.7055 19.1937 20.7115ZM10.95 21.1552C10.7459 21.1648 10.5513 21.2444 10.399 21.3807C10.2466 21.5169 10.1459 21.7014 10.1135 21.9031C10.0771 22.1352 10.1343 22.3722 10.2726 22.5621C10.4109 22.752 10.619 22.8792 10.851 22.9156C11.0831 22.9521 11.3202 22.8949 11.51 22.7566C11.6999 22.6183 11.8271 22.4102 11.8635 22.1781C11.882 22.0633 11.8776 21.9461 11.8506 21.833C11.8237 21.7199 11.7747 21.6132 11.7065 21.5191C11.6383 21.425 11.5522 21.3452 11.4531 21.2844C11.3541 21.2235 11.244 21.1828 11.1292 21.1646C11.0699 21.1551 11.0099 21.1526 10.95 21.1552ZM14.0521 21.1552C13.9206 21.1492 13.7895 21.1726 13.6682 21.2236C13.5469 21.2747 13.4384 21.3521 13.3508 21.4502C13.2631 21.5483 13.1984 21.6648 13.1613 21.791C13.1242 21.9173 13.1158 22.0502 13.1365 22.1802C13.1547 22.2951 13.1953 22.4053 13.2561 22.5045C13.3169 22.6037 13.3966 22.69 13.4907 22.7583C13.5848 22.8267 13.6915 22.8759 13.8046 22.9031C13.9177 22.9302 14.0351 22.9349 14.15 22.9167C14.2649 22.8985 14.3751 22.8578 14.4743 22.797C14.5735 22.7363 14.6598 22.6565 14.7281 22.5624C14.7965 22.4683 14.8457 22.3616 14.8729 22.2485C14.9 22.1354 14.9047 22.018 14.8865 21.9031C14.8546 21.7017 14.7544 21.5174 14.6026 21.3812C14.4509 21.2449 14.2568 21.1652 14.0531 21.1552H14.0521ZM8.87292 22.3427C8.63284 22.3653 8.4078 22.4697 8.23548 22.6383C8.06316 22.807 7.95402 23.0298 7.92632 23.2693C7.89862 23.5089 7.95404 23.7506 8.08332 23.9542C8.21259 24.1578 8.40787 24.3107 8.63646 24.3875C8.76764 24.4301 8.90594 24.4465 9.04344 24.4356C9.18095 24.4248 9.31497 24.387 9.43787 24.3244C9.56076 24.2617 9.67011 24.1755 9.75968 24.0706C9.84925 23.9657 9.91728 23.8442 9.9599 23.713C10.0025 23.5818 10.0189 23.4435 10.008 23.306C9.99719 23.1685 9.95938 23.0345 9.89675 22.9116C9.83412 22.7887 9.74789 22.6794 9.643 22.5898C9.53811 22.5002 9.4166 22.4322 9.28542 22.3896C9.15246 22.3464 9.01217 22.3305 8.87292 22.3427ZM16.1271 22.3427C15.9878 22.3305 15.8475 22.3464 15.7146 22.3896C15.4496 22.4755 15.2294 22.663 15.1025 22.911C14.9756 23.1591 14.9522 23.4473 15.0375 23.7125C15.1301 23.9693 15.3188 24.1801 15.5639 24.3003C15.8089 24.4205 16.0911 24.4408 16.3509 24.3568C16.6106 24.2729 16.8275 24.0912 16.9558 23.8503C17.0842 23.6094 17.1138 23.328 17.0385 23.0656C16.9743 22.869 16.8536 22.6956 16.6916 22.5671C16.5295 22.4385 16.3332 22.3605 16.1271 22.3427ZM12.5 22.8979C12.2293 22.91 11.9738 23.026 11.7865 23.2218C11.5992 23.4175 11.4947 23.678 11.4947 23.949C11.4947 24.2199 11.5992 24.4804 11.7865 24.6762C11.9738 24.8719 12.2293 24.9879 12.5 25C12.6379 25.0001 12.7745 24.9731 12.902 24.9204C13.0294 24.8676 13.1452 24.7903 13.2428 24.6928C13.3403 24.5952 13.4176 24.4794 13.4704 24.352C13.5231 24.2245 13.5501 24.0879 13.55 23.95C13.55 23.3708 13.0812 22.8979 12.5 22.8979Z" fill="black"/>
</svg>
