<svg width="32" height="26" viewBox="0 0 32 26" fill="none" xmlns="http://www.w3.org/2000/svg">
<path d="M8.48777 21.2398V1H30.669V21.2398C30.669 22.1056 30.3254 22.9359 29.7136 23.5481C29.1019 24.1603 28.2722 24.5042 27.4071 24.5042H5.22582M21.5356 6.22316H25.4499V11.4463H21.5356V6.22316ZM12.4021 16.6695H26.7547H12.4021ZM12.4021 11.4463H17.6212H12.4021ZM12.4021 6.22316H17.6212H12.4021ZM8.48777 21.2398C8.48777 22.1056 8.1441 22.9359 7.53237 23.5481C6.92063 24.1603 6.09094 24.5042 5.22582 24.5042C4.3607 24.5042 3.53101 24.1603 2.91927 23.5481C2.30754 22.9359 1.96387 22.1056 1.96387 21.2398V6.22316H8.52039L8.48777 21.2398Z" stroke="#717171" stroke-width="2"/>
</svg>
