<svg width="9" height="10" viewBox="0 0 9 10" fill="none" xmlns="http://www.w3.org/2000/svg">
<path d="M0.548181 0.000119887C0.43989 -0.00194761 0.333327 0.0227671 0.242198 0.0710847C0.151069 0.119402 0.0795438 0.189113 0.0368222 0.271249C-0.0463478 0.435947 0.0133665 0.551451 0.195783 0.767015C0.462959 1.09141 3.18096 3.78462 3.18096 3.78462L2.57945 4.24909C2.0727 4.66714 2.05091 5.22825 2.52227 5.61708L3.2226 6.16748L1.26854 8.14802C1.11681 8.28137 1.02291 8.51538 1.10765 8.68335C1.14981 8.76791 1.22172 8.84012 1.31409 8.89064C1.40646 8.94117 1.51506 8.9677 1.62587 8.96681C1.69762 8.96533 1.76812 8.95097 1.83246 8.92473C1.8968 8.8985 1.95344 8.86101 1.99845 8.81488L4.32257 7.03187L7.90428 9.84657C8.02528 9.94295 8.18614 9.99779 8.35429 10C8.41503 9.99987 8.47543 9.99235 8.53351 9.97766C8.64122 9.9499 8.7388 9.90031 8.81733 9.83343C8.89586 9.76656 8.95284 9.68452 8.98307 9.5948C9.0073 9.51062 9.00549 9.42276 8.97783 9.3393C8.95016 9.25584 8.89751 9.17946 8.82472 9.11718L5.67816 5.99183L6.24164 5.55952C6.66184 5.24694 6.66409 4.70357 6.24645 4.38863L5.62935 3.90016L7.75981 1.82379L7.76262 1.82111L7.76514 1.81829C7.95554 1.61419 8.0466 1.457 7.94843 1.25768C7.88976 1.16549 7.80784 1.08473 7.70818 1.02085C7.60852 0.956961 7.49343 0.911431 7.37066 0.887318C7.34502 0.884491 7.31918 0.883063 7.29331 0.883043C7.12559 0.891489 6.96708 0.950011 6.84721 1.04718L6.84225 1.05052L6.83761 1.05401L4.36809 2.90171L0.963616 0.206713C0.963616 0.206713 0.761652 0.00429327 0.548181 0.000119887ZM7.29316 1.03266C7.31129 1.03272 7.32942 1.03369 7.3474 1.03564C7.43821 1.05628 7.5232 1.09149 7.59748 1.13927C7.67177 1.18705 7.73391 1.24645 7.78033 1.31407C7.83521 1.42542 7.8183 1.51589 7.62137 1.72706L5.49839 3.79637L4.49952 3.00564L6.95943 1.16484C7.04799 1.08937 7.16641 1.04262 7.29319 1.03306L7.29316 1.03266ZM3.30469 3.89369L8.68272 9.21113C8.78827 9.32016 8.85424 9.42923 8.80928 9.55214C8.78765 9.6183 8.74618 9.67891 8.68869 9.72837C8.6312 9.77783 8.55955 9.81455 8.48034 9.83514C8.43942 9.84557 8.39685 9.85089 8.35402 9.85095C8.23254 9.84858 8.11658 9.80856 8.02923 9.73885L2.6503 5.51115C2.22719 5.16204 2.29118 4.69804 2.70303 4.35821L3.30469 3.89369Z" fill="black"/>
</svg>
