<svg width="31" height="27" viewBox="0 0 31 27" fill="none" xmlns="http://www.w3.org/2000/svg">
<path d="M22.1745 0.239396C21.926 0.299097 21.7045 0.455382 21.549 0.680592C21.3934 0.905802 21.314 1.18542 21.3247 1.46995V25.5984C21.2995 25.7711 21.3081 25.9478 21.3498 26.1163C21.3916 26.2849 21.4656 26.4413 21.5666 26.5746C21.6676 26.7079 21.7933 26.815 21.935 26.8884C22.0766 26.9619 22.2308 26.9999 22.3869 26.9999C22.543 26.9999 22.6972 26.9619 22.8388 26.8884C22.9805 26.815 23.1062 26.7079 23.2072 26.5746C23.3083 26.4413 23.3822 26.2849 23.424 26.1163C23.4657 25.9478 23.4743 25.7711 23.4491 25.5984V1.46995C23.4527 1.30035 23.4243 1.1318 23.3659 0.975313C23.3074 0.818828 23.2201 0.677922 23.1098 0.561795C22.9995 0.445668 22.8685 0.356931 22.7255 0.301378C22.5825 0.245825 22.4306 0.224704 22.2798 0.239396C22.2447 0.237467 22.2096 0.237467 22.1745 0.239396ZM8.57875 1.50932C8.33032 1.56902 8.10874 1.7253 7.95323 1.95051C7.79771 2.17572 7.71829 2.45534 7.72902 2.73987V24.3285C7.70378 24.5012 7.71235 24.6779 7.75411 24.8464C7.79587 25.015 7.86984 25.1713 7.97088 25.3047C8.07192 25.438 8.19762 25.5451 8.33927 25.6185C8.48091 25.692 8.63512 25.73 8.79118 25.73C8.94725 25.73 9.10145 25.692 9.2431 25.6185C9.38474 25.5451 9.51044 25.438 9.61149 25.3047C9.71253 25.1713 9.7865 25.015 9.82826 24.8464C9.87002 24.6779 9.87858 24.5012 9.85335 24.3285V2.73987C9.85695 2.57027 9.82859 2.40172 9.77013 2.24523C9.71167 2.08875 9.62442 1.94784 9.51408 1.83172C9.40374 1.71559 9.27279 1.62685 9.12977 1.5713C8.98676 1.51575 8.83491 1.49463 8.68412 1.50932C8.64902 1.50739 8.61385 1.50739 8.57875 1.50932ZM18.7755 5.31908C18.5271 5.37878 18.3055 5.53507 18.15 5.76028C17.9945 5.98549 17.9151 6.2651 17.9258 6.54963V20.5188C17.9 20.6916 17.9082 20.8687 17.9496 21.0377C17.9911 21.2067 18.0649 21.3635 18.166 21.4972C18.267 21.631 18.3929 21.7385 18.5347 21.8122C18.6766 21.8859 18.8311 21.9241 18.9874 21.9241C19.1438 21.9241 19.2983 21.8859 19.4401 21.8122C19.582 21.7385 19.7078 21.631 19.8088 21.4972C19.9099 21.3635 19.9837 21.2067 20.0252 21.0377C20.0667 20.8687 20.0748 20.6916 20.049 20.5188V6.54963C20.0526 6.38026 20.0243 6.21195 19.9659 6.05565C19.9076 5.89936 19.8206 5.75858 19.7105 5.6425C19.6004 5.52641 19.4697 5.43761 19.327 5.38189C19.1843 5.32617 19.0327 5.30477 18.882 5.31908C18.8462 5.31707 18.8103 5.31707 18.7744 5.31908H18.7755ZM5.17982 6.589C4.93139 6.6487 4.70981 6.80499 4.55429 7.0302C4.39878 7.25541 4.31936 7.53502 4.33009 7.81955V19.2488C4.30431 19.4217 4.31244 19.5988 4.35392 19.7678C4.39539 19.9368 4.46922 20.0936 4.57026 20.2273C4.6713 20.3611 4.79713 20.4686 4.93898 20.5423C5.08084 20.616 5.23532 20.6542 5.39169 20.6542C5.54805 20.6542 5.70253 20.616 5.84439 20.5423C5.98625 20.4686 6.11207 20.3611 6.21311 20.2273C6.31415 20.0936 6.38798 19.9368 6.42945 19.7678C6.47093 19.5988 6.47906 19.4217 6.45328 19.2488V7.81955C6.45685 7.65018 6.42855 7.48187 6.37022 7.32557C6.3119 7.16928 6.22486 7.0285 6.11477 6.91242C6.00468 6.79633 5.87401 6.70753 5.73127 6.65181C5.58854 6.59609 5.43693 6.57469 5.28632 6.589C5.25046 6.58699 5.21454 6.58699 5.17869 6.589H5.17982ZM11.9777 7.85892C11.7292 7.91862 11.5077 8.07491 11.3522 8.30012C11.1966 8.52533 11.1172 8.80494 11.1279 9.08948V17.9789C11.1022 18.1518 11.1103 18.3289 11.1518 18.4978C11.1933 18.6668 11.2671 18.8237 11.3681 18.9574C11.4692 19.0912 11.595 19.1986 11.7368 19.2723C11.8787 19.3461 12.0332 19.3842 12.1895 19.3842C12.3459 19.3842 12.5004 19.3461 12.6423 19.2723C12.7841 19.1986 12.9099 19.0912 13.011 18.9574C13.112 18.8237 13.1858 18.6668 13.2273 18.4978C13.2688 18.3289 13.2769 18.1518 13.2511 17.9789V9.08948C13.2547 8.9201 13.2264 8.75179 13.1681 8.5955C13.1098 8.4392 13.0227 8.29843 12.9126 8.18234C12.8025 8.06625 12.6719 7.97746 12.5291 7.92173C12.3864 7.86601 12.2348 7.84461 12.0842 7.85892C12.0483 7.85691 12.0124 7.85691 11.9765 7.85892H11.9777ZM25.5734 7.85892C25.325 7.91862 25.1034 8.07491 24.9479 8.30012C24.7924 8.52533 24.7129 8.80494 24.7237 9.08948V17.9789C24.6984 18.1516 24.707 18.3283 24.7488 18.4968C24.7905 18.6654 24.8645 18.8217 24.9655 18.9551C25.0666 19.0884 25.1923 19.1955 25.3339 19.2689C25.4756 19.3424 25.6298 19.3804 25.7858 19.3804C25.9419 19.3804 26.0961 19.3424 26.2378 19.2689C26.3794 19.1955 26.5051 19.0884 26.6061 18.9551C26.7072 18.8217 26.7812 18.6654 26.8229 18.4968C26.8647 18.3283 26.8732 18.1516 26.848 17.9789V9.08948C26.8516 8.91987 26.8232 8.75133 26.7648 8.59484C26.7063 8.43835 26.6191 8.29745 26.5087 8.18132C26.3984 8.06519 26.2674 7.97646 26.1244 7.9209C25.9814 7.86535 25.8296 7.84423 25.6788 7.85892C25.6437 7.85699 25.6085 7.85699 25.5734 7.85892ZM1.78089 10.3988C1.53246 10.4585 1.31088 10.6147 1.15536 10.84C0.999848 11.0652 0.920427 11.3448 0.931154 11.6293V15.4391C0.90592 15.6117 0.914482 15.7884 0.956245 15.957C0.998009 16.1255 1.07198 16.2819 1.17302 16.4152C1.27406 16.5485 1.39976 16.6556 1.54141 16.7291C1.68305 16.8025 1.83725 16.8406 1.99332 16.8406C2.14939 16.8406 2.30359 16.8025 2.44524 16.7291C2.58688 16.6556 2.71258 16.5485 2.81362 16.4152C2.91467 16.2819 2.98863 16.1255 3.0304 15.957C3.07216 15.7884 3.08072 15.6117 3.05549 15.4391V11.6293C3.05908 11.4597 3.03072 11.2912 2.97226 11.1347C2.9138 10.9782 2.82655 10.8373 2.71621 10.7212C2.60587 10.605 2.47492 10.5163 2.33191 10.4607C2.1889 10.4052 2.03704 10.3841 1.88625 10.3988C1.85078 10.3968 1.81523 10.3968 1.77975 10.3988H1.78089ZM15.3766 10.3988C15.1282 10.4585 14.9066 10.6147 14.7511 10.84C14.5956 11.0652 14.5162 11.3448 14.5269 11.6293V15.4391C14.5011 15.6119 14.5092 15.789 14.5507 15.958C14.5922 16.127 14.666 16.2838 14.7671 16.4176C14.8681 16.5513 14.9939 16.6588 15.1358 16.7325C15.2776 16.8062 15.4321 16.8444 15.5885 16.8444C15.7448 16.8444 15.8993 16.8062 16.0412 16.7325C16.183 16.6588 16.3089 16.5513 16.4099 16.4176C16.5109 16.2838 16.5848 16.127 16.6262 15.958C16.6677 15.789 16.6759 15.6119 16.6501 15.4391V11.6293C16.6536 11.4599 16.6253 11.2916 16.567 11.1353C16.5087 10.979 16.4217 10.8383 16.3116 10.7222C16.2015 10.6061 16.0708 10.5173 15.9281 10.4616C15.7853 10.4059 15.6337 10.3845 15.4831 10.3988C15.4473 10.3968 15.4113 10.3968 15.3755 10.3988H15.3766ZM28.9723 10.3988C28.7239 10.4585 28.5023 10.6147 28.3468 10.84C28.1913 11.0652 28.1119 11.3448 28.1226 11.6293V15.4391C28.0974 15.6117 28.1059 15.7884 28.1477 15.957C28.1895 16.1255 28.2634 16.2819 28.3645 16.4152C28.4655 16.5485 28.5912 16.6556 28.7329 16.7291C28.8745 16.8025 29.0287 16.8406 29.1848 16.8406C29.3408 16.8406 29.495 16.8025 29.6367 16.7291C29.7783 16.6556 29.904 16.5485 30.0051 16.4152C30.1061 16.2819 30.1801 16.1255 30.2218 15.957C30.2636 15.7884 30.2722 15.6117 30.2469 15.4391V11.6293C30.2505 11.4597 30.2222 11.2912 30.1637 11.1347C30.1053 10.9782 30.018 10.8373 29.9077 10.7212C29.7973 10.605 29.6664 10.5163 29.5234 10.4607C29.3804 10.4052 29.2285 10.3841 29.0777 10.3988C29.0426 10.3968 29.0074 10.3968 28.9723 10.3988Z" fill="#717171"/>
</svg>
