<svg width="22" height="30" viewBox="0 0 22 30" fill="none" xmlns="http://www.w3.org/2000/svg">
<path fill-rule="evenodd" clip-rule="evenodd" d="M10.808 29.864C9.82177 29.8639 8.85292 29.5859 7.99883 29.0579C7.6331 28.8531 7.4017 28.45 7.39611 28.0081C7.39053 27.5662 7.61166 27.1566 7.97207 26.9413C8.33249 26.7259 8.77418 26.7394 9.1225 26.9765C10.0607 27.552 11.1998 27.6107 12.1853 27.1343C13.1708 26.6579 13.883 25.7043 14.1004 24.5703C14.3077 23.4222 15.2558 22.5999 16.3477 22.6212H19.5277L18.7524 19.3006C18.7416 19.2047 18.7416 19.1077 18.7524 19.0118V12.118C18.8277 7.59529 15.6232 3.78058 11.4148 3.38329C9.23879 3.2265 7.09965 4.04409 5.50825 5.6408C3.91684 7.23752 3.01604 9.47001 3.02096 11.8051V19.0239C3.03179 19.1198 3.03179 19.2167 3.02096 19.3126L2.24563 22.6332H10.9204C11.541 22.6332 12.0441 23.1719 12.0441 23.8364C12.0441 24.5008 11.541 25.0395 10.9204 25.0395H2.24563C1.55493 25.0389 0.902835 24.6983 0.477269 24.1158C0.0517021 23.5333 -0.100065 22.7737 0.0657039 22.0557L0.807328 18.8795V11.8172C0.801091 8.81582 1.95861 5.94634 4.00362 3.89359C6.04863 1.84083 8.79766 0.788984 11.5946 0.989082C16.9823 1.46885 21.1052 6.32986 21.0334 12.118V18.8554L21.7751 22.0317C21.9408 22.7496 21.7891 23.5093 21.3635 24.0917C20.9379 24.6742 20.2858 25.0148 19.5951 25.0154H16.4151C15.8881 27.8714 13.5266 29.9134 10.808 29.864V29.864Z" fill="#0F1E36" fill-opacity="0.5"/>
</svg>
