<svg width="33" height="32" viewBox="0 0 33 32" fill="none" xmlns="http://www.w3.org/2000/svg">
<path d="M1.30115 23.4516C1.13153 22.9803 0.620063 21.356 1.12762 20.0809L13.9496 27.9448C14.015 27.9851 14.0893 28.0063 14.1649 28.0063C14.2405 28.0063 14.3148 27.9851 14.3802 27.9448L32.223 17.0028V20.2653L14.1649 31.339L1.29985 23.4516H1.30115ZM1.15763 11.4604C0.781855 12.6758 1.1772 14.3126 1.31942 14.8227L14.1649 22.7004L32.223 11.6267V8.36001L14.3802 19.3034C14.3148 19.3437 14.2405 19.3649 14.1649 19.3649C14.0893 19.3649 14.015 19.3437 13.9496 19.3034L1.15632 11.4604H1.15763ZM18.3415 8.77718C18.2835 8.81195 18.2188 8.83207 18.1524 8.83598C18.086 8.8399 18.0196 8.8275 17.9584 8.79976C17.8972 8.77201 17.8428 8.72966 17.7995 8.67599C17.7562 8.62232 17.7251 8.55878 17.7087 8.49029L17.3433 6.92002L14.5694 6.67609C14.4782 6.66783 14.3919 6.62893 14.3229 6.56502C14.2539 6.50111 14.2059 6.41552 14.1859 6.32067C14.1658 6.22583 14.1747 6.12665 14.2113 6.03755C14.2479 5.94844 14.3102 5.87403 14.3893 5.82512L21.6673 1.36238L19.4466 0L1.81915 10.8104L14.1649 18.3804L31.7924 7.57002L26.0514 4.04973L18.3402 8.77579L18.3415 8.77718ZM18.104 6.38089L18.4067 7.6809L25.1889 3.52168L22.5272 1.88904L16.0125 5.8861L17.7217 6.03578C17.8116 6.04375 17.8968 6.08147 17.9654 6.14364C18.034 6.2058 18.0825 6.28789 18.104 6.38089ZM32.223 12.6828L14.3802 23.6248C14.3148 23.6651 14.2405 23.6863 14.1649 23.6863C14.0893 23.6863 14.015 23.6651 13.9496 23.6248L1.12762 15.7623C0.618758 17.036 1.13153 18.6603 1.30115 19.1302L14.1649 27.0204L32.223 15.9467V12.6828Z" fill="#717171"/>
</svg>
