<svg width="24" height="26" viewBox="0 0 24 26" fill="none" xmlns="http://www.w3.org/2000/svg">
<path d="M11.7496 0.361572C11.3759 0.361572 11.0022 0.446367 10.7127 0.615956L1.46955 6.02958C0.890471 6.36876 0.890471 6.9051 1.46955 7.24427L10.7127 12.6579C11.2918 12.9971 12.2075 12.9971 12.7865 12.6579L22.0296 7.24427C22.6087 6.90516 22.6087 6.36876 22.0296 6.02964L12.7865 0.616017C12.4969 0.446306 12.1233 0.361572 11.7496 0.361572ZM11.6998 3.6155C12.2452 3.62145 12.7355 3.74797 13.1708 3.99488C13.4685 4.16385 13.6635 4.35654 13.7557 4.57312C13.8448 4.78799 13.8501 5.07123 13.7714 5.4226L13.6746 5.77219C13.6104 6.02235 13.5971 6.20229 13.6347 6.31196C13.6691 6.42004 13.7546 6.5128 13.8913 6.59036L14.0965 6.70665L12.0854 7.84746L11.8619 7.72082C11.6128 7.57953 11.4539 7.41987 11.3849 7.2417C11.3131 7.06188 11.325 6.77588 11.4209 6.38364L11.5131 6.03148C11.5668 5.82176 11.572 5.64978 11.5288 5.51573C11.4893 5.37947 11.3997 5.2717 11.2599 5.19242C11.0472 5.07172 10.7924 5.02846 10.4957 5.06234C10.1958 5.09457 9.88622 5.2013 9.56685 5.38247C9.26599 5.5531 8.99279 5.76674 8.74694 6.02333C8.49812 6.27833 8.28464 6.57008 8.10632 6.89872L6.67525 6.0868C6.99704 5.75963 7.31321 5.47351 7.62381 5.22826C7.93447 4.98319 8.26243 4.76262 8.60782 4.56657C9.51403 4.05253 10.3568 3.7468 11.1359 3.64957C11.3229 3.62523 11.5114 3.61383 11.6999 3.61544L11.6998 3.6155ZM14.7711 7.08939L16.3937 8.00988L14.3826 9.15068L12.76 8.23026L14.7711 7.08939ZM0.852349 8.26977C0.504234 8.26028 0.267578 8.53543 0.267578 9.02214V18.6838C0.267578 19.361 0.725641 20.1642 1.30472 20.5029L10.1955 25.7013C10.7746 26.0399 11.2326 25.7721 11.2326 25.0951V15.4332C11.2326 14.7561 10.7746 13.953 10.1955 13.6143L1.30472 8.4159C1.14195 8.32063 0.988558 8.27333 0.852349 8.26965V8.26977ZM22.6828 8.2699C22.5467 8.27357 22.3934 8.32075 22.2306 8.41602L13.3395 13.6144C12.7604 13.953 12.3023 14.7563 12.3023 15.4335V25.0954C12.3023 25.7724 12.7604 26.04 13.3395 25.7013L22.2306 20.5031C22.8097 20.1645 23.2676 19.3613 23.2676 18.6842V9.02227C23.2676 8.53568 23.031 8.26058 22.6828 8.27002V8.2699ZM3.22604 12.1758C3.62257 12.2595 3.98472 12.362 4.31245 12.483C4.64097 12.6044 4.95844 12.7546 5.26125 12.9318C6.06077 13.3992 6.67029 13.9319 7.08974 14.5298C7.5092 15.124 7.71893 15.7579 7.71893 16.4315C7.71893 16.7771 7.65509 17.0499 7.52723 17.2503C7.39943 17.4471 7.18148 17.6124 6.87348 17.7462L6.55883 17.8638C6.33603 17.9522 6.19014 18.0432 6.12134 18.1371C6.05254 18.2273 6.01817 18.3516 6.01817 18.5103V18.7483L4.24371 17.7109V17.4517C4.24371 17.1625 4.29768 16.9386 4.40587 16.7796C4.514 16.6171 4.74183 16.4647 5.08915 16.3221L5.40381 16.1992C5.5906 16.1251 5.72657 16.0319 5.81177 15.9194C5.90011 15.809 5.94441 15.6726 5.94441 15.5104C5.94441 15.2637 5.86574 15.0255 5.70842 14.796C5.55109 14.563 5.33162 14.3641 5.04976 14.1993C4.7843 14.0441 4.49755 13.9364 4.18949 13.8763C3.88149 13.8125 3.5603 13.7994 3.22604 13.8367V12.1758ZM19.536 12.7032C19.6281 12.7032 19.7134 12.7133 19.7921 12.7334C20.2115 12.8373 20.4212 13.226 20.4212 13.8995C20.4212 14.2451 20.3573 14.5927 20.2295 14.9425C20.1017 15.2887 19.8838 15.7088 19.5758 16.2027L19.2611 16.6882C19.0383 17.0371 18.8924 17.2986 18.8236 17.4728C18.7548 17.6434 18.7205 17.8081 18.7205 17.9668V18.2048L16.946 19.2422V18.9831C16.946 18.6939 17.0001 18.4065 17.1082 18.1212C17.2165 17.8323 17.4441 17.4136 17.7915 16.865L18.1061 16.3742C18.2929 16.0816 18.4289 15.8293 18.5141 15.6173C18.6024 15.4034 18.6467 15.2153 18.6467 15.053C18.6467 14.8063 18.5681 14.6601 18.4108 14.6145C18.2535 14.5655 18.0339 14.6232 17.7521 14.7879C17.4866 14.9431 17.2 15.1708 16.8919 15.4707C16.5839 15.7672 16.2627 16.1295 15.9285 16.5576V14.8966C16.325 14.5168 16.687 14.1957 17.0146 13.9336C17.3424 13.6715 17.6588 13.4514 17.9634 13.2733C18.6132 12.8935 19.1373 12.7034 19.5361 12.7031L19.536 12.7032ZM4.24364 18.4939L6.01817 19.5312V21.4143L4.24371 20.377V18.494L4.24364 18.4939ZM18.7205 18.9877V20.8708L16.946 21.908V20.0251L18.7205 18.9877Z" fill="#535151"/>
</svg>
