<svg width="21" height="16" viewBox="0 0 21 16" fill="none" xmlns="http://www.w3.org/2000/svg">
<path d="M9.84455 14.7368C9.9363 14.87 10.0591 14.979 10.2023 15.0542C10.3455 15.1295 10.5048 15.1688 10.6666 15.1688C10.8284 15.1688 10.9878 15.1295 11.131 15.0542C11.2742 14.979 11.3969 14.87 11.4887 14.7368L20.4894 1.73575C20.5936 1.58579 20.6547 1.41016 20.666 1.22791C20.6774 1.04567 20.6386 0.863804 20.5539 0.702062C20.4691 0.54032 20.3417 0.404893 20.1854 0.310495C20.0291 0.216098 19.8499 0.16634 19.6673 0.166627H1.66591C1.48374 0.16738 1.30522 0.217778 1.14955 0.312402C0.993879 0.407025 0.866949 0.542294 0.782408 0.703662C0.697867 0.86503 0.658915 1.04639 0.66974 1.22824C0.680564 1.41009 0.740757 1.58555 0.843844 1.73575L9.84455 14.7368Z" fill="#535151"/>
</svg>
