<svg width="27" height="27" viewBox="0 0 27 27" fill="none" xmlns="http://www.w3.org/2000/svg">
<path d="M13.499 0.327026C11.7262 0.327026 9.97069 0.676214 8.3328 1.35465C6.6949 2.03309 5.20667 3.02749 3.95308 4.28108C1.42134 6.81283 -0.000976562 10.2466 -0.000976562 13.827C-0.000976562 19.794 3.87352 24.8565 9.23302 26.652C9.90802 26.76 10.124 26.3415 10.124 25.977V23.6955C6.38452 24.5055 5.58802 21.8865 5.58802 21.8865C4.96702 20.3205 4.08952 19.902 4.08952 19.902C2.86102 19.065 4.18402 19.092 4.18402 19.092C5.53402 19.1865 6.24952 20.4825 6.24952 20.4825C7.42402 22.5345 9.40852 21.927 10.178 21.603C10.2995 20.7255 10.6505 20.1315 11.0285 19.794C8.03152 19.4565 4.88602 18.2955 4.88602 13.152C4.88602 11.6535 5.39902 10.452 6.27652 9.49353C6.14152 9.15603 5.66902 7.75203 6.41152 5.92953C6.41152 5.92953 7.54552 5.56503 10.124 7.30653C11.1905 7.00953 12.3515 6.86103 13.499 6.86103C14.6465 6.86103 15.8075 7.00953 16.874 7.30653C19.4525 5.56503 20.5865 5.92953 20.5865 5.92953C21.329 7.75203 20.8565 9.15603 20.7215 9.49353C21.599 10.452 22.112 11.6535 22.112 13.152C22.112 18.309 18.953 19.443 15.9425 19.7805C16.4285 20.199 16.874 21.0225 16.874 22.278V25.977C16.874 26.3415 17.09 26.7735 17.7785 26.652C23.138 24.843 26.999 19.794 26.999 13.827C26.999 12.0542 26.6498 10.2987 25.9714 8.6608C25.293 7.0229 24.2986 5.53468 23.045 4.28108C21.7914 3.02749 20.3031 2.03309 18.6653 1.35465C17.0274 0.676214 15.2719 0.327026 13.499 0.327026Z" fill="black"/>
</svg>
