<svg width="25" height="25" viewBox="0 0 25 25" fill="none" xmlns="http://www.w3.org/2000/svg">
<path d="M19.1396 0H5.8584C2.62235 0 -0.000976562 2.62333 -0.000976562 5.85938V19.1406C-0.000976562 22.3767 2.62235 25 5.8584 25H19.1396C22.3757 25 24.999 22.3767 24.999 19.1406V5.85938C24.999 2.62333 22.3757 0 19.1396 0Z" fill="url(#paint0_radial_326_24)"/>
<path d="M19.1396 0H5.8584C2.62235 0 -0.000976562 2.62333 -0.000976562 5.85938V19.1406C-0.000976562 22.3767 2.62235 25 5.8584 25H19.1396C22.3757 25 24.999 22.3767 24.999 19.1406V5.85938C24.999 2.62333 22.3757 0 19.1396 0Z" fill="url(#paint1_radial_326_24)"/>
<path d="M12.4999 2.73438C9.84775 2.73438 9.51484 2.746 8.47324 2.79336C7.43359 2.84102 6.72393 3.00557 6.10303 3.24707C5.46064 3.49648 4.91582 3.83018 4.37305 4.37314C3.82979 4.91602 3.49609 5.46084 3.2459 6.10293C3.00371 6.72402 2.83896 7.43398 2.79219 8.47314C2.74561 9.51484 2.7334 9.84785 2.7334 12.5001C2.7334 15.1523 2.74512 15.4842 2.79238 16.5258C2.84023 17.5654 3.00479 18.2751 3.24609 18.896C3.4957 19.5384 3.82939 20.0832 4.37236 20.626C4.91504 21.1692 5.45986 21.5037 6.10176 21.7531C6.72314 21.9946 7.43291 22.1592 8.47236 22.2068C9.51406 22.2542 9.84668 22.2658 12.4987 22.2658C15.1512 22.2658 15.483 22.2542 16.5246 22.2068C17.5643 22.1592 18.2747 21.9946 18.8961 21.7531C19.5382 21.5037 20.0822 21.1692 20.6248 20.626C21.1681 20.0832 21.5017 19.5384 21.752 18.8963C21.992 18.2751 22.1568 17.5652 22.2057 16.526C22.2524 15.4844 22.2646 15.1523 22.2646 12.5001C22.2646 9.84785 22.2524 9.51504 22.2057 8.47334C22.1568 7.43369 21.992 6.72412 21.752 6.10322C21.5017 5.46084 21.1681 4.91602 20.6248 4.37314C20.0816 3.82998 19.5384 3.49629 18.8955 3.24717C18.2729 3.00557 17.5629 2.84092 16.5232 2.79336C15.4815 2.746 15.1499 2.73438 12.4969 2.73438H12.4999ZM11.6238 4.49424C11.8839 4.49385 12.174 4.49424 12.4999 4.49424C15.1074 4.49424 15.4164 4.50361 16.4461 4.55039C17.3982 4.59395 17.915 4.75303 18.2593 4.88672C18.715 5.06367 19.0399 5.27529 19.3815 5.61719C19.7233 5.95898 19.9349 6.28447 20.1123 6.74023C20.246 7.08398 20.4053 7.60078 20.4486 8.55293C20.4954 9.58242 20.5056 9.8916 20.5056 12.4979C20.5056 15.1041 20.4954 15.4134 20.4486 16.4428C20.4051 17.3949 20.246 17.9117 20.1123 18.2556C19.9354 18.7113 19.7233 19.0358 19.3815 19.3774C19.0397 19.7192 18.7152 19.9308 18.2593 20.1078C17.9154 20.2421 17.3982 20.4008 16.4461 20.4443C15.4166 20.4911 15.1074 20.5013 12.4999 20.5013C9.89229 20.5013 9.5832 20.4911 8.55381 20.4443C7.60166 20.4004 7.08486 20.2413 6.74033 20.1076C6.28467 19.9306 5.95908 19.719 5.61728 19.3772C5.27549 19.0355 5.06396 18.7107 4.88652 18.2548C4.75283 17.9109 4.59355 17.3941 4.5502 16.442C4.50342 15.4125 4.49404 15.1033 4.49404 12.4954C4.49404 9.8876 4.50342 9.57998 4.5502 8.55049C4.59375 7.59834 4.75283 7.08154 4.88652 6.7373C5.06357 6.28154 5.27549 5.95606 5.61738 5.61426C5.95918 5.27246 6.28467 5.06084 6.74043 4.8835C7.08467 4.74922 7.60166 4.59053 8.55381 4.54678C9.45469 4.50605 9.80381 4.49385 11.6238 4.4918V4.49424ZM17.7128 6.11572C17.0658 6.11572 16.5409 6.64014 16.5409 7.28721C16.5409 7.93418 17.0658 8.45908 17.7128 8.45908C18.3598 8.45908 18.8847 7.93418 18.8847 7.28721C18.8847 6.64023 18.3598 6.11533 17.7128 6.11533V6.11572ZM12.4999 7.48496C9.73037 7.48496 7.48486 9.73047 7.48486 12.5001C7.48486 15.2697 9.73037 17.5142 12.4999 17.5142C15.2695 17.5142 17.5143 15.2697 17.5143 12.5001C17.5143 9.73057 15.2693 7.48496 12.4997 7.48496H12.4999ZM12.4999 9.24482C14.2977 9.24482 15.7552 10.7021 15.7552 12.5001C15.7552 14.2979 14.2977 15.7554 12.4999 15.7554C10.7021 15.7554 9.24473 14.2979 9.24473 12.5001C9.24473 10.7021 10.7021 9.24482 12.4999 9.24482Z" fill="white"/>
<defs>
<radialGradient id="paint0_radial_326_24" cx="0" cy="0" r="1" gradientUnits="userSpaceOnUse" gradientTransform="translate(6.63965 26.9255) rotate(-90) scale(24.7769 23.0444)">
<stop stop-color="#FFDD55"/>
<stop offset="0.1" stop-color="#FFDD55"/>
<stop offset="0.5" stop-color="#FF543E"/>
<stop offset="1" stop-color="#C837AB"/>
</radialGradient>
<radialGradient id="paint1_radial_326_24" cx="0" cy="0" r="1" gradientUnits="userSpaceOnUse" gradientTransform="translate(-4.18857 1.80088) rotate(78.681) scale(11.0754 45.6531)">
<stop stop-color="#3771C8"/>
<stop offset="0.128" stop-color="#3771C8"/>
<stop offset="1" stop-color="#6600FF" stop-opacity="0"/>
</radialGradient>
</defs>
</svg>
