<svg width="26" height="26" viewBox="0 0 26 26" fill="none" xmlns="http://www.w3.org/2000/svg">
<path d="M18.449 15.4753C18.549 14.6399 18.624 13.8046 18.624 12.944C18.624 12.0833 18.549 11.248 18.449 10.4127H22.674C22.874 11.2227 22.999 12.0707 22.999 12.944C22.999 13.8173 22.874 14.6653 22.674 15.4753M16.2365 22.5123C16.9865 21.1074 17.5615 19.5886 17.9615 18.0066H21.649C20.438 20.118 18.5167 21.7175 16.2365 22.5123ZM15.924 15.4753H10.074C9.94902 14.6399 9.87402 13.8046 9.87402 12.944C9.87402 12.0833 9.94902 11.2353 10.074 10.4127H15.924C16.0365 11.2353 16.124 12.0833 16.124 12.944C16.124 13.8046 16.0365 14.6399 15.924 15.4753ZM12.999 23.0185C11.9615 21.4998 11.124 19.8165 10.6115 18.0066H15.3865C14.874 19.8165 14.0365 21.4998 12.999 23.0185ZM7.99902 7.88137H4.34902C5.54759 5.76421 7.46752 4.16225 9.74902 3.37566C8.99902 4.78053 8.43652 6.29931 7.99902 7.88137ZM4.34902 18.0066H7.99902C8.43652 19.5886 8.99902 21.1074 9.74902 22.5123C7.4723 21.717 5.55508 20.1173 4.34902 18.0066ZM3.32402 15.4753C3.12402 14.6653 2.99902 13.8173 2.99902 12.944C2.99902 12.0707 3.12402 11.2227 3.32402 10.4127H7.54902C7.44902 11.248 7.37402 12.0833 7.37402 12.944C7.37402 13.8046 7.44902 14.6399 7.54902 15.4753M12.999 2.85675C14.0365 4.37552 14.874 6.0715 15.3865 7.88137H10.6115C11.124 6.0715 11.9615 4.37552 12.999 2.85675ZM21.649 7.88137H17.9615C17.5703 6.31381 16.991 4.80065 16.2365 3.37566C18.5365 4.17302 20.449 5.7804 21.649 7.88137ZM12.999 0.287476C6.08652 0.287476 0.499023 5.9829 0.499023 12.944C0.499023 16.3007 1.81598 19.5199 4.16019 21.8935C5.32092 23.0687 6.69891 24.001 8.21548 24.6371C9.73205 25.2731 11.3575 25.6005 12.999 25.6005C16.3142 25.6005 19.4937 24.267 21.8379 21.8935C24.1821 19.5199 25.499 16.3007 25.499 12.944C25.499 11.2819 25.1757 9.6361 24.5475 8.10054C23.9193 6.56498 22.9986 5.16974 21.8379 3.99448C20.6771 2.81921 19.2991 1.88694 17.7826 1.25089C16.266 0.614846 14.6405 0.287476 12.999 0.287476Z" fill="#535151"/>
</svg>
