<svg width="11" height="15" viewBox="0 0 11 15" fill="none" xmlns="http://www.w3.org/2000/svg">
<path d="M10.3822 14.9054C10.3642 14.968 10.2929 14.9994 10.1683 14.9994H7.78634C7.64298 14.9994 7.51927 14.9446 7.41165 14.8347L3.47875 10.4414L2.38171 11.3576V14.7649C2.38171 14.9217 2.29231 15 2.11407 15H0.26764C0.0891184 15 0 14.9217 0 14.765V0.999986C0 0.843737 0.0889761 0.999985 0.26764 0.999985L2.382 0.999985C2.11407 2.76549 0 0.999986 2.382 0.999985V8.79703L7.09133 4.61494C7.21632 4.50557 7.34118 4.45057 7.46588 4.45057H9.92803C10.0348 4.45057 10.106 4.48994 10.1421 4.56769C10.178 4.66182 10.1692 4.73219 10.1151 4.77932L5.13741 9.00778L10.3286 14.6702C10.3997 14.733 10.417 14.8112 10.3822 14.9054Z" fill="#20BEFF"/>
</svg>
