<svg width="24" height="31" viewBox="0 0 24 31" fill="none" xmlns="http://www.w3.org/2000/svg">
<path d="M0.166992 27.875V3.4375C0.166992 1.85625 1.46074 0.5625 3.04199 0.5625H20.292C21.8732 0.5625 23.167 1.85625 23.167 3.4375V27.875C23.167 29.4563 21.8732 30.75 20.292 30.75H3.04199C1.46074 30.75 0.166992 29.4563 0.166992 27.875Z" fill="#37474F"/>
<path d="M19.5693 2.71875H3.75684C3.32559 2.71875 3.03809 3.00625 3.03809 3.4375V24.2812C3.03809 24.7125 3.32559 25 3.75684 25H19.5693C20.0006 25 20.2881 24.7125 20.2881 24.2812V3.4375C20.2881 3.00625 20.0006 2.71875 19.5693 2.71875Z" fill="#EEEEEE"/>
<path d="M8.79199 27.1562H14.542V28.5937H8.79199V27.1562Z" fill="#546E7A"/>
<path d="M5.91309 6.3125H17.4131V8.46875H5.91309V6.3125ZM5.91309 11.3438H17.4131V12.7812H5.91309V11.3438ZM5.91309 14.2188H14.5381V15.6562H5.91309V14.2188ZM5.91309 17.0938H17.4131V18.5312H5.91309V17.0938ZM5.91309 19.9688H14.5381V21.4062H5.91309V19.9688Z" fill="#A1A1A1"/>
</svg>
