<svg width="27" height="25" viewBox="0 0 27 25" fill="none" xmlns="http://www.w3.org/2000/svg">
<path fill-rule="evenodd" clip-rule="evenodd" d="M26.6598 12.742C26.6598 13.2021 26.4843 13.6434 26.1718 13.9688C25.8594 14.2942 25.4356 14.477 24.9938 14.477H5.69088L12.8449 21.9235C12.9998 22.0848 13.1227 22.2763 13.2065 22.4871C13.2904 22.6979 13.3335 22.9238 13.3335 23.1519C13.3335 23.38 13.2904 23.6059 13.2065 23.8167C13.1227 24.0275 12.9998 24.219 12.8449 24.3803C12.69 24.5416 12.5061 24.6695 12.3037 24.7568C12.1013 24.8442 11.8844 24.8891 11.6653 24.8891C11.4463 24.8891 11.2294 24.8442 11.027 24.7568C10.8246 24.6695 10.6407 24.5416 10.4858 24.3803L0.489465 13.9703C0.334312 13.8092 0.211214 13.6177 0.127223 13.4069C0.0432328 13.1961 0 12.9702 0 12.742C0 12.5138 0.0432328 12.2878 0.127223 12.077C0.211214 11.8662 0.334312 11.6748 0.489465 11.5136L10.4858 1.10366C10.7986 0.777873 11.2229 0.594849 11.6653 0.594849C12.1078 0.594849 12.5321 0.777873 12.8449 1.10366C13.1578 1.42944 13.3335 1.8713 13.3335 2.33203C13.3335 2.79276 13.1578 3.23462 12.8449 3.5604L5.69088 11.007H24.9938C25.4356 11.007 25.8594 11.1898 26.1718 11.5151C26.4843 11.8405 26.6598 12.2818 26.6598 12.742Z" fill="#666666"/>
</svg>
