<svg width="24" height="15" viewBox="0 0 24 15" fill="none" xmlns="http://www.w3.org/2000/svg">
<path d="M22.3996 8.30925L13.5131 13.8133C13.2933 13.9518 13.0415 14.0266 12.7842 14.0299C12.5269 14.0333 12.2734 13.965 12.0503 13.8323C11.8082 13.6863 11.6077 13.4766 11.4692 13.2245C11.3307 12.9724 11.2591 12.6869 11.2617 12.3968V8.54646L2.75871 13.8147C2.53886 13.9532 2.28713 14.028 2.02981 14.0314C1.77249 14.0347 1.51903 13.9665 1.2959 13.8337C1.05379 13.6878 0.85331 13.4781 0.714809 13.226C0.576309 12.9739 0.504725 12.6883 0.507326 12.3983V1.63379C0.504593 1.34368 0.576117 1.05799 0.714626 0.80578C0.853136 0.553567 1.05369 0.343821 1.2959 0.19787C1.51903 0.0651448 1.77249 -0.00311175 2.02981 0.000229836C2.28713 0.00357142 2.53886 0.0783895 2.75871 0.216867L11.2617 5.48758V1.63574C11.2587 1.3453 11.33 1.05921 11.4686 0.806623C11.6071 0.554038 11.8078 0.343985 12.0503 0.19787C12.2734 0.0651448 12.5269 -0.00311175 12.7842 0.000229836C13.0415 0.00357142 13.2933 0.0783895 13.5131 0.216867L22.3996 5.7209C22.6109 5.85789 22.785 6.04821 22.9058 6.27399C23.0265 6.49977 23.0898 6.7536 23.0898 7.01166C23.0898 7.26973 23.0265 7.52356 22.9058 7.74934C22.785 7.97512 22.6109 8.16543 22.3996 8.30243V8.30925Z" fill="#666666"/>
</svg>
