<svg width="24" height="26" viewBox="0 0 24 26" fill="none" xmlns="http://www.w3.org/2000/svg">
<path d="M5.92557 20.7004H8.6089L16.2756 13.0024L13.5283 10.2208L5.92557 17.9188V20.7004ZM17.17 12.0968L18.5117 10.6736C18.6395 10.5443 18.7033 10.3933 18.7033 10.2208C18.7033 10.0483 18.6395 9.89738 18.5117 9.768L16.7228 7.95672C16.595 7.82734 16.4459 7.76265 16.2756 7.76265C16.1052 7.76265 15.9561 7.82734 15.8283 7.95672L14.4228 9.31518L17.17 12.0968ZM3.37001 25.8755C2.66723 25.8755 2.0654 25.6219 1.56451 25.1148C1.06362 24.6076 0.813603 23.9987 0.814455 23.2879V5.1751C0.814455 4.46352 1.0649 3.85416 1.56579 3.347C2.06668 2.83984 2.66808 2.58669 3.37001 2.58755H8.73668C9.01353 1.81129 9.47694 1.18596 10.1269 0.711576C10.7769 0.237192 11.506 0 12.3145 0C13.1237 0 13.8533 0.237192 14.5033 0.711576C15.1533 1.18596 15.6162 1.81129 15.8922 2.58755H21.2589C21.9617 2.58755 22.5635 2.84113 23.0644 3.34829C23.5653 3.85545 23.8153 4.46439 23.8145 5.1751V23.2879C23.8145 23.9995 23.564 24.6089 23.0631 25.1161C22.5622 25.6232 21.9608 25.8764 21.2589 25.8755H3.37001ZM12.3145 4.20477C12.5913 4.20477 12.82 4.11291 13.0006 3.92919C13.1812 3.74548 13.2719 3.51389 13.2728 3.23444C13.2728 2.95412 13.1821 2.72253 13.0006 2.53968C12.8192 2.35683 12.5905 2.26497 12.3145 2.26411C12.0376 2.26411 11.8089 2.35596 11.6283 2.53968C11.4477 2.7234 11.357 2.95498 11.3561 3.23444C11.3561 3.51476 11.4468 3.74634 11.6283 3.92919C11.8097 4.11205 12.0385 4.20391 12.3145 4.20477Z" fill="#535151"/>
</svg>
