<svg width="24" height="24" viewBox="0 0 24 24" fill="none" xmlns="http://www.w3.org/2000/svg">
<path d="M3.97011 4.20793C4.71706 4.81419 4.99589 4.76814 6.39771 4.67478L19.6126 3.88178C19.894 3.88178 19.66 3.60039 19.5666 3.55434L17.3718 1.96835C16.951 1.64219 16.3908 1.26744 15.3177 1.36081L2.52097 2.2945C2.0554 2.34054 1.96203 2.57461 2.14749 2.76135L3.97011 4.20793ZM4.76311 7.28783V21.1909C4.76311 21.9391 5.13659 22.218 5.97819 22.1719L20.5003 21.3316C21.3406 21.2855 21.434 20.7714 21.434 20.1651V6.35414C21.434 5.74788 21.2012 5.42045 20.687 5.46777L5.51006 6.35414C4.94985 6.40019 4.76311 6.68029 4.76311 7.28783ZM19.101 8.03351C19.1931 8.45303 19.101 8.87383 18.679 8.92116L17.9793 9.06057V19.3248C17.3718 19.6522 16.8116 19.839 16.3447 19.839C15.5978 19.839 15.411 19.6049 14.8508 18.9053L10.2732 11.7197V18.6725L11.7223 18.9986C11.7223 18.9986 11.7223 19.839 10.5533 19.839L7.3314 20.0257C7.23803 19.839 7.3314 19.3734 7.65883 19.2787L8.49916 19.046V9.85357L7.3314 9.7602C7.23803 9.3394 7.47209 8.73314 8.12568 8.68581L11.5816 8.45431L16.3447 15.732V9.29463L15.1296 9.15522C15.0376 8.64105 15.411 8.26885 15.8779 8.22153L19.101 8.03479V8.03351ZM1.44658 1.03465L14.7562 0.0549178C16.3895 -0.0857756 16.8103 0.00887257 17.8386 0.754547L22.0863 3.74108C22.7872 4.25397 23.0213 4.39339 23.0213 4.9536V21.3316C23.0213 22.3586 22.6478 22.9649 21.3406 23.0583L5.88354 23.992C4.90252 24.038 4.43568 23.8986 3.92151 23.245L0.792999 19.1854C0.232783 18.4384 0 17.8795 0 17.2246V2.66798C0 1.82765 0.372198 1.12802 1.44658 1.03465Z" fill="black"/>
</svg>
