<svg width="30" height="30" viewBox="0 0 30 30" fill="none" xmlns="http://www.w3.org/2000/svg">
<path d="M2.1896 25.4629H17.5736C18.2808 25.4629 18.8564 24.8509 18.8564 24.0989V6.82043C18.8564 6.79951 18.8479 6.78133 18.8453 6.76132C18.8429 6.74226 18.8392 6.72341 18.8342 6.70494C18.8174 6.62743 18.7814 6.55613 18.7298 6.49851L12.7441 0.13368C12.6762 0.0655479 12.5896 0.0224937 12.4969 0.0109127C12.4789 0.00909391 12.4618 0 12.4422 0H2.18447C1.47462 0 0.896484 0.61202 0.896484 1.36409V24.0989C0.896484 24.8509 1.47633 25.4629 2.1896 25.4629ZM12.8698 1.55233L17.3965 6.36573H13.2974C13.184 6.36573 13.0752 6.31783 12.995 6.23256C12.9148 6.14729 12.8698 6.03163 12.8698 5.91104V1.55233ZM1.75172 1.36409C1.75172 1.11309 1.94586 0.909391 2.18447 0.909391H12.0145V5.91104C12.0145 6.66311 12.5901 7.27513 13.2974 7.27513H18.0012V24.0989C18.0012 24.2194 17.9561 24.3351 17.8759 24.4204C17.7957 24.5056 17.687 24.5535 17.5736 24.5535H2.1896C2.13277 24.5543 2.07636 24.5431 2.0236 24.5206C1.97084 24.4982 1.92275 24.4649 1.88209 24.4226C1.84143 24.3804 1.80898 24.3301 1.78662 24.2745C1.76425 24.219 1.75239 24.1593 1.75172 24.0989V1.36409Z" fill="#717171"/>
<path d="M4.745 10.9127H15.0078C15.1212 10.9127 15.23 10.8648 15.3102 10.7795C15.3904 10.6942 15.4354 10.5786 15.4354 10.458C15.4354 10.3374 15.3904 10.2217 15.3102 10.1365C15.23 10.0512 15.1212 10.0033 15.0078 10.0033H4.745C4.63159 10.0033 4.52282 10.0512 4.44263 10.1365C4.36244 10.2217 4.31738 10.3374 4.31738 10.458C4.31738 10.5786 4.36244 10.6942 4.44263 10.7795C4.52282 10.8648 4.63159 10.9127 4.745 10.9127Z" fill="#717171"/>
<path d="M4.745 14.5503H15.0078C15.1212 14.5503 15.23 14.5024 15.3102 14.4171C15.3904 14.3318 15.4354 14.2162 15.4354 14.0956C15.4354 13.975 15.3904 13.8593 15.3102 13.774C15.23 13.6888 15.1212 13.6409 15.0078 13.6409H4.745C4.63159 13.6409 4.52282 13.6888 4.44263 13.774C4.36244 13.8593 4.31738 13.975 4.31738 14.0956C4.31738 14.2162 4.36244 14.3318 4.44263 14.4171C4.52282 14.5024 4.63159 14.5503 4.745 14.5503Z" fill="#717171"/>
<path d="M4.745 7.27511H9.02117C9.13458 7.27511 9.24335 7.22721 9.32354 7.14194C9.40374 7.05666 9.44879 6.94101 9.44879 6.82042C9.44879 6.69983 9.40374 6.58417 9.32354 6.4989C9.24335 6.41363 9.13458 6.36572 9.02117 6.36572H4.745C4.63159 6.36572 4.52282 6.41363 4.44263 6.4989C4.36244 6.58417 4.31738 6.69983 4.31738 6.82042C4.31738 6.94101 4.36244 7.05666 4.44263 7.14194C4.52282 7.22721 4.63159 7.27511 4.745 7.27511Z" fill="#717171"/>
<path d="M4.745 18.1878H15.0078C15.1212 18.1878 15.23 18.1399 15.3102 18.0547C15.3904 17.9694 15.4354 17.8537 15.4354 17.7331C15.4354 17.6125 15.3904 17.4969 15.3102 17.4116C15.23 17.3263 15.1212 17.2784 15.0078 17.2784H4.745C4.63159 17.2784 4.52282 17.3263 4.44263 17.4116C4.36244 17.4969 4.31738 17.6125 4.31738 17.7331C4.31738 17.8537 4.36244 17.9694 4.44263 18.0547C4.52282 18.1399 4.63159 18.1878 4.745 18.1878Z" fill="#717171"/>
<path d="M4.745 21.8254H15.0078C15.1212 21.8254 15.23 21.7775 15.3102 21.6922C15.3904 21.607 15.4354 21.4913 15.4354 21.3707C15.4354 21.2501 15.3904 21.1345 15.3102 21.0492C15.23 20.9639 15.1212 20.916 15.0078 20.916H4.745C4.63159 20.916 4.52282 20.9639 4.44263 21.0492C4.36244 21.1345 4.31738 21.2501 4.31738 21.3707C4.31738 21.4913 4.36244 21.607 4.44263 21.6922C4.52282 21.7775 4.63159 21.8254 4.745 21.8254Z" fill="#717171"/>
<path d="M19.2841 4.54696H23.1327V9.54861C23.1327 10.3007 23.7083 10.9127 24.4156 10.9127H29.1193V27.7364C29.1193 27.857 29.0743 27.9727 28.9941 28.0579C28.9139 28.1432 28.8051 28.1911 28.6917 28.1911H13.3078C13.2509 28.1918 13.1945 28.1807 13.1418 28.1582C13.089 28.1357 13.0409 28.1024 13.0003 28.0602C12.9596 28.018 12.9271 27.9677 12.9048 27.9121C12.8824 27.8566 12.8706 27.7969 12.8699 27.7364V26.827C12.8699 26.7064 12.8248 26.5908 12.7446 26.5055C12.6644 26.4202 12.5557 26.3723 12.4423 26.3723C12.3289 26.3723 12.2201 26.4202 12.1399 26.5055C12.0597 26.5908 12.0146 26.7064 12.0146 26.827V27.7364C12.0146 28.4885 12.5945 29.1005 13.3078 29.1005H28.6917C29.399 29.1005 29.9746 28.4885 29.9746 27.7364V10.458C29.9746 10.4371 29.966 10.4189 29.9635 10.3989C29.9611 10.3798 29.9574 10.361 29.9523 10.3425C29.9356 10.265 29.8996 10.1937 29.848 10.1361L23.8622 3.77125C23.7949 3.70255 23.7079 3.65968 23.6151 3.6494C23.5971 3.64667 23.58 3.63757 23.5603 3.63757H19.2841C19.1707 3.63757 19.062 3.68548 18.9818 3.77075C18.9016 3.85602 18.8565 3.97168 18.8565 4.09227C18.8565 4.21286 18.9016 4.32851 18.9818 4.41379C19.062 4.49906 19.1707 4.54696 19.2841 4.54696ZM24.4156 10.0033C24.3021 10.0033 24.1934 9.9554 24.1132 9.87013C24.033 9.78486 23.9879 9.66921 23.9879 9.54861V5.1899L28.5147 10.0033H24.4156Z" fill="#717171"/>
<path d="M20.994 14.5503H26.1254C26.2388 14.5503 26.3476 14.5024 26.4278 14.4171C26.508 14.3318 26.5531 14.2162 26.5531 14.0956C26.5531 13.975 26.508 13.8593 26.4278 13.774C26.3476 13.6888 26.2388 13.6409 26.1254 13.6409H20.994C20.8806 13.6409 20.7718 13.6888 20.6917 13.774C20.6115 13.8593 20.5664 13.975 20.5664 14.0956C20.5664 14.2162 20.6115 14.3318 20.6917 14.4171C20.7718 14.5024 20.8806 14.5503 20.994 14.5503Z" fill="#717171"/>
<path d="M20.994 18.1878H26.1254C26.2388 18.1878 26.3476 18.1399 26.4278 18.0547C26.508 17.9694 26.5531 17.8537 26.5531 17.7331C26.5531 17.6125 26.508 17.4969 26.4278 17.4116C26.3476 17.3263 26.2388 17.2784 26.1254 17.2784H20.994C20.8806 17.2784 20.7718 17.3263 20.6917 17.4116C20.6115 17.4969 20.5664 17.6125 20.5664 17.7331C20.5664 17.8537 20.6115 17.9694 20.6917 18.0547C20.7718 18.1399 20.8806 18.1878 20.994 18.1878Z" fill="#717171"/>
<path d="M20.994 21.8254H26.1254C26.2388 21.8254 26.3476 21.7775 26.4278 21.6922C26.508 21.607 26.5531 21.4913 26.5531 21.3707C26.5531 21.2501 26.508 21.1345 26.4278 21.0492C26.3476 20.9639 26.2388 20.916 26.1254 20.916H20.994C20.8806 20.916 20.7718 20.9639 20.6917 21.0492C20.6115 21.1345 20.5664 21.2501 20.5664 21.3707C20.5664 21.4913 20.6115 21.607 20.6917 21.6922C20.7718 21.7775 20.8806 21.8254 20.994 21.8254Z" fill="#717171"/>
<path d="M20.994 25.463H26.1254C26.2388 25.463 26.3476 25.4151 26.4278 25.3298C26.508 25.2445 26.5531 25.1289 26.5531 25.0083C26.5531 24.8877 26.508 24.772 26.4278 24.6868C26.3476 24.6015 26.2388 24.5536 26.1254 24.5536H20.994C20.8806 24.5536 20.7718 24.6015 20.6917 24.6868C20.6115 24.772 20.5664 24.8877 20.5664 25.0083C20.5664 25.1289 20.6115 25.2445 20.6917 25.3298C20.7718 25.4151 20.8806 25.463 20.994 25.463Z" fill="#717171"/>
</svg>
