<svg width="13" height="16" viewBox="0 0 13 16" fill="none" xmlns="http://www.w3.org/2000/svg">
<path d="M3.20754 0H1.70192C1.3026 0 0.919637 0.164216 0.637277 0.456522C0.354917 0.748828 0.196289 1.14528 0.196289 1.55866V14.028C0.196289 14.4414 0.354917 14.8378 0.637277 15.1301C0.919637 15.4224 1.3026 15.5866 1.70192 15.5866H3.20754C3.60686 15.5866 3.98982 15.4224 4.27218 15.1301C4.55454 14.8378 4.71317 14.4414 4.71317 14.028V1.55866C4.71317 1.14528 4.55454 0.748828 4.27218 0.456522C3.98982 0.164216 3.60686 0 3.20754 0ZM10.7357 0H9.23005C8.83073 0 8.44777 0.164216 8.16541 0.456522C7.88305 0.748828 7.72442 1.14528 7.72442 1.55866V14.028C7.72442 14.4414 7.88305 14.8378 8.16541 15.1301C8.44777 15.4224 8.83073 15.5866 9.23005 15.5866H10.7357C11.135 15.5866 11.518 15.4224 11.8003 15.1301C12.0827 14.8378 12.2413 14.4414 12.2413 14.028V1.55866C12.2413 1.14528 12.0827 0.748828 11.8003 0.456522C11.518 0.164216 11.135 0 10.7357 0Z" fill="#666666"/>
</svg>
