<svg width="30" height="27" viewBox="0 0 30 27" fill="none" xmlns="http://www.w3.org/2000/svg">
<path d="M1.33316 26.1086C1.05521 26.1086 0.788648 25.9951 0.592109 25.7929C0.395571 25.5907 0.285156 25.3165 0.285156 25.0306V1.31376C0.285156 1.02784 0.395571 0.753639 0.592109 0.551468C0.788648 0.349297 1.05521 0.235718 1.33316 0.235718H28.5813C28.8592 0.235718 29.1258 0.349297 29.3223 0.551468C29.5189 0.753639 29.6293 1.02784 29.6293 1.31376V25.0306C29.6293 25.3165 29.5189 25.5907 29.3223 25.7929C29.1258 25.9951 28.8592 26.1086 28.5813 26.1086H1.33316ZM11.6665 18.4114L9.40908 16.0893C9.21255 15.8872 8.94603 15.7737 8.66814 15.7737C8.39025 15.7737 8.12373 15.8872 7.9272 16.0893L2.38116 21.7986H27.8833L19.9541 12.0101C19.8557 11.8884 19.7326 11.7904 19.5933 11.7232C19.454 11.656 19.302 11.6211 19.1482 11.6211C18.9943 11.6211 18.8424 11.656 18.7031 11.7232C18.5638 11.7904 18.4406 11.8884 18.3423 12.0101L13.2133 18.3403C13.12 18.4554 13.0044 18.5493 12.8739 18.6158C12.7433 18.6824 12.6007 18.7203 12.4552 18.727C12.3096 18.7337 12.1643 18.7091 12.0285 18.6547C11.8927 18.6004 11.7694 18.5175 11.6665 18.4114ZM6.57318 8.86002C6.57332 9.28488 6.6548 9.70554 6.81298 10.098C6.97116 10.4905 7.20294 10.847 7.49509 11.1473C7.78723 11.4477 8.13402 11.6858 8.51565 11.8483C8.89727 12.0107 9.30627 12.0943 9.71929 12.0941C10.1323 12.094 10.5412 12.0102 10.9228 11.8475C11.3043 11.6847 11.6509 11.4463 11.9429 11.1458C12.2348 10.8453 12.4664 10.4886 12.6243 10.096C12.7822 9.70344 12.8634 9.28272 12.8633 8.85787C12.863 7.99984 12.5314 7.17707 11.9414 6.57056C11.3514 5.96404 10.5513 5.62347 9.71719 5.62375C8.88307 5.62404 8.08322 5.96516 7.49361 6.57208C6.90399 7.179 6.5729 8.002 6.57318 8.86002Z" fill="#717171"/>
</svg>
