<svg width="29" height="29" viewBox="0 0 29 29" fill="none" xmlns="http://www.w3.org/2000/svg">
<path d="M0 14.4998C0 20.4372 3.5703 25.5379 8.67926 27.7804C8.63848 26.768 8.67201 25.5525 8.93164 24.4509C9.21042 23.2738 10.7973 16.5499 10.7973 16.5499C10.7973 16.5499 10.3341 15.6241 10.3341 14.2558C10.3341 12.1071 11.5795 10.5022 13.1305 10.5022C14.4494 10.5022 15.0866 11.4929 15.0866 12.6791C15.0866 14.0049 14.241 15.9881 13.8061 17.8249C13.4428 19.363 14.5773 20.6175 16.0947 20.6175C18.8419 20.6175 20.6922 17.089 20.6922 12.9084C20.6922 9.73048 18.5518 7.35187 14.6588 7.35187C10.2604 7.35187 7.52031 10.6319 7.52031 14.2958C7.52031 15.5591 7.89277 16.4499 8.47615 17.1398C8.74439 17.4566 8.78166 17.5841 8.68458 17.9479C8.61503 18.2147 8.45531 18.857 8.38915 19.1115C8.29264 19.4787 7.99506 19.61 7.66315 19.4744C5.63729 18.6474 4.69379 16.4288 4.69379 13.9349C4.69379 9.81601 8.16758 4.87708 15.0567 4.87708C20.5926 4.87708 24.2362 8.88305 24.2362 13.1832C24.2362 18.8712 21.0739 23.1206 16.4125 23.1206C14.8471 23.1206 13.3746 22.2745 12.8702 21.3133C12.8702 21.3133 12.0284 24.6541 11.8501 25.2992C11.5427 26.4171 10.941 27.5345 10.3908 28.4054C11.7249 28.7999 13.1089 29.0001 14.5002 29C22.5071 29 28.9993 22.5081 28.9993 14.4998C28.9993 6.49186 22.5071 0 14.5002 0C6.49242 0 0 6.49186 0 14.4998Z" fill="#CB1F27"/>
</svg>
