<svg width="25" height="25" viewBox="0 0 25 25" fill="none" xmlns="http://www.w3.org/2000/svg">
<path d="M-0.000976562 12.4998C-0.000976562 17.6184 3.07695 22.0156 7.48135 23.9489C7.44619 23.0761 7.4751 22.0282 7.69893 21.0785C7.93926 20.0638 9.30732 14.2672 9.30732 14.2672C9.30732 14.2672 8.90801 13.4691 8.90801 12.2895C8.90801 10.437 9.98164 9.05354 11.3188 9.05354C12.4558 9.05354 13.0051 9.90754 13.0051 10.9302C13.0051 12.0732 12.2761 13.7828 11.9012 15.3663C11.588 16.6923 12.566 17.7739 13.8741 17.7739C16.2425 17.7739 17.8376 14.732 17.8376 11.1279C17.8376 8.38821 15.9924 6.33762 12.6362 6.33762C8.84443 6.33762 6.48223 9.16536 6.48223 12.3239C6.48223 13.413 6.80332 14.181 7.30625 14.7757C7.5375 15.0489 7.56963 15.1587 7.48594 15.4724C7.42598 15.7024 7.28828 16.2561 7.23125 16.4755C7.14805 16.7921 6.8915 16.9053 6.60537 16.7884C4.85889 16.0754 4.04551 14.1628 4.04551 12.0128C4.04551 8.46194 7.04023 4.20413 12.9793 4.20413C17.7518 4.20413 20.8929 7.65764 20.8929 11.3648C20.8929 16.2684 18.1667 19.9318 14.1481 19.9318C12.7986 19.9318 11.5292 19.2023 11.0943 18.3737C11.0943 18.3737 10.3687 21.2537 10.2149 21.8099C9.9499 22.7737 9.43115 23.7369 8.95684 24.4877C10.107 24.8278 11.3001 25.0004 12.4995 25.0003C19.4022 25.0003 24.9991 19.4037 24.9991 12.4998C24.9991 5.59622 19.4022 -0.000366211 12.4995 -0.000366211C5.59609 -0.000366211 -0.000976562 5.59622 -0.000976562 12.4998Z" fill="#CB1F27"/>
</svg>
