<svg width="23" height="15" viewBox="0 0 23 15" fill="none" xmlns="http://www.w3.org/2000/svg">
<path d="M0.690232 6.57552L9.57673 1.07149C9.79657 0.93301 10.0483 0.858191 10.3056 0.85485C10.5629 0.851508 10.8164 0.919766 11.0395 1.05249C11.2816 1.19844 11.4821 1.40812 11.6206 1.66023C11.7591 1.91234 11.8307 2.1979 11.8281 2.48792V6.33831L20.3311 1.07003C20.551 0.931548 20.8027 0.85673 21.06 0.853389C21.3174 0.850047 21.5708 0.918305 21.7939 1.05103C22.0361 1.19698 22.2365 1.40666 22.375 1.65877C22.5135 1.91088 22.5851 2.19644 22.5825 2.48646V13.251C22.5853 13.5411 22.5137 13.8268 22.3752 14.079C22.2367 14.3312 22.0362 14.5409 21.7939 14.6869C21.5708 14.8196 21.3174 14.8879 21.06 14.8845C20.8027 14.8812 20.551 14.8064 20.3311 14.6679L11.8281 9.39718V13.249C11.8312 13.5395 11.7598 13.8256 11.6213 14.0781C11.4828 14.3307 11.282 14.5408 11.0395 14.6869C10.8164 14.8196 10.5629 14.8879 10.3056 14.8845C10.0483 14.8812 9.79657 14.8064 9.57673 14.6679L0.690232 9.16387C0.478975 9.02687 0.304806 8.83655 0.184073 8.61078C0.0633392 8.385 0 8.13117 0 7.8731C0 7.61504 0.0633392 7.3612 0.184073 7.13543C0.304806 6.90965 0.478975 6.71933 0.690232 6.58233V6.57552Z" fill="#666666"/>
</svg>
