<svg width="26" height="20" viewBox="0 0 26 20" fill="none" xmlns="http://www.w3.org/2000/svg">
<path d="M3.06225 0.00835067C1.55226 -0.110498 0 1.05121 0 2.7298V16.2341C0 18.299 1.70097 20 3.7659 20H21.3401C23.4051 20 25.106 18.299 25.106 16.2341V2.75677C25.106 0.523681 22.3556 -0.795467 20.6144 0.604128L18.8295 2.03596L17.6919 2.95046L12.5334 7.08903L4.49898 0.582062C4.0643 0.229993 3.56558 0.0479667 3.06225 0.00835067ZM2.75823 2.44295C2.80738 2.45653 2.86265 2.48717 2.92005 2.53366L10.5303 8.69984L9.49812 9.52853C9.03742 9.89759 8.38353 9.8964 7.92409 9.52608L2.5106 5.15459V2.7298C2.5106 2.50662 2.61079 2.40222 2.75823 2.44295ZM22.3478 2.47237C22.4946 2.43242 22.5954 2.53546 22.5954 2.75677V16.2341C22.5954 16.9434 22.0494 17.4894 21.3401 17.4894H18.8295V5.25757L22.1884 2.56063C22.2458 2.51448 22.2989 2.48569 22.3478 2.47237Z" fill="#699BF7"/>
</svg>
