<svg width="30" height="30" viewBox="0 0 30 30" fill="none" xmlns="http://www.w3.org/2000/svg">
<path d="M15 30C23.2843 30 30 23.2843 30 15C30 6.71573 23.2843 0 15 0C6.71573 0 0 6.71573 0 15C0 23.2843 6.71573 30 15 30Z" fill="#FF4500"/>
<path d="M26 13.9749C26 12.6345 24.916 11.5699 23.595 11.5699C22.971 11.5691 22.3707 11.8092 21.9195 12.2402C20.2636 11.0573 17.9964 10.2887 15.4732 10.1901L16.5769 5.0252L20.1648 5.79385C20.2044 6.70072 20.9533 7.43022 21.8801 7.43022C22.8262 7.43022 23.595 6.66157 23.595 5.71491C23.595 4.76877 22.8263 4 21.8801 4C21.2099 4 20.6182 4.39427 20.3423 4.96604L16.3407 4.11833C16.2223 4.09844 16.104 4.11833 16.0251 4.1775C15.9265 4.23666 15.8675 4.3351 15.848 4.45343L14.6254 10.2096C12.0627 10.2887 9.75617 11.0573 8.08066 12.26C7.62937 11.829 7.02907 11.5889 6.40501 11.5898C5.06447 11.5898 4 12.6738 4 13.9948C4 14.9804 4.59127 15.8082 5.41947 16.1831C5.37925 16.4241 5.35946 16.6681 5.36031 16.9124C5.36031 20.6182 9.67763 23.6346 15.0001 23.6346C20.3228 23.6346 24.6401 20.6381 24.6401 16.9124C24.6399 16.6681 24.6202 16.4242 24.5809 16.1831C25.4087 15.8082 26 14.9605 26 13.9749ZM9.48024 15.6898C9.48024 14.7437 10.2489 13.9749 11.1955 13.9749C12.1417 13.9749 12.9105 14.7436 12.9105 15.6898C12.9105 16.6361 12.1418 17.4051 11.1955 17.4051C10.249 17.4245 9.48024 16.6361 9.48024 15.6898ZM19.0808 20.2437C17.898 21.4266 15.6506 21.5056 15.0001 21.5056C14.3299 21.5056 12.0826 21.4067 10.9192 20.2437C10.7421 20.0663 10.7421 19.7903 10.9192 19.6129C11.0967 19.4358 11.3726 19.4358 11.5501 19.6129C12.2994 20.3622 13.8765 20.6182 15.0001 20.6182C16.1239 20.6182 17.7205 20.362 18.4499 19.6129C18.6274 19.4358 18.9033 19.4358 19.0808 19.6129C19.2384 19.7903 19.2384 20.0663 19.0808 20.2437ZM18.7652 17.4247C17.8189 17.4247 17.0503 16.656 17.0503 15.7097C17.0503 14.7635 17.8189 13.9948 18.7652 13.9948C19.7117 13.9948 20.4804 14.7635 20.4804 15.7097C20.4804 16.636 19.7117 17.4247 18.7652 17.4247Z" fill="white"/>
</svg>
