<svg width="28" height="27" viewBox="0 0 28 27" fill="none" xmlns="http://www.w3.org/2000/svg">
<path d="M23.382 3.97109C21.9854 2.54425 20.2901 1.45328 18.4213 0.778741C16.5524 0.1042 14.5578 -0.13668 12.5848 0.0738885C6.46966 0.698115 1.43761 5.72567 0.754456 11.9173C-0.161976 20.0998 6.08642 27 13.9677 27C16.4839 27 18.9485 26.2771 21.0751 24.9153C23.2016 23.5535 24.9029 21.6087 25.9813 19.3068C26.5145 18.1765 25.7147 16.8774 24.4817 16.8774C23.8652 16.8774 23.282 17.2148 23.0154 17.7716C22.048 19.8788 20.3934 21.5844 18.3298 22.6014C16.2663 23.6184 13.9197 23.8849 11.685 23.3559C7.98593 22.5292 5.00337 19.4755 4.22023 15.7302C3.89104 14.2493 3.89485 12.7125 4.23139 11.2334C4.56793 9.75424 5.22858 8.37062 6.16448 7.18488C7.10039 5.99914 8.2876 5.04161 9.63829 4.38311C10.989 3.72461 12.4686 3.38199 13.9677 3.3806C16.7337 3.3806 19.1997 4.5447 20.9993 6.38364L18.4832 8.93116C17.4335 9.99403 18.1667 11.8161 19.6496 11.8161H25.6314C26.5478 11.8161 27.2976 11.0569 27.2976 10.129V4.07231C27.2976 2.5708 25.4981 1.8116 24.4484 2.87447L23.382 3.97109Z" fill="#666666"/>
</svg>
