<svg width="27" height="25" viewBox="0 0 27 25" fill="none" xmlns="http://www.w3.org/2000/svg">
<path fill-rule="evenodd" clip-rule="evenodd" d="M0.319336 12.5032C0.319336 12.0431 0.494866 11.6018 0.807312 11.2764C1.11976 10.951 1.54352 10.7682 1.98539 10.7682H21.2883L14.1342 3.32163C13.8214 2.99585 13.6457 2.55399 13.6457 2.09326C13.6457 1.63253 13.8214 1.19067 14.1342 0.864888C14.4471 0.539103 14.8714 0.356079 15.3138 0.356079C15.7562 0.356079 16.1805 0.539103 16.4934 0.864888L26.4897 11.2748C26.6448 11.436 26.7679 11.6274 26.8519 11.8382C26.9359 12.049 26.9792 12.275 26.9792 12.5032C26.9792 12.7314 26.9359 12.9574 26.8519 13.1682C26.7679 13.3789 26.6448 13.5704 26.4897 13.7316L16.4934 24.1415C16.1805 24.4673 15.7562 24.6503 15.3138 24.6503C14.8714 24.6503 14.4471 24.4673 14.1342 24.1415C13.8214 23.8157 13.6457 23.3739 13.6457 22.9131C13.6457 22.4524 13.8214 22.0105 14.1342 21.6848L21.2883 14.2382H1.98539C1.54352 14.2382 1.11976 14.0554 0.807312 13.73C0.494866 13.4046 0.319336 12.9633 0.319336 12.5032Z" fill="#666666"/>
</svg>
