<svg width="25" height="25" viewBox="0 0 25 25" fill="none" xmlns="http://www.w3.org/2000/svg">
<path d="M11.6037 0.0292052C7.61905 0.375036 4.24067 2.35731 2.06133 5.63646C0.506 7.96456 -0.243017 11.0302 0.0684654 13.7614C0.401825 16.6489 1.52691 19.0989 3.44581 21.1041C8.28265 26.1582 16.2093 26.3134 21.1951 21.4613C22.3254 20.3603 23.0057 19.4207 23.7026 18.0207C24.8797 15.6485 25.269 12.9625 24.8139 10.3537C24.3588 7.74485 23.083 5.34931 21.1722 3.51564C19.1377 1.55732 16.6823 0.404203 13.8227 0.0812882C13.1143 -0.00516949 12.1975 -0.0228777 11.6037 0.0292052V0.0292052ZM16.6187 2.70314C17.7771 3.15835 18.7918 3.81564 19.7773 4.77188C20.4232 5.39479 21.1555 6.2927 21.1316 6.43749C21.1149 6.51249 19.4377 7.1927 19.2647 7.1927C19.2064 7.1927 19.1835 7.1177 19.1835 6.93228C19.1835 6.78853 19.172 6.67395 19.1543 6.67395C19.1439 6.67395 18.3647 7.15207 17.4313 7.73957C16.4968 8.3281 15.6957 8.80623 15.6499 8.80623C15.5978 8.80623 15.5113 8.74268 15.4478 8.66143C15.3155 8.49477 15.2228 8.48331 15.079 8.6156C15.0103 8.67393 14.9748 8.78852 14.9748 8.94477V9.18018L14.1164 9.65934C13.6372 9.91872 13.1893 10.1312 13.108 10.1312H12.958V8.50102C12.958 7.60207 12.9747 6.39166 12.9976 5.82083C13.033 4.78959 13.0393 4.77188 13.1591 4.77188C13.281 4.77188 13.2924 4.74271 13.3205 4.23647C13.3903 3.08335 13.581 2.89898 14.7394 2.85835L15.2749 2.84168L15.4415 2.59898C15.604 2.36356 15.6155 2.36356 15.8228 2.42085C15.9437 2.45002 16.302 2.5771 16.6187 2.70314V2.70314ZM9.27439 2.7146L9.40148 2.90523L10.0692 2.89898C10.6985 2.89898 10.7558 2.91043 11.0089 3.05523C11.3787 3.27397 11.511 3.57293 11.5569 4.24792L11.5912 4.76667L11.7704 4.78334L11.9486 4.80105L11.9663 7.63019L11.9777 10.4656L11.736 10.6093C11.3496 10.84 11.0171 11.1508 10.761 11.5208L10.5766 11.802H5.11782V11.4635L4.5011 11.4458L3.87814 11.4281L3.46352 10.8177C3.11766 10.3041 2.99057 10.1656 2.67388 9.9583C2.24155 9.68226 2.25301 9.75726 2.52907 8.89268C3.21559 6.78332 4.82404 4.78334 6.80024 3.57293C7.49821 3.14689 8.8129 2.53648 9.04937 2.53023C9.10667 2.52502 9.21084 2.61148 9.27439 2.7146V2.7146ZM21.9452 7.82082C22.3139 8.53539 22.7004 9.47497 22.7004 9.65934C22.7004 9.7333 22.5963 9.81455 22.3598 9.93018C22.0202 10.0906 21.9504 10.177 21.9504 10.4541C21.9504 10.6156 21.7774 10.8291 21.3628 11.175L21.0222 11.4562H19.9908V11.8031H17.1083V10.8802L16.7625 10.4427C16.5718 10.2062 16.4166 9.99267 16.4166 9.96976C16.4166 9.94684 17.5344 9.26143 18.9064 8.44894C21.167 7.1052 21.4087 6.9729 21.4951 7.05311C21.5472 7.09999 21.7493 7.44582 21.9452 7.82082V7.82082ZM16.1572 11.0364C16.4104 11.4052 16.6302 11.7281 16.6364 11.751C16.6468 11.7791 16.226 11.8031 15.7072 11.8031H14.7509L14.5425 11.4572C14.4279 11.2666 14.3415 11.0823 14.3529 11.0531C14.3821 10.9666 15.5686 10.3156 15.6384 10.3448C15.6728 10.3562 15.903 10.6677 16.1572 11.0364V11.0364ZM8.57121 13.7104C8.83581 14.1249 9.03166 14.4822 9.00354 14.5114C8.8879 14.6156 3.62499 17.9697 3.5729 17.9697C3.41143 17.9697 2.72596 16.5978 2.50616 15.8364C2.24676 14.9374 2.23009 15.0353 2.702 14.7478C2.88743 14.6322 3.08849 14.4135 3.3656 14.0156L3.76875 13.4447L4.39693 13.4166L5.03135 13.3874L5.04906 13.1687L5.06573 12.9552H8.09305L8.57121 13.7104ZM10.462 13.2145C10.5307 13.3416 10.5943 13.4739 10.5943 13.5145C10.5943 13.5947 9.5567 14.2291 9.49316 14.1885C9.44107 14.1593 8.74935 13.0427 8.74935 12.9906C8.74935 12.9666 9.10667 12.9614 9.53899 12.9666L10.3286 12.9843L10.462 13.2145V13.2145ZM20.0023 13.1687L20.019 13.3874L20.5961 13.4166C21.218 13.4447 21.143 13.4166 21.8295 13.9176C21.841 13.9239 21.892 14.1197 21.9441 14.3447C22.0431 14.7874 22.0775 14.8228 22.4577 14.9145C22.7577 14.9895 22.7629 15.0531 22.5327 15.727C21.9389 17.4791 20.6711 19.2947 19.1085 20.6082C18.4397 21.1728 18.4803 21.1728 18.5262 20.5509C18.573 19.9114 18.498 19.577 18.2615 19.3405C17.9907 19.0749 17.7136 19.1103 16.9073 19.5249C16.376 19.7957 16.1801 19.8707 15.9728 19.8707C15.6322 19.8707 15.3155 19.7728 15.1134 19.6051L14.9467 19.4728L15.3561 19.0978C15.7936 18.7009 16.002 18.3374 15.903 18.153C15.7364 17.8426 15.4311 17.7676 14.8144 17.8822C14.2956 17.9864 13.9143 17.9916 13.7591 17.9114C13.5633 17.802 13.4591 17.5197 13.4883 17.1395C13.5174 16.7937 13.5112 16.7822 13.2632 16.4937L13.0153 16.1999V14.3614L13.4247 14.0791C13.6497 13.9291 14.007 13.6124 14.2144 13.376L14.5998 12.9552H19.9856L20.0033 13.1687H20.0023ZM11.8621 15.4156V16.2051L11.5746 16.4989L11.286 16.7937L11.3725 17.0416C11.4766 17.3353 11.4819 17.5832 11.3954 17.7437C11.2912 17.9457 11.0902 17.9749 10.462 17.8822C10.1982 17.841 9.93259 17.8121 9.66609 17.7957C8.9577 17.7957 8.93374 18.2978 9.60358 19.1041C9.92652 19.4895 9.92652 19.4843 9.51608 19.6916C8.93999 19.9801 8.57642 19.952 8.06909 19.5707C7.64197 19.2541 7.39508 19.1614 7.06068 19.1957C6.84191 19.2134 6.73773 19.2593 6.59918 19.4041L6.41479 19.5884L6.42104 20.303C6.42104 20.7009 6.40958 21.0228 6.39708 21.0228C6.33458 21.0228 5.33137 20.1416 4.88655 19.6978C4.4261 19.2312 3.85001 18.528 3.85001 18.4301C3.85001 18.3843 5.4293 17.6801 5.53243 17.6801C5.56785 17.6801 5.57931 17.7676 5.56785 17.8822C5.55639 17.9916 5.5616 18.0843 5.57827 18.0843C5.59598 18.0843 6.99713 17.3062 8.69205 16.3551C9.73068 15.77 10.7742 15.1936 11.8225 14.626C11.8454 14.626 11.8621 14.9833 11.8621 15.4156Z" fill="black"/>
</svg>
