<svg width="30" height="30" viewBox="0 0 30 30" fill="none" xmlns="http://www.w3.org/2000/svg">
<path d="M15.0867 0C7.12567 0 0.671875 6.7159 0.671875 15C0.671875 23.2847 7.12578 30 15.0867 30C23.0483 30 29.5015 23.2847 29.5015 15C29.5015 6.71649 23.0485 0 15.0867 0ZM21.6972 21.6345C21.4389 22.0751 20.8846 22.2148 20.4612 21.9443C17.0767 19.7931 12.8163 19.3058 7.79866 20.4988C7.56631 20.5538 7.32247 20.5106 7.12075 20.3786C6.91904 20.2466 6.77595 20.0366 6.72295 19.7948C6.69654 19.6752 6.69308 19.5512 6.71276 19.4302C6.73244 19.3091 6.77488 19.1932 6.83764 19.0892C6.90041 18.9853 6.98226 18.8952 7.07853 18.8242C7.17479 18.7531 7.28358 18.7026 7.39865 18.6754C12.8898 17.3699 17.5997 17.9319 21.3994 20.3483C21.8228 20.6188 21.9571 21.1938 21.6972 21.6345ZM23.4615 17.5501C23.136 18.1003 22.4441 18.2741 21.9157 17.9355C18.0411 15.4573 12.1347 14.7395 7.55181 16.1871C6.95742 16.3739 6.3297 16.0254 6.14929 15.4079C5.97023 14.7894 6.30537 14.1374 6.89875 13.9494C12.1337 12.2964 18.6418 13.0971 23.0914 15.9424C23.6198 16.2811 23.7869 17.001 23.4615 17.5501ZM23.613 13.297C18.9671 10.4255 11.3021 10.1613 6.86654 11.5624C6.15424 11.7872 5.40095 11.3687 5.18518 10.6275C4.9693 9.88594 5.371 9.10266 6.08386 8.8773C11.1756 7.26879 19.6402 7.57969 24.9889 10.8839C25.6311 11.2795 25.841 12.1406 25.4606 12.8064C25.0819 13.4732 24.2515 13.6929 23.613 13.297Z" fill="#1ED760"/>
</svg>
