<svg width="31" height="25" viewBox="0 0 31 25" fill="none" xmlns="http://www.w3.org/2000/svg">
<path d="M30.999 2.95944C29.8382 3.46976 28.6069 3.80473 27.3461 3.95321C28.6594 3.17214 29.6677 1.93527 30.1425 0.461557C28.8941 1.19671 27.5282 1.71468 26.1039 1.99307C24.9437 0.766537 23.2909 0 21.4616 0C17.9491 0 15.1014 2.82582 15.1014 6.31111C15.1014 6.80583 15.1577 7.28745 15.266 7.74949C9.9803 7.48621 5.29397 4.97366 2.15703 1.15527C1.60969 2.0874 1.29606 3.17166 1.29606 4.32813C1.29606 6.51779 2.41896 8.44946 4.12541 9.5813C3.11543 9.54991 2.12767 9.27921 1.24459 8.79181C1.24423 8.81824 1.24423 8.84468 1.24423 8.87124C1.24423 11.9291 3.43651 14.48 6.34591 15.0598C5.40935 15.3125 4.42697 15.3495 3.47381 15.1679C4.28308 17.6753 6.63193 19.4999 9.41491 19.551C7.23825 21.2436 4.49584 22.2527 1.51621 22.2527C1.00277 22.2527 0.496598 22.2227 -0.000976562 22.1645C2.81361 23.9552 6.15664 25 9.74828 25C21.4468 25 27.8438 15.383 27.8438 7.04304C27.8438 6.7693 27.8377 6.49712 27.8254 6.22651C29.0705 5.3333 30.1452 4.22697 30.999 2.95944Z" fill="#55ACEE"/>
</svg>
