<svg width="26" height="26" viewBox="0 0 26 26" fill="none" xmlns="http://www.w3.org/2000/svg">
<path d="M0.619141 13.1248C0.619141 18.2434 3.69707 22.6406 8.10147 24.5739C8.06631 23.7011 8.09521 22.6532 8.31904 21.7035C8.55938 20.6888 9.92744 14.8922 9.92744 14.8922C9.92744 14.8922 9.52812 14.0941 9.52812 12.9145C9.52812 11.062 10.6018 9.67854 11.9389 9.67854C13.0759 9.67854 13.6252 10.5325 13.6252 11.5552C13.6252 12.6982 12.8962 14.4078 12.5213 15.9913C12.2081 17.3173 13.1861 18.3989 14.4942 18.3989C16.8626 18.3989 18.4577 15.357 18.4577 11.7529C18.4577 9.01321 16.6125 6.96262 13.2563 6.96262C9.46455 6.96262 7.10234 9.79036 7.10234 12.9489C7.10234 14.038 7.42344 14.806 7.92637 15.4007C8.15762 15.6739 8.18975 15.7837 8.10605 16.0974C8.04609 16.3274 7.9084 16.8811 7.85137 17.1005C7.76816 17.4171 7.51162 17.5303 7.22549 17.4134C5.479 16.7004 4.66563 14.7878 4.66563 12.6378C4.66563 9.08694 7.66035 4.82913 13.5994 4.82913C18.3719 4.82913 21.513 8.28264 21.513 11.9898C21.513 16.8934 18.7868 20.5568 14.7683 20.5568C13.4187 20.5568 12.1493 19.8273 11.7145 18.9987C11.7145 18.9987 10.9888 21.8787 10.8351 22.4349C10.57 23.3987 10.0513 24.3619 9.57695 25.1127C10.7271 25.4528 11.9203 25.6254 13.1196 25.6253C20.0224 25.6253 25.6192 20.0287 25.6192 13.1248C25.6192 6.22122 20.0224 0.624634 13.1196 0.624634C6.21621 0.624634 0.619141 6.22122 0.619141 13.1248Z" fill="#CB1F27"/>
</svg>
