<svg width="26" height="26" viewBox="0 0 26 26" fill="none" xmlns="http://www.w3.org/2000/svg">
<path d="M16.6534 0.334554L1.78637 0.929792C1.77472 0.930226 1.76309 0.931001 1.75149 0.932117C1.74295 0.9328 1.73443 0.933575 1.72591 0.934442C1.42572 0.95563 1.14468 1.08971 0.939344 1.30972C0.734005 1.52972 0.619599 1.81933 0.619141 2.12027V18.6614C0.619141 19.3667 0.82869 20.056 1.21903 20.6424L4.39053 25.3997C4.50625 25.5732 4.66552 25.7133 4.85242 25.8059C5.03931 25.8986 5.24727 25.9405 5.45545 25.9275L24.5031 24.737C24.8053 24.718 25.089 24.5846 25.2963 24.3639C25.5037 24.1431 25.6191 23.8517 25.6191 23.5488V5.09646C25.6189 4.79846 25.5069 4.51139 25.3052 4.29196C25.2573 4.22878 25.1972 4.17582 25.1285 4.13617L25.1262 4.13385C25.0566 4.08328 24.9818 4.0404 24.903 4.00596L20.0202 1.22044L20.0597 1.24601C19.0623 0.568161 17.8636 0.246573 16.6603 0.334554H16.6534ZM16.7208 1.5227C16.7278 1.52283 16.7347 1.52283 16.7417 1.5227C17.679 1.45293 18.6132 1.70158 19.3901 2.22955C19.4029 2.23859 19.4161 2.24713 19.4296 2.25513L22.4337 3.96876L6.39946 4.48727L3.55813 2.05051L16.7208 1.5227ZM23.2382 6.32646V22.4304L6.57152 23.4721V6.86357L23.2382 6.32646ZM21.3827 8.67021C20.1756 8.74164 18.9616 8.80062 17.7508 8.8911C17.3532 8.92086 17.0579 9.26474 17.0091 9.64212C16.9865 9.81831 17.0347 9.90918 17.2347 9.92347C17.6013 9.95085 17.9651 10.0027 18.3461 10.0467V17.0338C18.2342 16.8731 18.173 16.7882 18.1159 16.7013C16.5564 14.3453 14.9899 11.9936 13.4447 9.62817C13.2113 9.27103 12.9929 9.09914 12.5262 9.15152C11.4346 9.27175 10.3337 9.30756 9.23847 9.39566C8.63132 9.44447 8.27087 9.9762 8.43397 10.5536C8.84468 10.5893 9.25876 10.626 9.68257 10.6629V20.7005C9.404 20.7791 9.12647 20.8675 8.84552 20.9354C8.5598 21.0044 8.42595 21.1966 8.37119 21.4609C8.32714 21.6728 8.37905 21.7798 8.63858 21.7608C9.53025 21.6977 10.4266 21.6586 11.3195 21.605C11.6885 21.5836 12.0585 21.5762 12.4216 21.5167C12.9168 21.4345 13.1865 21.1327 13.24 20.6494C12.7996 20.5518 12.3565 20.4444 11.9101 20.3587C11.7113 20.3206 11.6438 20.2392 11.645 20.0332C11.6521 17.7046 11.6508 15.3747 11.652 13.0461C11.652 12.97 11.6679 12.8922 11.6822 12.7648C11.7512 12.8565 11.7792 12.8941 11.8054 12.9345C13.0102 14.8048 14.2115 16.6796 15.4234 18.5451C15.9448 19.3475 16.4789 20.1415 17.0277 20.9261C17.4253 21.4951 18.0085 21.6757 18.6716 21.5376C19.0859 21.4507 19.484 21.2848 19.89 21.1563C20.1162 21.0848 20.1818 20.9386 20.1806 20.7005C20.1723 17.2791 20.176 13.8588 20.176 10.4373C20.176 9.80042 20.1739 9.80098 20.8061 9.67003C21.387 9.54979 21.5577 9.26545 21.3827 8.67021Z" fill="black"/>
</svg>
