<svg width="28" height="26" viewBox="0 0 28 26" fill="none" xmlns="http://www.w3.org/2000/svg">
<path d="M2.36369 0.12793H25.839C26.646 0.12793 27.3062 0.790366 27.3062 1.60001V25.1533L0.896484 25.1238V1.60001C0.896484 0.790366 1.55673 0.12793 2.36369 0.12793ZM8.23251 1.60001L5.2981 6.01625H6.76531L9.69972 1.60001H8.23251ZM14.1013 1.60001H12.6341L9.69972 6.01625H11.1669L14.1013 1.60001ZM18.503 1.60001H17.0358L14.1013 6.01625H15.5685L18.503 1.60001ZM22.9046 1.60001H21.4374L18.503 6.01625H19.9702L22.9046 1.60001ZM24.3718 22.2091V7.48833H3.8309V22.2091H24.3718ZM11.1669 8.96041L19.9702 14.8487L11.1669 20.737V8.96041Z" fill="#717171"/>
</svg>
