<svg width="20" height="20" viewBox="0 0 20 20" fill="none" xmlns="http://www.w3.org/2000/svg">
<path d="M5.63637 14.9877L11.8998 19.8508C12.2611 20.2248 12.8634 19.8508 12.8634 19.2273V0.772715C12.8634 0.14925 12.2611 -0.224829 11.8998 0.14925L5.63637 5.01228M5.63637 14.9877H2.02286C1.30016 14.9877 0.818359 14.489 0.818359 13.7408V6.25921C0.818359 5.51105 1.30016 5.01228 2.02286 5.01228H5.63637M17.0791 15.6112C16.7178 15.6112 16.4769 15.4865 16.236 15.2371C15.7542 14.7383 15.7542 13.9902 16.236 13.4914C18.1632 11.4963 18.1632 8.37899 16.236 6.3839C15.7542 5.88513 15.8746 5.01228 16.3564 4.6382C16.8382 4.26412 17.4405 4.26412 17.9223 4.6382C20.6926 7.50614 20.6926 12.2445 17.9223 15.2371C17.8018 15.4865 17.4405 15.6112 17.0791 15.6112V15.6112Z" fill="#666666"/>
</svg>
