<svg width="25" height="25" viewBox="0 0 25 25" fill="none" xmlns="http://www.w3.org/2000/svg">
<path d="M12.625 17.5312C12.625 17.6688 12.7313 17.7812 12.8594 17.7812H18.6406C18.7687 17.7812 18.875 17.6688 18.875 17.5312V16.0312C18.875 15.8937 18.7687 15.7812 18.6406 15.7812H12.8594C12.7313 15.7812 12.625 15.8937 12.625 16.0312V17.5312ZM6.53438 17.7219L12.5344 12.6906C12.6531 12.5906 12.6531 12.4062 12.5344 12.3062L6.53438 7.27812C6.49815 7.24732 6.45386 7.22756 6.40674 7.22119C6.35962 7.21482 6.31166 7.2221 6.26856 7.24217C6.22546 7.26224 6.18902 7.29425 6.16357 7.33442C6.13813 7.37458 6.12474 7.4212 6.125 7.46875V9.42813C6.125 9.50313 6.15625 9.57187 6.21562 9.61875L9.64688 12.5L6.21562 15.3813C6.18769 15.4046 6.16514 15.4338 6.1495 15.4667C6.13385 15.4996 6.1255 15.5355 6.125 15.5719V17.5312C6.125 17.7438 6.37188 17.8594 6.53438 17.7219ZM24 0H1C0.446875 0 0 0.446875 0 1V24C0 24.5531 0.446875 25 1 25H24C24.5531 25 25 24.5531 25 24V1C25 0.446875 24.5531 0 24 0ZM22.75 22.75H2.25V2.25H22.75V22.75Z" fill="#717171"/>
</svg>
