<svg width="30" height="25" viewBox="0 0 30 25" fill="none" xmlns="http://www.w3.org/2000/svg">
<g clip-path="url(#clip0_105_243)">
<path d="M28.4295 4.85497C28.2656 4.18503 27.9459 3.57428 27.5023 3.08352C27.0587 2.59276 26.5067 2.23912 25.9011 2.05781C23.6841 1.38892 14.7613 1.38892 14.7613 1.38892C14.7613 1.38892 5.83814 1.40916 3.62112 2.07805C3.01553 2.25937 2.46345 2.61303 2.01985 3.10382C1.57624 3.5946 1.2566 4.20538 1.09275 4.87534C0.422153 9.23312 0.162017 15.8734 1.11116 20.0568C1.27503 20.7268 1.59468 21.3375 2.03828 21.8283C2.48188 22.319 3.03396 22.6727 3.63954 22.854C5.85655 23.5229 14.7795 23.5229 14.7795 23.5229C14.7795 23.5229 23.7024 23.5229 25.9193 22.854C26.5249 22.6727 27.077 22.3191 27.5206 21.8283C27.9642 21.3375 28.2839 20.7268 28.4478 20.0568C29.1551 15.6929 29.373 9.05682 28.4295 4.85509V4.85497Z" fill="#FF0000"/>
<path d="M11.9209 17.1988L19.323 12.4559L11.9209 7.71289V17.1988Z" fill="white"/>
</g>
<defs>
<clipPath id="clip0_105_243">
<rect width="30" height="23.3333" fill="white" transform="translate(-0.000976562 0.833374)"/>
</clipPath>
</defs>
</svg>
