<svg width="35" height="32" viewBox="0 0 35 32" fill="none" xmlns="http://www.w3.org/2000/svg">
<path d="M34.3292 15.1577H31.3664C27.5295 12.5097 25.0893 8.07335 24.8235 3.26065L26.3046 0.570196L25.4576 0.0566406L23.9771 2.74932C21.964 3.81527 19.7163 4.37287 17.4334 4.37267C15.1506 4.37248 12.903 3.8145 10.8901 2.74821L9.40954 0.0566406L8.56254 0.570196L10.0437 3.26176C9.7773 8.07446 7.33764 12.5097 3.49964 15.1577H0.539062V16.1832H3.50077C7.33877 18.8296 9.77842 23.2659 10.0437 28.0786L8.56254 30.7707L9.40954 31.2826L10.8912 28.5899C12.904 27.5243 15.1512 26.9668 17.4336 26.9668C19.716 26.9668 21.9632 27.5243 23.9759 28.5899L25.4576 31.2826L26.3046 30.7707L24.8235 28.0797C25.0899 23.2659 27.5295 18.8296 31.3664 16.1832H34.3292V15.1577ZM29.7096 15.1577H26.8047C24.3003 13.4353 22.7094 10.5458 22.5421 7.40924L23.9951 4.76786C24.5763 8.85679 26.6262 12.5861 29.7096 15.1577ZM17.4341 14.6442L16.2239 12.4444C16.6141 12.5359 17.0135 12.583 17.4144 12.5849C17.8278 12.5849 18.2417 12.5331 18.6478 12.4361L17.4341 14.6442ZM19.4903 12.9569C19.7333 13.7681 20.1489 14.5186 20.709 15.1577H18.28L19.4903 12.9569ZM16.5877 15.1577H14.1672C14.7235 14.515 15.1346 13.762 15.3729 12.9491L16.5877 15.1577ZM16.5877 16.1832L15.378 18.3818C15.1341 17.5715 14.7187 16.822 14.1593 16.1832H16.5877ZM17.4341 16.6951L18.6433 18.8959C17.8456 18.7112 17.0154 18.7137 16.2188 18.9032L17.4341 16.6951ZM18.28 16.1832H20.7C20.1437 16.8257 19.7326 17.5786 19.4942 18.3913L18.28 16.1832ZM22.1991 15.1577C21.0722 14.3492 20.3474 13.045 20.2258 11.6181L21.7334 8.87853C22.1727 11.3169 23.3953 13.5368 25.1867 15.1577H22.1991ZM19.3934 11.0816C18.7894 11.3873 18.1215 11.5487 17.4432 11.5528C16.7649 11.557 16.095 11.4038 15.4873 11.1056L13.9797 8.36553C15.0849 8.77341 16.2546 8.98319 17.4341 8.98503C18.6022 8.98503 19.7707 8.77537 20.8875 8.36553L19.3934 11.0816ZM14.6284 11.5946C14.5243 13.0243 13.8107 14.3342 12.6939 15.1577H9.68043C11.4719 13.5379 12.6939 11.3169 13.1338 8.87965L14.6284 11.5946ZM12.6692 16.1832C13.7961 16.99 14.5209 18.2943 14.6414 19.7206L13.1338 22.4607C12.6939 20.0234 11.473 17.8025 9.68155 16.1832H12.6692ZM15.4743 20.2576C16.0784 19.9522 16.7463 19.791 17.4245 19.7868C18.1028 19.7826 18.7726 19.9357 19.3805 20.2336L20.8875 22.9726C18.6597 22.1532 16.2087 22.1538 13.9814 22.9743L15.4743 20.2576ZM20.2399 19.7457C20.3429 18.3171 21.0553 17.0062 22.1727 16.1832H25.1867C23.3953 17.8025 22.1727 20.0234 21.7334 22.4618L20.2399 19.7457ZM17.4341 5.39963C19.3967 5.39731 21.3391 5.00796 23.1481 4.2543L21.6957 6.89624C20.3852 7.59272 18.9209 7.95722 17.4336 7.95722C15.9462 7.95722 14.482 7.59272 13.1715 6.89624L11.7185 4.2543C13.5281 5.00798 15.471 5.39733 17.4341 5.39963ZM10.8727 4.76897L12.3256 7.4098C12.1578 10.5463 10.5674 13.4381 8.06413 15.1577H5.15818C8.24097 12.5861 10.292 8.8579 10.8727 4.76897ZM5.15874 16.1832H8.06357C10.5669 17.904 12.1578 20.7951 12.3251 23.9306L10.8721 26.5719C10.292 22.4825 8.24209 18.7532 5.15874 16.1832ZM11.7185 27.0849L13.1726 24.443C14.4831 23.7471 15.9471 23.3829 17.4341 23.3829C18.9212 23.3829 20.3852 23.7471 21.6957 24.443L23.1481 27.0849C21.3384 26.3333 19.3957 25.9461 17.4333 25.9461C15.4709 25.9461 13.5282 26.3333 11.7185 27.0849ZM23.9945 26.5719L22.5415 23.9306C22.7094 20.7951 24.2997 17.9034 26.803 16.1832H29.709C26.6262 18.7532 24.5751 22.4825 23.9945 26.5719Z" fill="#717171"/>
</svg>
